<svg xmlns="http://www.w3.org/2000/svg" xml:space="preserve" width="10mm" height="10mm" viewBox="0 0 10 10"><g transform="translate(-10 -10)"><circle cx="15" cy="15" r="5" style="fill:#897752;fill-opacity:1;stroke-width:.290169"/><path d="M15 10.631a4.37 4.37 0 0 0-4.369 4.37A4.37 4.37 0 0 0 15 19.367 4.37 4.37 0 0 0 19.369 15a4.37 4.37 0 0 0-4.37-4.369m0 .585A3.784 3.784 0 0 1 18.784 15 3.784 3.784 0 0 1 15 18.784 3.784 3.784 0 0 1 11.216 15 3.784 3.784 0 0 1 15 11.216" style="fill:#f4ead1;fill-opacity:1;stroke-width:.253525"/></g><path d="M14.769 11.959c-.06.004-1.052.256-1.207.31-.156.056-.236.102-.329.102-.092 0-.265.13-.265.13s-.31.118-.424.114-.114-.118-.169-.215c-.054-.096-.277-.311-.429-.361-.151-.051-.526-.16-.715.1-.19.261-.231.581-.164.711s.307.345.4.379c.092.034.138.223.164.231s.092-.054.143-.046.092.03.117.008c.026-.02.022.017.047.034s.206.055.206.055.092-.025.135-.097c.042-.071.075-.214.075-.214s.05.1.017.18c-.034.08-.034.143-.126.16-.093.017-.244-.03-.29.013-.047.042-.261.198-.333.278-.071.08-.172.244-.218.248s-.282-.232-.396-.43c-.113-.197-.156-.336-.156-.336s.06-.088.06-.193-.034-.202-.047-.303.013-.194-.025-.202-.08.084-.076.122.017.139-.05.13c-.068-.008-.14-.298-.152-.349s-.033-.122-.059-.122-.046.097-.008.194c.038.096.05.122.013.143s-.127-.354-.156-.345c-.03.008-.042.164-.004.256.038.093.105.173.063.194-.042.02-.122-.08-.181-.194-.059-.113-.099-.133-.066-.014s.137.23.116.266c-.02.035-.04.004-.102-.055-.063-.06-.072-.055-.097-.04s-.013.023-.013.023.041.04.065.087c.024.048.069.048.115.147.046.1.101.172.132.229.032.056.17.11.217.18s.094.314.168.482.37.694.435.731.18-.007.18-.007.145-.086.194-.135.05-.01.115-.058c.066-.048.412-.342.492-.432s.19-.234.21-.248.221.112.418.445.432.302.745.602c.312.3.493.535.493.535s-.558.253-.877.465c-.318.21-.824.606-.854.699s.06.321.167.514c.107.194.482.717.702 1.02s.482.67.431.929c-.05.258-.386.39-.386.39s-.167.03-.226.097c-.06.069-.054.146.02.194.075.048.277-.048.459-.102.181-.053.288-.145.377-.187.09-.041.458-.163.458-.163s.018-.078.012-.161-.065-.184-.136-.31c-.072-.124-.22-.285-.286-.47a10 10 0 0 1-.256-.809c-.06-.244-.512-.743-.512-.743s.19-.125.435-.143c.244-.018.386.066.684-.018.297-.083.34-.136.488-.19.149-.054.5-.125.648-.405s.15-.404.125-.66-.285-.511-.285-.511-.923-1.155-1.071-1.404c-.15-.25-.351-.548-.351-.548s.452-.178.6-.25c.15-.071.304-.196.304-.196l1.231.285s.209.072.256.155a.5.5 0 0 0 .244.197c.101.041.214.118.214.16s.06-.09.06-.09-.165-.092-.148-.167c.016-.076.096-.068.18-.068.085 0 .324.021.362.005.038-.017.063.03.067-.038s-.037-.013-.126-.038c-.088-.025-.176-.021-.202-.05-.025-.03-.025-.06-.025-.06l.19.017s.176.005.235-.02.034-.072.034-.072-.101-.013-.156-.013-.29-.033-.29-.033-.013-.03.03-.05c.041-.022.31-.119.31-.119s.009-.05-.008-.063-.214.038-.265.063c-.05.026-.193.047-.193.047s.012-.08.058-.127c.047-.046.194-.147.143-.185-.05-.038-.206.122-.206.122s-.176.114-.26.101-.14-.02-.202.004c-.063.026-.089.038-.177-.004s-.488-.24-.673-.298a3.5 3.5 0 0 0-.631-.122zM11.632 13.1s-.03.088-.055.07.055-.07.055-.07zm3.953 2.15s.036.137.036.298-.095.369-.262.583c-.166.214-.5.304-.5.304l.346.47c.16.22.53.452.642.553.113.1.321.291.482.422.16.13.327.13.476.172s.172.012.172.012l.497-.385s-.264-.15-.544-.275-.297-.386-.535-.69-.44-.416-.571-.637c.074-.334-.239-.827-.239-.827z" style="fill:#f4ead1;fill-opacity:1;stroke:#897752;stroke-width:.05;stroke-linecap:butt;stroke-linejoin:miter;stroke-dasharray:none;stroke-dashoffset:0;stroke-opacity:1" transform="translate(-10 -10)"/><path d="m14.403 13.307.256.298 1.902-.041zm.537.703.281.34 1.993.016zm.624.769.244.29 1.588-.009zM15.96 15.528l.086.303 1.58-.06zm.367.818.232.228 1.26-.009z" style="fill:#f4ead1;fill-opacity:1" transform="translate(-10 -10)"/></svg>