<svg xmlns="http://www.w3.org/2000/svg" xml:space="preserve" width="37.795" height="10mm" viewBox="0 0 10 10"><g transform="translate(-19.975)"><circle cx="24.975" cy="5" r="5" style="fill:#897752;fill-opacity:1;stroke-width:.290169"/><path d="M24.975.631a4.37 4.37 0 0 0-4.369 4.37 4.37 4.37 0 0 0 1.089 2.882l.452-.385A3.78 3.78 0 0 1 21.191 5a3.784 3.784 0 0 1 3.784-3.784A3.784 3.784 0 0 1 28.759 5a3.784 3.784 0 0 1-3.784 3.784 3.8 3.8 0 0 1-.837-.106l-.562.451a4.4 4.4 0 0 0 1.399.24A4.37 4.37 0 0 0 29.344 5a4.37 4.37 0 0 0-4.37-4.369" style="fill:#f4ead1;fill-opacity:1;stroke-width:.253525"/></g><path d="M47.922 12.768c-.178.019-.633.166-.687.234-.06.078.049.519.049.519l-7.003 5.845s.634.414 1.586.324c.951-.091 2.086-1.037 2.294-1.245.207-.207 3.404-4.017 3.404-4.017s-.024.065.085.052.5-.143.5-.143.159-.103.171-.194c.012-.09-.146-.726-.146-.726l.22-.13-.183-.336-.122.13s-.013-.286-.11-.312a.2.2 0 0 0-.058 0m-.032.105c.023 0 .045.008.057.03.02.035.038.153.038.153l.176.739s.073.327.055.368-.09.082-.131.105c-.041.024-.43.108-.43.108v-.037l.181-.173s.079.035.073-.184c-.006-.22-.122-.667-.122-.667l-.02-.032-.04-.015-.14.039-.08.032-.133.114-.032.014s-.032-.113-.044-.201.006-.167.006-.167.012-.032.08-.079c.066-.046.429-.128.464-.14a.1.1 0 0 1 .042-.007m.315.174.12.204-.153.09-.04-.213zm-.55.494.047.41-3.064 2.91s-.764.665-1.63 1.243c-.865.58-1.386.537-1.386.537z" style="fill:#f4ead1;fill-opacity:1;stroke:none;stroke-width:.28454px;stroke-linecap:butt;stroke-linejoin:miter;stroke-opacity:1" transform="translate(-39.987 -10)"/><path d="m43.7 10.835-.855.376 3.72 1.556zm-1.803 1.092-.544.658 4.52.62zm-.883 1.277-.29.964 4.639-.37zm4.316 1.123-4.675.438.05 1.014zm2.23.935-.697 3.68.78-.506z" style="fill:#f4ead1;fill-opacity:1;stroke:none;stroke-width:.264583px;stroke-linecap:butt;stroke-linejoin:miter;stroke-opacity:1" transform="translate(-39.987 -10)"/></svg>