<svg xmlns="http://www.w3.org/2000/svg" xml:space="preserve" width="37.795" height="10mm" viewBox="0 0 10 10"><g transform="translate(-19.975)"><circle cx="24.975" cy="5" r="5" style="fill:#897752;fill-opacity:1;stroke-width:.290169"/><path d="M24.975.631a4.37 4.37 0 0 0-4.369 4.37 4.37 4.37 0 0 0 4.369 4.367A4.37 4.37 0 0 0 29.343 5 4.37 4.37 0 0 0 24.975.631m0 .585A3.784 3.784 0 0 1 28.759 5a3.784 3.784 0 0 1-3.784 3.784A3.784 3.784 0 0 1 21.19 5a3.784 3.784 0 0 1 3.784-3.784" style="fill:#f4ead1;fill-opacity:1;stroke-width:.253525"/></g><path d="M26.689 14.977a.94.94 0 0 0-.65-.62c-.736-.21-1.501-.102-1.753.107-.253.209-.576.803-.588 1.003-.011.2-.415.402-.416.456s.192.147.209.25-.003.198.063.234c.067.036-.024.05-.044.11-.021.058.022.432.022.432s.123.165.318.203.548.018.548.018-.278.188-.49.23c-.207-.017-.97.003-1.154.145-.35.488-.25.297-.067.886 1.634.612 2.934.95 4.355.13-.135-.265.825-1-.191-1.084 0 0-.902-.067-.973-.29s.191-.291.375-.455.52-.725.528-1.049a2 2 0 0 0-.092-.706z" style="fill:none;fill-opacity:1;stroke:#f4ead1;stroke-width:.311;stroke-linecap:butt;stroke-linejoin:miter;stroke-dasharray:none;stroke-dashoffset:0;stroke-opacity:1" transform="matrix(.9971 0 0 1.09448 -19.8 -11.888)"/><path d="M24.43 14.8s.19-.142.407-.213c.218-.07.354-.077.51-.028.156.05.278-.092.489.043.21.134.17.261.272.367s.183.106.238.31c.054.206.197.312.101.53-.095.22-.271.206-.312.241s.034.191-.184.226c-.217.036-.387-.007-.455-.127s-.058-.17-.304-.085-.41.02-.504-.162-.014-.233-.014-.233-.292-.05-.367-.177c-.074-.127-.122-.24-.068-.375.055-.134.19-.318.19-.318" style="fill:#f4ead1;fill-opacity:1;stroke:none;stroke-width:.313569px;stroke-linecap:butt;stroke-linejoin:miter;stroke-opacity:1" transform="matrix(.9971 0 0 1.09448 -19.8 -11.888)"/><path d="m25.302 13.212.076-1.735-.001.017M26.01 13.279l.297-1.604M26.72 13.56l.646-1.174M24.652 13.32l-.51-1.803M23.986 13.489l-1.118-1.331M23.401 13.88l-1.158-.677" style="fill:none;stroke:#f0e6cd;stroke-width:.1;stroke-linecap:butt;stroke-linejoin:miter;stroke-dasharray:none;stroke-opacity:1" transform="translate(-20 -10)"/></svg>