<svg xmlns="http://www.w3.org/2000/svg" width="640" height="640" viewBox="0 0 2000 2000"><path fill="beige" stroke="#000" stroke-width="15" d="m914 .14-37 4.02-55 8.26c-61.73 11.13-122.35 27.69-181 50-121.97 46.4-233.56 116.75-329 205.67L288 292c-98.74 98.74-175.93 218.48-225.58 349-23.63 62.14-40.84 126.45-51.83 192C7.32 852.49.03 903.93 0 922v151l6.73 64c5.14 35.64 11.8 71.08 20.64 106 53.74 212.29 177.46 404.22 349.63 539.79 91.91 72.37 193.08 126.9 304 163.88 63.56 21.18 133.35 37.36 200 44.49l57 4.88 11 1h13l12 .96h47l17-1 57-3.83c76.31-7.63 147.2-22.57 220-46.84 38.94-12.98 77.05-28.19 114-46.07l26-12.57 44-24.11c66.28-38.47 127.95-84.44 184-136.67l24-23.91c130.06-130.06 221.46-295.13 263.88-474 10.5-44.25 17.77-88.78 22.29-134l2.83-30v-9l1.04-10v-13l.96-12v-47l-1-15c-.54-46.08-7.37-97.53-15.58-143-16.91-93.79-48.97-189.29-92.68-274-47.83-92.7-108.97-177.23-182.74-251l-23-22.91c-108.78-101.35-231.13-173.8-372-220.76-51.64-17.21-100.37-28.64-154-37.58-17.8-2.96-65.44-9.55-82-9.61H914Z"/><path fill="#b87333" stroke="#000" stroke-width="20" d="M997.09 755.55 294 285 68.67 1370l927.66 627.67 928.34-622.34L1703.5 288.5 997.12 755.75"/><path fill="none" stroke="#000" stroke-width="20" d="m294 285.09 702.73 1712.73L1703.5 288.56M294 285.09l703.06 470.35 706.44-466.91"/></svg>