<svg xmlns="http://www.w3.org/2000/svg" xml:space="preserve" width="37.795" height="37.795" viewBox="0 0 10 10"><g transform="translate(-19.975)"><circle cx="24.975" cy="5" r="5" style="fill:#897752;fill-opacity:1;stroke-width:.290169"/><path d="M24.975.631a4.37 4.37 0 0 0-4.369 4.37 4.37 4.37 0 0 0 4.369 4.367A4.37 4.37 0 0 0 29.343 5 4.37 4.37 0 0 0 24.975.631m0 .585A3.784 3.784 0 0 1 28.759 5a3.784 3.784 0 0 1-3.784 3.784A3.784 3.784 0 0 1 21.19 5a3.784 3.784 0 0 1 3.784-3.784" style="fill:#f4ead1;fill-opacity:1;stroke-width:.253525"/></g><path d="M27.08 14.525a1.02 1.02 0 0 0-.708-.672c-.8-.229-1.633-.11-1.908.116s-.627.87-.64 1.086c-.012.216-.45.436-.452.495s.209.159.227.27-.003.214.07.253c.072.04-.027.055-.05.119-.022.064.025.468.025.468s.134.179.346.22c.212.043.596.02.596.02s-.302.204-.532.25c-.226-.019-1.057.003-1.257.157-.381.528-.668 1.434-.47 2.072 1.544 1.563 4.24 1.144 5.66.092-.147-.288.374-2.147-.731-2.238 0 0-.981-.073-1.059-.314s.209-.316.409-.493c.2-.178.565-.786.574-1.136a2.1 2.1 0 0 0-.1-.765" style="fill:#f4ead1;fill-opacity:1;stroke:none;stroke-width:.33768;stroke-linecap:butt;stroke-linejoin:miter;stroke-dasharray:none;stroke-dashoffset:0;stroke-opacity:1" transform="matrix(.9971 0 0 1.09448 -19.913 -13.314)"/><path d="M24.964 19.637c-.08.14-.331.447-.283.69.09.46 1.056.42 1.165-.039.055-.231-.211-.55-.293-.672-.072-.106-.288-.74-.288-.74s-.238.648-.301.761" style="fill:#897752;fill-opacity:1;stroke:none;stroke-width:.0337173;stroke-linecap:butt;stroke-linejoin:miter;stroke-dasharray:none;stroke-opacity:1" transform="matrix(.9971 0 0 1.09448 -19.913 -13.314)"/><path d="M24.478 18.997c.183-.851 2.393-1.952 2.62-2.065-.178.32-.253.517-.253.723-.155-.072-.285-.057-.502.085-.216.142-.335.293-.345.513-.145-.153-.37-.148-.462-.046-.1.11-.18.104-.343.612-.453-.102-.716.26-.715.178" style="fill:#897752;fill-opacity:1;stroke:none;stroke-width:.424201px;stroke-linecap:butt;stroke-linejoin:miter;stroke-opacity:1" transform="matrix(.9971 0 0 1.09448 -19.913 -13.314)"/></svg>