<svg xmlns="http://www.w3.org/2000/svg" width="512" height="512" style="height:512px;width:512px" viewBox="0 0 512 512"><g style="stroke-width:2.04"><path d="m390.2 368.9-87 95L444 373.8zM121.8 368.9l-53.84 4.9 140.84 90.1zM143.2 368.6 256 491.7l112.8-123.1ZM460 186l-61.9 167.5 61.9 5.7zM52 186v173.2l61.9-5.7zM270.1 144.9l115.3 197L456.6 149ZM241.9 144.9 55.39 149l71.21 192.9ZM264 20.3v108.5l175.7 3.8zM248 20.3 72.33 132.6 248 128.8Z" style="fill:#fff;fill-opacity:1;stroke-width:2.04" transform="rotate(-10.763 286.831 -364.725)scale(.4902)"/><g aria-label="10" style="font-weight:700;font-size:113.386px;line-height:1;font-family:&quot;Arial Rounded MT Bold&quot;;-inkscape-font-specification:&quot;Arial Rounded MT Bold, Bold&quot;;letter-spacing:-14.49px;word-spacing:0;stroke-width:2.04"><path d="M305.81 286.471q0 9.08-1.108 15.613-1.107 6.533-4.097 11.848-3.765 6.533-9.744 10.076-5.98 3.544-13.288 3.544-8.415 0-15.114-4.762-6.644-4.761-10.021-13.176-1.716-4.596-2.547-10.132-.775-5.592-.775-12.07 0-8.36.886-15.058.886-6.7 2.768-11.516 3.267-7.973 9.467-12.125 6.257-4.208 14.893-4.208 5.703 0 10.354 1.883 4.65 1.827 8.138 5.425 3.543 3.544 5.98 8.803 4.207 9.135 4.207 25.855m-15.17-1.107q0-10.132-1.219-16.554-1.218-6.477-4.097-9.744-2.879-3.322-7.972-3.322-7.308 0-10.187 7.364-2.824 7.363-2.824 22.699 0 10.409 1.218 17.052 1.218 6.644 4.097 10.077 2.88 3.377 7.807 3.377 5.093 0 7.972-3.544t4.042-10.131 1.162-17.274m-67.671 33.33v-50.382q-14.063 10.796-18.935 10.796-2.325 0-4.152-1.827-1.772-1.882-1.772-4.318 0-2.824 1.772-4.153 1.771-1.329 6.256-3.432 6.7-3.156 10.685-6.644 4.042-3.488 7.142-7.806 3.1-4.319 4.042-5.315t3.543-.997q2.934 0 4.706 2.27t1.772 6.256v63.392q0 11.128-7.585 11.128-3.377 0-5.426-2.27-2.048-2.27-2.048-6.699M256 152.4 138.9 352.6h234.2z" style="font-size:113.386px;text-align:center;text-anchor:middle;fill:#fff;fill-opacity:1;stroke-width:2.04" transform="rotate(-10.763 286.831 -364.725)scale(.4902)"/></g></g><g style="stroke-width:2.04"><path d="m390.2 368.9-87 95L444 373.8zM121.8 368.9l-53.84 4.9 140.84 90.1zM143.2 368.6 256 491.7l112.8-123.1ZM460 186l-61.9 167.5 61.9 5.7zM52 186v173.2l61.9-5.7zM270.1 144.9l115.3 197L456.6 149ZM241.9 144.9 55.39 149l71.21 192.9ZM264 20.3v108.5l175.7 3.8zM248 20.3 72.33 132.6 248 128.8Z" style="fill:#fff;fill-opacity:1;stroke-width:2.04" transform="rotate(-10.763 1294.43 -1077.82)scale(.4902)"/><g aria-label="15" style="font-weight:700;font-size:113.386px;line-height:1;font-family:&quot;Arial Rounded MT Bold&quot;;-inkscape-font-specification:&quot;Arial Rounded MT Bold, Bold&quot;;letter-spacing:-14.49px;word-spacing:0;stroke-width:2.04"><path d="M294.286 258.79h-26.298l-3.155 17.937q7.861-4.207 14.505-4.207 5.315 0 9.91 1.993 4.65 1.993 8.139 5.536 3.488 3.488 5.48 8.305 1.994 4.816 1.994 10.353 0 8.028-3.599 14.616-3.598 6.588-10.408 10.464-6.755 3.875-15.613 3.875-9.91 0-16.11-3.654-6.146-3.654-8.748-8.36-2.547-4.761-2.547-8.304 0-2.16 1.771-4.097 1.827-1.938 4.54-1.938 4.65 0 6.92 5.37 2.215 4.928 5.98 7.696 3.765 2.713 8.416 2.713 4.263 0 7.474-2.215 3.21-2.214 4.927-6.09 1.772-3.875 1.772-8.803 0-5.315-1.883-9.08-1.882-3.764-5.038-5.591-3.155-1.883-7.031-1.883-4.761 0-6.81 1.163t-5.924 4.097q-3.82 2.879-6.311 2.879-2.713 0-4.817-1.938-2.104-1.993-2.104-4.484 0-.277.61-3.765l4.65-26.52q.775-4.76 2.879-6.92t6.865-2.16h29.232q8.637 0 8.637 6.589 0 2.879-2.104 4.65t-6.2 1.772m-73.317 59.903v-50.381q-14.063 10.796-18.935 10.796-2.325 0-4.152-1.827-1.772-1.882-1.772-4.318 0-2.824 1.772-4.153 1.771-1.329 6.256-3.432 6.7-3.156 10.685-6.644 4.042-3.488 7.142-7.806 3.1-4.319 4.042-5.315t3.543-.997q2.934 0 4.706 2.27t1.772 6.256v63.392q0 11.128-7.585 11.128-3.377 0-5.426-2.27-2.048-2.27-2.048-6.699M256 152.4 138.9 352.6h234.2z" style="font-size:113.386px;text-align:center;text-anchor:middle;fill:#fff;fill-opacity:1;stroke-width:2.04" transform="rotate(-10.763 1294.43 -1077.82)scale(.4902)"/></g></g><g style="stroke-width:2.04"><path d="m390.2 368.9-87 95L444 373.8zM121.8 368.9l-53.84 4.9 140.84 90.1zM143.2 368.6 256 491.7l112.8-123.1ZM460 186l-61.9 167.5 61.9 5.7zM52 186v173.2l61.9-5.7zM270.1 144.9l115.3 197L456.6 149ZM241.9 144.9 55.39 149l71.21 192.9ZM264 20.3v108.5l175.7 3.8zM248 20.3 72.33 132.6 248 128.8Z" style="fill:#fff;fill-opacity:1;stroke-width:2.04" transform="rotate(-10.763 1409.873 147.66)scale(.4902)"/><g aria-label="20" style="font-weight:700;font-size:113.386px;line-height:1;font-family:&quot;Arial Rounded MT Bold&quot;;-inkscape-font-specification:&quot;Arial Rounded MT Bold, Bold&quot;;letter-spacing:-8px;word-spacing:0;stroke-width:2.04"><path d="M313.054 286.471q0 9.08-1.107 15.613t-4.097 11.848q-3.765 6.533-9.744 10.076-5.98 3.544-13.288 3.544-8.415 0-15.114-4.762-6.644-4.761-10.021-13.176-1.716-4.596-2.547-10.132-.775-5.592-.775-12.07 0-8.36.886-15.058.886-6.7 2.768-11.516 3.267-7.973 9.467-12.125 6.257-4.208 14.893-4.208 5.703 0 10.354 1.883 4.65 1.827 8.138 5.425 3.543 3.544 5.98 8.803 4.207 9.135 4.207 25.855m-15.17-1.107q0-10.132-1.218-16.554-1.218-6.477-4.097-9.744-2.879-3.322-7.972-3.322-7.308 0-10.187 7.364-2.824 7.363-2.824 22.699 0 10.409 1.218 17.052 1.218 6.644 4.097 10.077 2.88 3.377 7.807 3.377 5.093 0 7.972-3.544t4.042-10.131 1.162-17.274m-80.86 27.848h28.9q4.32 0 6.59 1.772t2.27 4.817q0 2.713-1.828 4.595-1.772 1.882-5.426 1.882h-40.748q-4.152 0-6.477-2.27-2.326-2.325-2.326-5.425 0-1.993 1.495-5.26 1.495-3.322 3.267-5.204 7.363-7.64 13.287-13.066 5.924-5.481 8.47-7.198 4.54-3.21 7.53-6.422 3.045-3.266 4.596-6.643 1.605-3.433 1.605-6.7 0-3.543-1.716-6.311-1.661-2.824-4.595-4.374-2.88-1.55-6.312-1.55-7.253 0-11.405 6.367-.554.83-1.882 4.54-1.274 3.71-2.935 5.702-1.605 1.993-4.76 1.993-2.77 0-4.596-1.827t-1.827-4.982q0-3.82 1.716-7.973 1.716-4.152 5.094-7.53 3.432-3.377 8.636-5.425 5.26-2.104 12.291-2.104 8.471 0 14.45 2.657 3.876 1.772 6.81 4.873t4.54 7.197q1.661 4.041 1.661 8.415 0 6.865-3.433 12.513-3.377 5.591-6.92 8.803-3.543 3.155-11.903 9.965-8.305 6.81-11.406 10.575-1.328 1.494-2.712 3.598M256 152.4 138.9 352.6h234.2z" style="font-size:113.386px;text-align:center;text-anchor:middle;fill:#fff;fill-opacity:1;stroke-width:2.04" transform="rotate(-10.763 1409.873 147.66)scale(.4902)"/></g></g></svg>