<svg xmlns="http://www.w3.org/2000/svg" width="512" height="512" viewBox="0 0 512 512"><path d="M251.373 153.969c-38.68 21.5-85.036 52.219-113.623 88.21 3.769 32.184 13.488 61.381 27.43 85.073a40 40 0 0 0 1.978-1.727c5.12-4.836 9.545-11.255 14.264-17.884 4.727-6.697 9.607-13.433 15.832-18.664 6.073-5.105 13.845-8.803 23.238-8.803 9.352 0 18.526 2.265 25.776 7.074 3.5 2.322 5.968 4.723 7.652 6.047s2.017 1.299 2.068 1.299.383.025 2.067-1.3c1.683-1.323 4.151-3.724 7.652-6.046 7.25-4.809 16.423-7.074 25.775-7.074 9.393 0 17.165 3.698 23.239 8.803 6.218 5.225 11.094 11.951 15.816 18.64l.018.024c4.719 6.629 9.143 13.048 14.263 17.884a40 40 0 0 0 2.069 1.795c13.838-23.498 23.522-52.415 27.363-84.299-28.928-42.097-78.05-72.91-122.877-89.05zM193.123 237c.814-.013 1.624-.006 2.438 0 13.02.102 26.043 2.687 39.062 7.438-16.848 40.6-58.98 41.963-78.125 0 12.206-4.835 24.42-7.24 36.625-7.438m124.904 0h.002c13.02-.102 26.043 2.28 39.063 7.438-19.148 41.963-61.28 40.6-78.125 0 13.02-4.75 26.041-7.336 39.06-7.438m-62.039 110.309c-12.565 0-32.182 8.572-52.297 16.404l-.008.002-.01.004a359 359 0 0 1-6.138 2.297c17.315 14.22 37.275 22.328 58.525 22.328 21.233 0 41.176-8.094 58.479-22.293a356 356 0 0 1-6.239-2.332l-.008-.004-.008-.002c-20.114-7.832-39.732-16.404-52.297-16.404z" style="fill:#fff;fill-opacity:1"/><path d="M250.453 18.648c-81.376 0-231.45 155.81-171.668 300.672 7.978 25.267 27.867 50.345 49.205 77.076 24.453 30.633 51.61 63.238 68.668 96.885h20.584c-18.13-39.8-48.558-75.86-74.646-108.542-27.415-34.343-48.813-65.267-48.815-87.95.002-3.61.377-7.333 1.09-11.136l-.12-.027c.287-1.23.598-2.455.924-3.674.913-3.757 2.14-7.578 3.68-11.436 23.075-61.4 94.16-106.3 146.552-135.014l3.594-1.97 3.906 1.345c60.932 20.9 131.302 66.756 155.967 135.77a96 96 0 0 1 2.914 8.998c.41 1.413.81 2.832 1.182 4.263l-.156.04c1.1 5.15 1.68 10.232 1.678 15.177v.002c0 22.304-24.448 53.49-55.04 87.512-29.063 32.318-62.31 67.554-79.997 106.644h20.59c16.756-32.134 46.205-64.013 73.303-94.147 23.14-25.733 45.285-49.998 54.867-74.945 52.844-124.03-99.228-305.54-178.262-305.54z" style="fill:#fff;fill-opacity:1"/><path d="M220.518 287.992c-7.654 0-13.2 2.662-18.413 7.044s-9.872 10.648-14.531 17.248c-4.659 6.544-9.318 13.422-15.252 19.023-5.934 5.546-13.438 9.706-22.684 9.928-11.125.277-21.807-6.267-30.585-12.867 1.152 2.274 2.261 4.548 3.587 6.932 7.859 14.143 19.162 28.674 28.43 31.669 10.52 3.438 30.126-2.274 49.925-9.928 19.8-7.709 39.489-16.915 55.018-16.915s35.218 9.206 55.018 16.915c19.8 7.654 39.433 13.366 49.915 9.928 9.262-2.995 20.576-17.526 28.451-31.669 1.332-2.384 2.44-4.658 3.55-6.932-8.763 6.6-19.411 13.144-30.56 12.867-9.261-.222-16.749-4.382-22.683-9.928-5.934-5.601-10.593-12.479-15.252-19.023-4.658-6.6-9.317-12.867-14.53-17.248-5.214-4.382-10.76-7.044-18.414-7.044-8.042 0-16.028 2.107-21.63 5.823-5.601 3.716-8.873 8.597-13.865 8.597-4.991 0-8.264-4.88-13.865-8.597s-13.588-5.823-21.63-5.823" style="color:#000;font-style:normal;font-variant:normal;font-weight:400;font-stretch:normal;font-size:medium;line-height:normal;font-family:sans-serif;font-variant-ligatures:normal;font-variant-position:normal;font-variant-caps:normal;font-variant-numeric:normal;font-variant-alternates:normal;font-variant-east-asian:normal;font-feature-settings:normal;font-variation-settings:normal;text-indent:0;text-align:start;text-decoration:none;text-decoration-line:none;text-decoration-style:solid;text-decoration-color:#000;letter-spacing:normal;word-spacing:normal;text-transform:none;writing-mode:lr-tb;direction:ltr;text-orientation:mixed;dominant-baseline:auto;baseline-shift:baseline;text-anchor:start;white-space:normal;shape-padding:0;shape-margin:0;inline-size:0;clip-rule:nonzero;display:inline;overflow:visible;visibility:visible;isolation:auto;mix-blend-mode:normal;color-interpolation:sRGB;color-interpolation-filters:linearRGB;solid-color:#000;solid-opacity:1;vector-effect:none;fill:#fff;fill-opacity:1;fill-rule:nonzero;stroke:none;stroke-width:15;stroke-linecap:butt;stroke-linejoin:miter;stroke-miterlimit:4;stroke-dasharray:none;stroke-dashoffset:0;stroke-opacity:1;color-rendering:auto;image-rendering:auto;shape-rendering:auto;text-rendering:auto;stop-color:#000"/></svg>