<svg xmlns="http://www.w3.org/2000/svg" width="512" height="512" viewBox="0 0 512 512"><g style="stroke-width:1.54493;stroke-miterlimit:4;stroke-dasharray:none"><path d="M256 71.021c-102.285 0-185.02 82.74-185.02 184.979 0 102.238 82.735 184.979 185.02 184.979 16.132 0 31.776-2.062 46.688-5.93l18.92-58.319-42.38-39.2a14.98 15.023 0 0 1-.003-.003c-13.58-12.568-4.687-37.87 14.308-37.877a14.98 15.023 0 0 1 .006 0h53.076l11.87-36.587a14.98 15.023 0 0 1 .036-.11l-.029.094.04-.117.017-.053a14.98 15.023 0 0 1 .025-.08l.03-.082.01-.033q0-.006.003-.01l.006-.014v-.004a14.98 15.023 0 0 1 .004-.008 14.98 15.023 0 0 1 .23-.6l-.023.05-.074.168a14.98 15.023 0 0 1 .129-.34 14.98 15.023 0 0 1 .017-.045l.028-.07q.067-.173.138-.342a14.98 15.023 0 0 1 .002-.01l.051-.12a14.98 15.023 0 0 1 .05-.122l.079-.18a14.98 15.023 0 0 1 .016-.039q.15-.343.314-.682a14.98 15.023 0 0 1 .045-.093q.048-.103.1-.205l.001-.004.002-.004.07-.139a14.98 15.023 0 0 1 .02-.04q.08-.153.16-.304l.008-.017.022-.04.12-.222a14.98 15.023 0 0 1 .06-.107l.03-.057.03-.053.033-.056q.06-.107.123-.213a14.98 15.023 0 0 1 .076-.131l.041-.068.01-.016.01-.016a14.98 15.023 0 0 1 .012-.02l.03-.052q.032-.051.063-.103a14.98 15.023 0 0 1 .08-.13l.038-.058q.058-.094.117-.187a14.98 15.023 0 0 1 .002-.004l.084-.13.166-.251q0-.002.002-.004l.007-.012q.1-.147.202-.293a14.98 15.023 0 0 1 .08-.115 14.98 15.023 0 0 1 .029-.041l.04-.055a14.98 15.023 0 0 1 .073-.1q.039-.052.076-.105a14.98 15.023 0 0 1 .018-.025l.024-.031a14.98 15.023 0 0 1 .128-.176l.04-.051.03-.041a14.98 15.023 0 0 1 .077-.1l.014-.017q.093-.122.189-.242a14.98 15.023 0 0 1 .076-.096l.012-.016.031-.039.016-.02q.087-.109.178-.216.079-.095.16-.19l.043-.05a14.98 15.023 0 0 1 .115-.133l.17-.192.058-.068.022-.023.172-.19a14.98 15.023 0 0 1 .117-.123l.074-.078a14.98 15.023 0 0 1 .082-.088l.02-.02a21 21 0 0 1 .41-.415l.012-.012a14.98 15.023 0 0 1 .07-.069l.144-.14.05-.045a14.98 15.023 0 0 1 .157-.149l.227-.209c.022-.019.04-.037.063-.056a14.98 15.023 0 0 1 .003-.004l.03-.025.146-.13q.013-.012.024-.023a14.98 15.023 0 0 1 .142-.123q.147-.125.295-.248.123-.101.248-.201a14.98 15.023 0 0 1 .049-.041q.03-.025.063-.049.147-.119.298-.234a14.98 15.023 0 0 1 .045-.034q.116-.086.233-.171.054-.042.11-.082.18-.134.366-.262a14.98 15.023 0 0 1 .02-.016q.17-.118.342-.232.15-.1.302-.197l.059-.038a14.98 15.023 0 0 1 .014-.01l.005-.003a14.98 15.023 0 0 1 .11-.069q.15-.094.3-.187h.003l.021-.014.102-.06.058-.035a14.98 15.023 0 0 1 .004-.002h.002a14.98 15.023 0 0 1 .268-.157l.101-.058q.041-.023.082-.045a14.98 15.023 0 0 1 .178-.1l.228-.123.061-.031a14.98 15.023 0 0 1 .213-.111l.033-.016.2-.102a14.98 15.023 0 0 1 .066-.03l.097-.05a14.98 15.023 0 0 1 .272-.129 14.98 15.023 0 0 1 .078-.037l.238-.107.08-.037a14.98 15.023 0 0 1 .309-.133l.09-.037.053-.024a14.98 15.023 0 0 1 .003-.002q.18-.075.36-.146a14.98 15.023 0 0 1 .07-.025l.02-.008.011-.004q.169-.066.338-.129a14.98 15.023 0 0 1 .108-.04l.203-.07.17-.06.02-.008q.003 0 .007-.002.17-.057.34-.111a14.98 15.023 0 0 1 .047-.016l.1-.03a14.98 15.023 0 0 1 .044-.015 14.98 15.023 0 0 1 .077-.025q.015-.005.03-.008a14.98 15.023 0 0 1 .07-.021l.019-.006a14.98 15.023 0 0 1 .195-.059l.166-.047-.063.02q.161-.046.323-.09l.205-.053a14.98 15.023 0 0 1 .162-.043q.204-.049.41-.095a14.98 15.023 0 0 1 .006-.002q.192-.044.385-.082a14.98 15.023 0 0 1 .056-.012l.141-.027.027-.006a14.98 15.023 0 0 1 .032-.008l.025-.004q.153-.03.307-.057a14.98 15.023 0 0 1 .039-.005q.297-.053.595-.096l.196-.028a14.98 15.023 0 0 1 .07-.01q.193-.024.387-.046a14.98 15.023 0 0 1 .06-.008 20 20 0 0 1 .512-.049h.002l.068-.006a14.98 15.023 0 0 1 .19-.013l.056-.004a14.98 15.023 0 0 1 .088-.008l.092-.006a14.98 15.023 0 0 1 .111-.008 14.98 15.023 0 0 1 .309-.015q.167-.005.334-.008.188-.006.377-.008h.004a14.98 15.023 0 0 1 .025 0 14.98 15.023 0 0 1 .008 0h.205a14.98 15.023 0 0 1 .03 0l.074.002q.133.001.267.006h.047q.163.003.326.01a14.98 15.023 0 0 1 .219.011 14.98 15.023 0 0 1 .201.01l.07.006h.008a14.98 15.023 0 0 1 .067.004l.035.002q.203.015.404.033l.022.002q.153.013.304.027a14.98 15.023 0 0 1 .11.014q.22.023.441.053l.016.002q.132.017.263.037l.02.004.164.023a14.98 15.023 0 0 1 .04.006q.19.03.382.064a14.98 15.023 0 0 1 .01.002q.135.023.271.05l.06.01q.053.01.104.02a14.98 15.023 0 0 1 .104.02q.2.042.4.088a14.98 15.023 0 0 1 .004 0q.2.046.4.096l.045.01q.19.046.38.097a14.98 15.023 0 0 1 .027.008q.17.045.34.094l.042.011.024.008a14.98 15.023 0 0 1 .213.065l.101.03.086.026.078.026a14.98 15.023 0 0 1 .082.025l.274.09.027.01q.194.064.387.132a14.98 15.023 0 0 1 .121.045 14.98 15.023 0 0 1 .14.053h.003l.173.066a14.98 15.023 0 0 1 .057.022l.037.016a21 21 0 0 1 .817.337 14.98 15.023 0 0 1 .05.022l.096.045.02.008a14.98 15.023 0 0 1 .056.025 14.98 15.023 0 0 1 .049.024l.023.007.01.006.012.006.03.014a14.98 15.023 0 0 1 .132.06 21 21 0 0 1 .682.336l.006.002.062.033a14.98 15.023 0 0 1 .037.02q.169.087.336.178a14.98 15.023 0 0 1 .09.048q.136.075.271.153l.03.017a14.98 15.023 0 0 1 .01.006l.01.006.015.008q.169.097.336.197a14.98 15.023 0 0 1 .05.03q.224.135.444.275a14.98 15.023 0 0 1 .006.004q.186.12.37.242l.009.006.289.195a14.98 15.023 0 0 1 .092.063l.007.006h.002l.106.076a14.98 15.023 0 0 1 .078.056l.103.075.014.01q.172.123.34.251a14.98 15.023 0 0 1 .057.043l.062.047a14.98 15.023 0 0 1 .016.012q.123.096.246.193a14.98 15.023 0 0 1 .105.084q.12.099.24.197l.014.01q.15.125.297.252a14.98 15.023 0 0 1 .108.094l.18.158.083.076q.108.096.215.194l-.018-.014q.226.209.446.422l.027.027.195.194.043.044a14.98 15.023 0 0 1 .04.04l.136.138.01.012.158.164a14.98 15.023 0 0 1 .014.014q.14.15.277.302a14.98 15.023 0 0 1 .115.13q.239.265.467.538a14.98 15.023 0 0 1 .047.059l.09.107.039.051.123.152.023.028q.118.148.233.299a14.98 15.023 0 0 1 .055.07 22 22 0 0 1 .693.967l.006.008.013.02a14.98 15.023 0 0 1 .1.15q.092.138.182.279l.021.033.004.01a14.98 15.023 0 0 1 .053.08l.105.168a14.98 15.023 0 0 1 .06.094q.064.104.124.209l.04.068.007.008a14.98 15.023 0 0 1 .033.058q.265.453.508.916.062.117.123.235a14.98 15.023 0 0 1 .002.004q.099.194.193.39a14.98 15.023 0 0 1 .024.05q.08.166.158.333a14.98 15.023 0 0 1 .013.031q.013.027.024.055l.004.008q.076.168.15.338l.004.007q.072.166.14.333a14.98 15.023 0 0 1 .077.185l.033.08.022.055.037.096a14.98 15.023 0 0 1 .002.011l.004.008a14.98 15.023 0 0 1 .013.031q.077.2.15.4l.003.007q.075.2.146.404a14.98 15.023 0 0 1 .072.217l.022.07.031.092a14.98 15.023 0 0 1 .379 1.392l-.154-.697 11.648 35.904h25.008A185.7 185.7 0 0 0 441.02 256c0-102.238-82.736-184.979-185.021-184.979m121.4 272.135-6.6 20.346 7.925 7.33 7.925-7.33-6.601-20.346z" style="color:#000;font-style:normal;font-variant:normal;font-weight:400;font-stretch:normal;font-size:medium;line-height:normal;font-family:sans-serif;font-variant-ligatures:normal;font-variant-position:normal;font-variant-caps:normal;font-variant-numeric:normal;font-variant-alternates:normal;font-variant-east-asian:normal;font-feature-settings:normal;font-variation-settings:normal;text-indent:0;text-align:start;text-decoration:none;text-decoration-line:none;text-decoration-style:solid;text-decoration-color:#000;letter-spacing:normal;word-spacing:normal;text-transform:none;writing-mode:lr-tb;direction:ltr;text-orientation:mixed;dominant-baseline:auto;baseline-shift:baseline;text-anchor:start;white-space:normal;shape-padding:0;shape-margin:0;inline-size:0;clip-rule:nonzero;display:inline;overflow:visible;visibility:visible;isolation:auto;mix-blend-mode:normal;color-interpolation:sRGB;color-interpolation-filters:linearRGB;solid-color:#000;solid-opacity:1;vector-effect:none;fill:#fff;fill-opacity:1;fill-rule:evenodd;stroke:none;stroke-width:15.0001;stroke-linecap:round;stroke-linejoin:round;stroke-miterlimit:4;stroke-dasharray:none;stroke-dashoffset:0;stroke-opacity:1;paint-order:normal;color-rendering:auto;image-rendering:auto;shape-rendering:auto;text-rendering:auto;stop-color:#000"/><path d="M392.99 247.378a7 7 0 0 0-.267.006l-.056.004-.066.004-.022.002a5 5 0 0 0-.289.026l-.122.015-.097.014a7 7 0 0 0-.293.049l-.053.01-.026.005-.123.027-.13.03-.01.003-.12.03-.102.029-.053.015-.034.01-.108.034h-.003l-.116.039-.064.022-.213.078-.018.007a7 7 0 0 0-.228.094l-.034.014-.026.012-.095.043-.02.01-.183.089-.059.03-.02.01-.124.066-.026.015a8 8 0 0 0-.339.2l-.019.012a7 7 0 0 0-.481.334l-.003.002a7 7 0 0 0-.45.372l-.021.02-.078.07-.016.016-.091.087-.017.017a7 7 0 0 0-.201.206l-.023.022a8 8 0 0 0-.169.189l-.015.017a8 8 0 0 0-.159.191l-.02.025-.065.083-.031.04-.007.01a7 7 0 0 0-.163.222l-.002.002-.013.018-.132.196-.03.045a7 7 0 0 0-.137.222l-.016.027-.01.017-.064.111-.032.057a8 8 0 0 0-.118.22l-.025.052-.037.073-.01.021q-.06.126-.117.254v.001l-.027.063a7 7 0 0 0-.142.355l-.003.005-.007.02a8 8 0 0 0-.088.258l-.003.01-.006.017-.003.007-16.836 51.75h-70.675c-6.47.002-9.473 8.517-4.592 13.022l54.633 50.394-29.278 89.989c-2.334 7.18 5.802 13.003 11.207 8.021l62.164-57.339 62.165 57.34c5.405 4.981 13.54-.842 11.207-8.022l-29.278-89.989 54.633-50.394c4.881-4.505 1.879-13.02-4.592-13.022h-70.675l-16.837-51.751-.001-.004-.04-.118-.008-.025a8 8 0 0 0-.145-.386l-.02-.052-.005-.01a8 8 0 0 0-.112-.257l-.01-.022a8 8 0 0 0-.174-.35 8 8 0 0 0-.176-.317l-.016-.026-.057-.095-.02-.031a7 7 0 0 0-.137-.213l-.013-.02a7 7 0 0 0-.622-.796l-.013-.014-.012-.014a7 7 0 0 0-.198-.21l-.007-.007a7 7 0 0 0-.417-.39l-.01-.01a8 8 0 0 0-.218-.179l-.018-.014-.08-.063-.021-.016a7 7 0 0 0-.216-.156l-.03-.021-.01-.007a6 6 0 0 0-.487-.308l-.028-.016a7 7 0 0 0-.218-.119l-.021-.01a7 7 0 0 0-.242-.12l-.01-.003-.049-.022a6 6 0 0 0-.361-.153l-.026-.01-.1-.038-.014-.005a6 6 0 0 0-.352-.116l-.06-.018-.013-.004a7 7 0 0 0-.411-.105l-.127-.027-.052-.01-.105-.02-.122-.02-.07-.01q-.047-.008-.095-.013-.071-.01-.143-.018a8 8 0 0 0-.355-.028q-.027-.001-.056-.004l-.144-.004-.19-.002zm.033 30.175 8.656 26.6h-17.31Zm-75.424 41.444h47.135l-10.88 33.441zm61.94 0h26.97l14.297 43.945-27.783 25.626-27.782-25.626zm41.774 0h47.135l-36.254 33.441zm-60.995 59.076 22.042 20.331-40.943 37.766zm65.41 0 18.902 58.097-40.943-37.766z" style="color:#000;font-style:normal;font-variant:normal;font-weight:400;font-stretch:normal;font-size:medium;line-height:normal;font-family:sans-serif;font-variant-ligatures:normal;font-variant-position:normal;font-variant-caps:normal;font-variant-numeric:normal;font-variant-alternates:normal;font-variant-east-asian:normal;font-feature-settings:normal;font-variation-settings:normal;text-indent:0;text-align:start;text-decoration:none;text-decoration-line:none;text-decoration-style:solid;text-decoration-color:#000;letter-spacing:normal;word-spacing:normal;text-transform:none;writing-mode:lr-tb;direction:ltr;text-orientation:mixed;dominant-baseline:auto;baseline-shift:baseline;text-anchor:start;white-space:normal;shape-padding:0;shape-margin:0;inline-size:0;clip-rule:nonzero;display:inline;overflow:visible;visibility:visible;isolation:auto;mix-blend-mode:normal;color-interpolation:sRGB;color-interpolation-filters:linearRGB;solid-color:#000;solid-opacity:1;vector-effect:none;fill:#fff;fill-opacity:1;fill-rule:nonzero;stroke:none;stroke-width:33.1057;stroke-linecap:butt;stroke-linejoin:round;stroke-miterlimit:4;stroke-dasharray:none;stroke-dashoffset:0;stroke-opacity:1;paint-order:stroke fill markers;color-rendering:auto;image-rendering:auto;shape-rendering:auto;text-rendering:auto;stop-color:#000" transform="matrix(.90492 0 0 .90747 23.072 38.656)"/></g></svg>