<svg xmlns="http://www.w3.org/2000/svg" width="512" height="512" viewBox="0 0 512 512"><g style="stroke-width:1.54493;stroke-miterlimit:4;stroke-dasharray:none"><path d="M256 71.021c-30.14 0-58.58 7.191-83.709 19.942L256 161.35l83.709-70.387C314.58 78.213 286.14 71.02 256 71.02m145.824 71.047L362.87 251.213l70.104 58.945c5.228-17.127 8.048-35.31 8.048-54.158 0-42.994-14.634-82.537-39.197-113.932m-291.648.002C85.614 173.464 70.98 213.007 70.98 256c0 18.849 2.821 37.031 8.05 54.158l70.099-58.945zm16.197 245.97c24.118 23.668 54.699 40.774 88.879 48.439l-17.287-48.44zm187.662 0-17.287 48.439c34.18-7.665 64.76-24.771 88.879-48.44z" style="color:#000;font-style:normal;font-variant:normal;font-weight:400;font-stretch:normal;font-size:medium;line-height:normal;font-family:sans-serif;font-variant-ligatures:normal;font-variant-position:normal;font-variant-caps:normal;font-variant-numeric:normal;font-variant-alternates:normal;font-variant-east-asian:normal;font-feature-settings:normal;font-variation-settings:normal;text-indent:0;text-align:start;text-decoration:none;text-decoration-line:none;text-decoration-style:solid;text-decoration-color:#000;letter-spacing:normal;word-spacing:normal;text-transform:none;writing-mode:lr-tb;direction:ltr;text-orientation:mixed;dominant-baseline:auto;baseline-shift:baseline;text-anchor:start;white-space:normal;shape-padding:0;shape-margin:0;inline-size:0;clip-rule:nonzero;display:inline;overflow:visible;visibility:visible;isolation:auto;mix-blend-mode:normal;color-interpolation:sRGB;color-interpolation-filters:linearRGB;solid-color:#000;solid-opacity:1;vector-effect:none;fill:#fff;fill-opacity:1;fill-rule:evenodd;stroke:none;stroke-width:15.0001;stroke-linecap:round;stroke-linejoin:round;stroke-miterlimit:4;stroke-dasharray:none;stroke-dashoffset:0;stroke-opacity:1;paint-order:normal;color-rendering:auto;image-rendering:auto;shape-rendering:auto;text-rendering:auto;stop-color:#000"/><path d="M257.328 483.906a17 17 0 0 1-.596-.013l-.126-.007-.148-.007-.05-.004a19 19 0 0 1-.917-.082l-.218-.028a17 17 0 0 1-.774-.122l-.06-.01a16 16 0 0 1-.563-.116l-.026-.005a16 16 0 0 1-.93-.239l-.007-.002a17 17 0 0 1-.88-.281l-.04-.014a15 15 0 0 1-.51-.193l-.076-.028-.057-.023-.213-.088-.044-.02a17 17 0 0 1-.864-.397l-.06-.03-.195-.1-.043-.023a16 16 0 0 1-.519-.283l-.042-.025a16 16 0 0 1-1.077-.68l-.006-.004a16 16 0 0 1-.519-.374 16 16 0 0 1-.487-.383l-.049-.039-.173-.144-.037-.032-.203-.176-.037-.034a15 15 0 0 1-.451-.419l-.05-.046a15 15 0 0 1-.378-.383l-.034-.036a16 16 0 0 1-.356-.388l-.046-.051-.215-.25-.016-.02a15 15 0 0 1-.364-.45l-.004-.004-.03-.037a15 15 0 0 1-.668-.942l-.035-.054-.024-.035a15 15 0 0 1-.33-.538 15 15 0 0 1-.285-.506l-.022-.042q-.137-.256-.263-.517v-.002a15 15 0 0 1-.378-.85l-.006-.01-.017-.043a15 15 0 0 1-.197-.523l-.007-.018-.013-.036-.006-.014-37.66-105.228H46.837c-14.474-.005-21.19-17.32-10.27-26.48l122.206-102.471-65.49-182.984C88.061 41.922 106.26 30.08 118.35 40.21l139.051 116.595L396.455 40.211c12.09-10.13 30.29 1.711 25.069 16.312l-65.491 182.984L478.24 341.978c10.918 9.16 4.202 26.475-10.271 26.48h-158.09L272.216 473.69l-.002.007a15 15 0 0 1-.432 1.076l-.046.105-.009.021a15 15 0 0 1-.25.522l-.023.044a15 15 0 0 1-.783 1.357l-.035.054-.174.256a15 15 0 0 1-.305.433l-.029.039a15 15 0 0 1-1.393 1.62l-.027.029-.028.028a15 15 0 0 1-.443.426l-.015.014a15 15 0 0 1-.722.625l-.21.17-.023.017a15 15 0 0 1-.487.365l-.04.029-.18.128-.046.032a16 16 0 0 1-.549.362l-.022.014a16 16 0 0 1-1.092.625l-.062.032a16 16 0 0 1-.488.242l-.046.022a16 16 0 0 1-.541.242l-.022.009-.11.044a16 16 0 0 1-.808.312l-.057.02-.226.076-.03.01a16 16 0 0 1-.786.236l-.133.037-.031.007a16 16 0 0 1-1.205.27l-.116.019a17 17 0 0 1-.506.08l-.159.021-.21.027-.322.036-.271.023q-.162.013-.324.023-.098.007-.197.01l-.126.008a17 17 0 0 1-.746.013zm.074-61.357 19.362-54.091h-38.722ZM88.689 338.275h105.435l-24.34-68zm138.55 0h60.327l31.982-89.36-62.146-52.107-62.144 52.108zm93.443 0h105.435l-81.096-68ZM184.246 218.149l49.305-41.342-91.585-76.794Zm146.314 0 42.28-118.136-91.585 76.794z" style="color:#000;font-style:normal;font-variant:normal;font-weight:400;font-stretch:normal;font-size:medium;line-height:normal;font-family:sans-serif;font-variant-ligatures:normal;font-variant-position:normal;font-variant-caps:normal;font-variant-numeric:normal;font-variant-alternates:normal;font-variant-east-asian:normal;font-feature-settings:normal;font-variation-settings:normal;text-indent:0;text-align:start;text-decoration:none;text-decoration-line:none;text-decoration-style:solid;text-decoration-color:#000;letter-spacing:normal;word-spacing:normal;text-transform:none;writing-mode:lr-tb;direction:ltr;text-orientation:mixed;dominant-baseline:auto;baseline-shift:baseline;text-anchor:start;white-space:normal;shape-padding:0;shape-margin:0;inline-size:0;clip-rule:nonzero;display:inline;overflow:visible;visibility:visible;isolation:auto;mix-blend-mode:normal;color-interpolation:sRGB;color-interpolation-filters:linearRGB;solid-color:#000;solid-opacity:1;vector-effect:none;fill:#fff;fill-opacity:1;fill-rule:nonzero;stroke:none;stroke-width:33.1056;stroke-linecap:butt;stroke-linejoin:round;stroke-miterlimit:4;stroke-dasharray:none;stroke-dashoffset:0;stroke-opacity:1;paint-order:stroke fill markers;color-rendering:auto;image-rendering:auto;shape-rendering:auto;text-rendering:auto;stop-color:#000" transform="matrix(.90492 0 0 .90747 23.072 38.656)"/></g></svg>