<svg xmlns="http://www.w3.org/2000/svg" width="512" height="512" viewBox="0 0 512 512"><path d="M256 71.01c-7.383 0-14.66.446-21.816 1.285 15.256 26.301 28.622 53.295 40.773 80.865l23.412-28.972a15 15 0 0 1 4.026-3.481l44.11-26.113C319.758 79.58 288.893 71.01 256 71.01m-63.816 11.3c-35.642 13.08-66.13 36.785-87.606 67.311a99 99 0 0 1 2.547 3.094 81.4 81.4 0 0 1 30.93-2.361 15.958 14.102 6.584 0 1 14.236 15.837l-.764 6.616a15.958 14.102 6.584 0 1-8.275 10.78c18.39 22.89 36.431 45.896 52.52 67.563l26.132-32.338c-12.596-44.54-22.96-89.467-29.72-136.501m181.62 30.985-39.827 23.576 1.765 3.297 41.082-24.32q-1.496-1.292-3.02-2.553m-142.79 16.857c4.117 20.151 8.873 40.063 14.123 59.91l8.43-10.431c-7.103-16.776-14.561-33.281-22.553-49.479m167.447 7.75-60.91 36.059a15 15 0 0 1-4.434 1.744 15 15 0 0 1-1.351 1.904l-31.487 37.752c13.339 35.178 25.622 71.09 38.178 107.506a332 332 0 0 0 29.918-18.217 15.002 15.002 0 0 1 22.637 7.461l9.037 26.022a15 15 0 0 1-9.25 19.092l-49.83 17.302c2.563 13.547 6.4 26.675 11.379 39.47C405.54 381.523 441.01 322.946 441.01 256c0-44.92-15.973-86.07-42.55-118.098m-288.293 53.649-.053.965q4.238 4.234 8.473 8.433c-2.47-3.08-4.89-6.153-7.371-9.226zm-16.533 26.443a15.958 14.102 6.584 0 1-14.295 5.137l-5.326-.613A186.4 186.4 0 0 0 70.99 256c0 38.896 11.98 74.962 32.446 104.73l63-73.273c-22.937-20.794-47.792-44.62-72.801-69.463m184.469 23.957-13.239 15.873c10.1 32.114 21.187 64.562 32.805 98.065a15 15 0 0 1 .531 1.955 15 15 0 0 1 11.477 2.783 15 15 0 0 1 7.18-9.24 15 15 0 0 1-1.116-2.469c-12.67-36.57-24.809-72.27-37.638-106.967m-35.948 43.1-12.353 14.812a469 469 0 0 1 5.822 9.283 15.958 14.102 6.584 0 1-24.475 16.791c-.604-.484-1.234-1.002-1.845-1.496l-65.586 78.64c31.126 23.781 70.033 37.91 112.281 37.91 19.082 0 37.483-2.883 54.795-8.233-4.005-14.692-9.407-28.707-16.711-41.95l-50.322 17.475a15 15 0 0 1-19.092-9.25l-9.035-26.021a15.002 15.002 0 0 1 13.95-19.918c11.643-.17 23.064-1.397 34.302-3.426-7.51-21.775-14.789-43.246-21.73-64.617" style="color:#000;font-style:normal;font-variant:normal;font-weight:400;font-stretch:normal;font-size:medium;line-height:normal;font-family:sans-serif;font-variant-ligatures:normal;font-variant-position:normal;font-variant-caps:normal;font-variant-numeric:normal;font-variant-alternates:normal;font-variant-east-asian:normal;font-feature-settings:normal;font-variation-settings:normal;text-indent:0;text-align:start;text-decoration:none;text-decoration-line:none;text-decoration-style:solid;text-decoration-color:#000;letter-spacing:normal;word-spacing:normal;text-transform:none;writing-mode:lr-tb;direction:ltr;text-orientation:mixed;dominant-baseline:auto;baseline-shift:baseline;text-anchor:start;white-space:normal;shape-padding:0;shape-margin:0;inline-size:0;clip-rule:nonzero;display:inline;overflow:visible;visibility:visible;isolation:auto;mix-blend-mode:normal;color-interpolation:sRGB;color-interpolation-filters:linearRGB;solid-color:#000;solid-opacity:1;vector-effect:none;fill:#fff;fill-opacity:1;fill-rule:evenodd;stroke:none;stroke-width:15.0001;stroke-linecap:round;stroke-linejoin:round;stroke-miterlimit:4;stroke-dasharray:none;stroke-dashoffset:0;stroke-opacity:1;paint-order:normal;color-rendering:auto;image-rendering:auto;shape-rendering:auto;text-rendering:auto;stop-color:#000"/><path d="M457.217 49.334c-2.058.047-4.493.527-7.367 1.512l-139.815 82.77-28.367 35.103c4.278 10.136 8.41 20.35 12.436 30.627l26.142-31.344-1.639-28.057 11.301 21.108 132.055-78.174c6.968-8.352 7.431-14.488 5.678-21.662l-13.946 2.844 13.17-7.319c-1.293-4.357-3.881-7.214-8.789-7.402q-.418-.016-.86-.006M260.115 195.391l-10.117 12.52a1531 1531 0 0 0 9.582 32.831l12.467-14.949a1447 1447 0 0 0-11.932-30.402m-33.125 40.992-22.047 27.283c5.767 7.968 11.206 15.699 16.235 23.121l15.558-18.654c-3.347-10.588-6.613-21.167-9.746-31.75m-49.39 61.096L50.21 445.645c5.28 12.469 9.589 14.746 23.026 18.525L197.73 314.898a1034 1034 0 0 1-20.13-17.42" style="color:#000;font-style:normal;font-variant:normal;font-weight:400;font-stretch:normal;font-size:medium;line-height:normal;font-family:sans-serif;font-variant-ligatures:normal;font-variant-position:normal;font-variant-caps:normal;font-variant-numeric:normal;font-variant-alternates:normal;font-variant-east-asian:normal;font-feature-settings:normal;font-variation-settings:normal;text-indent:0;text-align:start;text-decoration:none;text-decoration-line:none;text-decoration-style:solid;text-decoration-color:#000;letter-spacing:normal;word-spacing:normal;text-transform:none;writing-mode:lr-tb;direction:ltr;text-orientation:mixed;dominant-baseline:auto;baseline-shift:baseline;text-anchor:start;white-space:normal;shape-padding:0;shape-margin:0;inline-size:0;clip-rule:nonzero;display:inline;overflow:visible;visibility:visible;isolation:auto;mix-blend-mode:normal;color-interpolation:sRGB;color-interpolation-filters:linearRGB;solid-color:#000;solid-opacity:1;vector-effect:none;fill:#fff;fill-opacity:1;fill-rule:nonzero;stroke:none;stroke-width:30;stroke-linecap:round;stroke-linejoin:round;stroke-miterlimit:4;stroke-dasharray:none;stroke-dashoffset:0;stroke-opacity:1;paint-order:stroke fill markers;color-rendering:auto;image-rendering:auto;shape-rendering:auto;text-rendering:auto;stop-color:#000"/><path d="M203.315 50.712c11.74 108.676 43.648 204.736 80.182 310.09-17.358 4.458-35.276 7.021-53.693 7.29l9.036 26.02 61.85-21.477c18.889 29.208 27.964 61.826 32.324 96.08l25.192-8.748c-17.528-29.681-29.545-61.277-34.033-95.486l61.705-21.427-9.036-26.022c-14.994 10.253-30.657 19.379-46.926 26.976-36.3-104.77-68.354-204.058-126.6-293.295ZM67.5 126.468c-3.916-.348-8.554.889-12.536 3.664-6.706 4.676-9.024 11.94-5.17 16.227 2.874 3.197 8.37 3.845 13.756 2.026 5.248 11.383 14.528 22.366 25.495 30.334-8.505 7.683-14.23 17.898-15.574 29.541l7.485.864c1.18-10.229 6.203-19.18 13.678-25.87l-.746 14.048c46.138 46.31 92.847 90.308 127.76 118.276-22.359-36.76-61.716-87.692-101.4-136.664l-15.522-2.553c8.958-4.59 19.701-6.68 30.95-5.384l.763-6.615c-12.898-1.487-25.25.933-35.56 6.218-6.289-11.264-16.315-21.781-27.726-28.91 3.243-4.198 3.802-9.039.93-12.234-1.565-1.741-3.903-2.728-6.583-2.967z" style="color:#000;font-style:normal;font-variant:normal;font-weight:400;font-stretch:normal;font-size:medium;line-height:normal;font-family:sans-serif;font-variant-ligatures:normal;font-variant-position:normal;font-variant-caps:normal;font-variant-numeric:normal;font-variant-alternates:normal;font-variant-east-asian:normal;font-feature-settings:normal;font-variation-settings:normal;text-indent:0;text-align:start;text-decoration:none;text-decoration-line:none;text-decoration-style:solid;text-decoration-color:#000;letter-spacing:normal;word-spacing:normal;text-transform:none;writing-mode:lr-tb;direction:ltr;text-orientation:mixed;dominant-baseline:auto;baseline-shift:baseline;text-anchor:start;white-space:normal;shape-padding:0;shape-margin:0;inline-size:0;clip-rule:nonzero;display:inline;overflow:visible;visibility:visible;isolation:auto;mix-blend-mode:normal;color-interpolation:sRGB;color-interpolation-filters:linearRGB;solid-color:#000;solid-opacity:1;vector-effect:none;fill:#fff;fill-opacity:1;fill-rule:nonzero;stroke:none;stroke-width:30;stroke-linecap:round;stroke-linejoin:round;stroke-miterlimit:4;stroke-dasharray:none;stroke-dashoffset:0;stroke-opacity:1;paint-order:stroke fill markers;color-rendering:auto;image-rendering:auto;shape-rendering:auto;text-rendering:auto;stop-color:#000"/></svg>