<svg xmlns="http://www.w3.org/2000/svg" width="512" height="512" style="height:512px;width:512px" viewBox="0 0 512 512"><path d="M340 417c-17.2 0-31 13.8-31 31s13.8 31 31 31 31-13.8 31-31-13.8-31-31-31M340 257c-17.2 0-31 13.8-31 31s13.8 31 31 31 31-13.8 31-31-13.8-31-31-31M340 33c-17.2 0-31 13.77-31 31s13.8 31 31 31 31-13.77 31-31-13.8-31-31-31M153.1 25v.1c-25 3.2-47.1 32-47.1 68.8 0 20.4 7.1 38.4 17.5 50.9l10.2 12.2-15.7 2.9c-13.7 2.6-23.8 9.9-32.2 21.5-8.5 11.5-14.9 27.5-19.4 45.8-8.2 33.6-9.9 74.7-10.1 110.5h44l11.9 158.4h96.3L219 337.7h41.9c0-36.2-.3-77.8-7.8-111.7-4-18.5-10.2-34.4-18.7-45.9-8.6-11.4-19.2-18.7-34.5-21l-16-2.5L194 144c10-12.5 16.7-30.2 16.7-50.1 0-39.2-24.8-68.8-52.4-68.8-2.9 0-4.7-.1-5.2-.1" style="fill:#fff;fill-opacity:1"/><path d="m225.627 63.225 114.88-1.24M271.083 287.2l66.531-.414M225.214 447.2l112.4-.414" style="fill:none;stroke:#fff;stroke-width:10;stroke-linecap:butt;stroke-linejoin:miter;stroke-miterlimit:4;stroke-dasharray:none;stroke-opacity:1"/><text xml:space="preserve" x="102.868" y="325.28" style="font-weight:700;font-size:188.976px;line-height:1.25;font-family:Akrobat;-inkscape-font-specification:&quot;Akrobat Bold&quot;"><tspan x="102.868" y="325.28" style="font-style:normal;font-variant:normal;font-weight:400;font-stretch:normal;font-size:188.976px;font-family:&quot;Berlin Sans FB Demi&quot;;-inkscape-font-specification:&quot;Berlin Sans FB Demi&quot;">F</tspan></text></svg>