<svg xmlns="http://www.w3.org/2000/svg" xmlns:xlink="http://www.w3.org/1999/xlink" width="512" height="512" viewBox="0 0 512 512"><title>Battle: Skill</title><defs><linearGradient id="b"><stop offset="0" style="stop-color:#c86400;stop-opacity:1"/><stop offset=".268" style="stop-color:#c86400;stop-opacity:1"/><stop offset=".367" style="stop-color:#fedbb4;stop-opacity:1"/><stop offset="1" style="stop-color:#fedbb4;stop-opacity:1"/></linearGradient><linearGradient id="a"><stop offset="0" style="stop-color:#fedbb4;stop-opacity:1"/><stop offset="1" style="stop-color:#c86400;stop-opacity:1"/></linearGradient><linearGradient xlink:href="#b" id="d" x1="256" x2="459.029" y1="474.822" y2="232.627" gradientUnits="userSpaceOnUse"/><radialGradient xlink:href="#a" id="c" cx="256" cy="256.102" r="188.619" fx="256" fy="256.102" gradientTransform="matrix(1 0 0 1.01567 0 -4.115)" gradientUnits="userSpaceOnUse"/></defs><path d="M256 71.01C153.732 71.01 70.99 153.745 70.99 256S153.732 440.99 256 440.99c.203 0 .404-.009.607-.01 11.567-9.916 21.41-20.642 29.03-32.908l-24.992-20.763a15 15 0 0 1-1.975-21.098l12.053-14.576a15.002 15.002 0 0 1 24.285 1.617 139 139 0 0 0 10.092 14.094 2834 2834 0 0 1 15.818-18.825l-45.793-52.082c-.21-.056-.405-.1-.615-.158-15.582-3.93-23.548-16.248-29.121-28.597-5.578-12.36-9.093-25.973-3.967-40.086q.016-.045.033-.088c.247-.668.658-1.303 1.002-1.955l.006-.018q.179-.37.377-.73c.219-.37.407-.734.656-1.09a15 15 0 0 1 2.414-2.813l.008-.008.033-.033q.267-.237.547-.467c3.891-3.237 7.103-4.347 9.815-4.574q.509-.041.996-.045c2.273-.022 4.18.51 5.841.75 3.798.549 7.055 1.558 10.155 2.727s5.792 2.353 8.726 4.273c1.467.96 3.029 1.583 5.56 5.252 1.267 1.835 3.272 5.12 2.75 10.457-.351 3.606-2.423 6.91-4.622 9.252 14.767 2.073 33.275 5.558 51.074 10.871 17.077 5.099 33.477 10.506 45.176 21.672 17.856-18.057 36.627-35.374 57.111-51.818C426.121 139.678 349.167 71.01 256 71.01m1.986 160.25q-.106.013-.209.031c.07-.01.137-.023.21-.031m-1.279.314c-.061.026-.126.05-.184.078.058-.029.123-.052.184-.078m13.197 2.483c.317.137.618.276.918.416-.3-.14-.6-.28-.918-.416m5.403 3.358c.017.03.038.062.05.093-.012-.03-.033-.062-.05-.094m165.49 9.765v.002zm-156.51 2.681c-.563.472-1.135.974-1.644 1.268a8.6 8.6 0 0 0 1.671-1.242zm-1.607 13.293c.53.074 1.1.163 1.64.24-.542-.077-1.11-.166-1.64-.24m6.056.897c.751.117 1.534.252 2.301.377-.768-.125-1.549-.26-2.3-.377m6.301 1.047c.946.164 1.914.342 2.877.517-.966-.175-1.929-.352-2.877-.517m6.762 1.242c.96.185 1.932.38 2.904.576q-1.461-.296-2.904-.576m21.215 4.773c1.17.304 2.341.6 3.506.918-1.165-.318-2.336-.614-3.506-.918m11.838 3.34q.874.269 1.742.545-.868-.275-1.742-.545m3.314 1.057c.627.205 1.256.41 1.877.619-.62-.21-1.25-.414-1.877-.62m3.662 1.238c.466.162.937.32 1.399.484-.462-.164-.933-.322-1.399-.484m4.582 1.658c.5.19.987.387 1.48.58-.493-.193-.98-.39-1.48-.58m3.162 1.242c.462.188.912.38 1.367.57-.455-.19-.905-.382-1.367-.57m3.08 1.293c.449.195.886.395 1.327.592-.441-.197-.878-.397-1.327-.592m2.93 1.319c.484.225.958.456 1.432.685-.474-.23-.948-.46-1.432-.685m10.399 5.691c.421.276.846.55 1.251.83-.405-.28-.83-.554-1.252-.83m-54.752.414c.616.121 1.235.25 1.853.377-.618-.127-1.237-.256-1.853-.377m4.128.854c.583.127 1.17.27 1.756.406-.585-.135-1.173-.278-1.756-.406m52.875.281c.386.28.778.556 1.147.84-.369-.284-.761-.56-1.147-.84m-46.845 1.186c.65.171 1.297.333 1.953.517-.656-.184-1.303-.346-1.953-.517m48.986.459c.324.264.662.525.97.793-.308-.268-.646-.529-.97-.793m-44.742.742c.622.188 1.242.37 1.869.572-.628-.201-1.247-.384-1.87-.572m108.834 12.978c-4.872 7.217-9.9 14.32-15.031 21.354a97 97 0 0 1 5.79 4.623 183.4 183.4 0 0 0 9.24-25.977m-90.822 11.676c-1.18-.057-.577 1.533 1.244 4.236q1.163-1.31 2.328-2.617c-1.764-1.072-2.932-1.588-3.572-1.619m75.871 29.74.101.127zm3.986 6.096c.185.342.374.675.555 1.027-.181-.351-.37-.686-.555-1.027m1.33 2.607q.155.322.309.649c-.102-.22-.206-.433-.309-.649m-34.975 9.727c-1.093 1.363-2.198 2.723-3.296 4.084 3.254 3.602 6.145 6.836 8.37 9.396.234-.265.472-.528.704-.795-1.534-3.95-3.428-8.147-5.778-12.685m-63.302.346c-1.313 1.562-2.628 3.12-3.944 4.691 1.316-1.572 2.63-3.129 3.944-4.691m36.933 31.877c-2.973 3.584-5.93 7.163-8.92 10.76q2.053 1.139 4.137 2.238a185 185 0 0 0 9.942-7.131zm-4.734 13.023a228 228 0 0 0 3.814 1.967h.047c-1.291-.65-2.587-1.295-3.861-1.967m-71.371 21.314q-.233.278-.467.555.234-.277.467-.555m11.348 2.358a166 166 0 0 0-2.61 2.996h.002a166 166 0 0 1 2.608-2.996m-14.74 1.58-.471.527zm1.863 14.789" style="fill:url(#c);fill-opacity:1;fill-rule:evenodd;stroke-width:15;stroke-linecap:round;stroke-linejoin:round;paint-order:stroke fill markers;stop-color:#000"/><path d="M256 232a1.8 1.8 0 0 0-.478.718c-5.54 15.253 7.419 45.191 22.676 49.025 1.739.482 3.45.917 5.142 1.32l135.654 154.285c.184 1.73.396 3.483.652 5.269 1.85 15.622 29.883 32.307 45.72 28.765 5.161-1.153-.87-22.77-2.862-20.159-5.186 6.8-23.907 2.184-23.843-5.058.262-29.598-3.977-86.5-21.82-102.742-7.567-6.89-17.144-12.234-26.313-17.825-4.372-9.81-8.447-19.992-14.311-28.38-13.824-19.773-69.715-31.26-99.104-34.788-7.19-.864-9.373-20.022-1.966-24.295 2.667-1.538-15.33-9.322-19.078-6.194zm37.092 53.106c23.542 4.404 44.623 5.44 77.131 31.248 9.993 9.338 18.354 19.927 26.875 30.565 21.435 35.544 19.764 56.584 21.118 80.496z" style="color:#000;font-style:normal;font-variant:normal;font-weight:400;font-stretch:normal;font-size:medium;line-height:normal;font-family:sans-serif;font-variant-ligatures:normal;font-variant-position:normal;font-variant-caps:normal;font-variant-numeric:normal;font-variant-alternates:normal;font-variant-east-asian:normal;font-feature-settings:normal;font-variation-settings:normal;text-indent:0;text-align:start;text-decoration:none;text-decoration-line:none;text-decoration-style:solid;text-decoration-color:#000;letter-spacing:normal;word-spacing:normal;text-transform:none;writing-mode:lr-tb;direction:ltr;text-orientation:mixed;dominant-baseline:auto;baseline-shift:baseline;text-anchor:start;white-space:normal;shape-padding:0;shape-margin:0;inline-size:0;clip-rule:nonzero;display:inline;overflow:visible;visibility:visible;isolation:auto;mix-blend-mode:normal;color-interpolation:sRGB;color-interpolation-filters:linearRGB;solid-color:#000;solid-opacity:1;vector-effect:none;fill:#c86400;fill-opacity:1;fill-rule:nonzero;stroke:none;stroke-width:30;stroke-linecap:round;stroke-linejoin:round;stroke-miterlimit:4;stroke-dasharray:none;stroke-dashoffset:0;stroke-opacity:1;paint-order:stroke fill markers;color-rendering:auto;image-rendering:auto;shape-rendering:auto;text-rendering:auto;stop-color:#000"/><path d="M459.03 232.625c-24.64 18.858-46.784 38.979-67.74 60.262 4.668 7.561 7.946 15.22 11.038 22.338 1.492.89 3.028 1.813 4.563 2.74 19.725-26.998 37.55-54.911 52.138-85.338zm-85.53 86.902q.549.549 1.092 1.102-.543-.553-1.092-1.102m3.406 3.496q.446.468.887.938-.44-.47-.887-.938m-17.486 3.952c-1.7 1.902-3.391 3.827-5.084 5.746 6.318 7.43 14.412 16.413 22.043 24.832 1.673-2.08 3.322-4.165 4.978-6.248-6.929-8.603-13.632-16.66-20.947-23.565-.357-.28-.646-.497-.99-.765m21.176.048c.11.124.225.245.336.37q-.168-.186-.336-.37m3.285 3.747c.37.43.734.862 1.101 1.294q-.548-.65-1.101-1.294m-52.971 29.113c-8.376 9.91-16.77 20-25.281 30.283-8.78-8.618-16.647-18.24-23.346-28.973L270.23 375.77l34.565 28.716c-10.423 21.504-26.33 38.453-44.873 53.211L274 469.393c11.184-20.872 25.45-39.187 43.92-54.004l34.484 28.648 12.053-14.576c-11.34-5.165-22.255-11.125-32.49-17.984 7.225-8.726 14.402-17.348 21.508-25.93z" style="color:#000;font-style:normal;font-variant:normal;font-weight:400;font-stretch:normal;font-size:medium;line-height:normal;font-family:sans-serif;font-variant-ligatures:normal;font-variant-position:normal;font-variant-caps:normal;font-variant-numeric:normal;font-variant-alternates:normal;font-variant-east-asian:normal;font-feature-settings:normal;font-variation-settings:normal;text-indent:0;text-align:start;text-decoration:none;text-decoration-line:none;text-decoration-style:solid;text-decoration-color:#000;letter-spacing:normal;word-spacing:normal;text-transform:none;writing-mode:lr-tb;direction:ltr;text-orientation:mixed;dominant-baseline:auto;baseline-shift:baseline;text-anchor:start;white-space:normal;shape-padding:0;shape-margin:0;inline-size:0;clip-rule:nonzero;display:inline;overflow:visible;visibility:visible;isolation:auto;mix-blend-mode:normal;color-interpolation:sRGB;color-interpolation-filters:linearRGB;solid-color:#000;solid-opacity:1;vector-effect:none;fill:url(#d);fill-opacity:1;fill-rule:nonzero;stroke:none;stroke-width:30;stroke-linecap:round;stroke-linejoin:round;stroke-miterlimit:4;stroke-dasharray:none;stroke-dashoffset:0;stroke-opacity:1;paint-order:stroke fill markers;color-rendering:auto;image-rendering:auto;shape-rendering:auto;text-rendering:auto;stop-color:#000"/></svg>