<svg xmlns="http://www.w3.org/2000/svg" width="512" height="512" viewBox="0 0 512 512"><title>Battle: Skill</title><path d="M256 56.01C145.627 56.01 55.99 145.637 55.99 256c0 106.692 83.775 194 189.07 199.69a15 15 0 0 1 5.522-9.73 214 214 0 0 0 6.023-4.978c-.202.001-.403.008-.605.008-102.268 0-185.01-82.735-185.01-184.99S153.732 71.01 256 71.01c93.17 0 170.12 68.671 183.078 158.209a593 593 0 0 1 10.836-8.504 15 15 0 0 1 2.666-1.631C435.233 126.328 353.76 56.01 256 56.01m199.402 215.494c-6.595 11.397-13.587 22.469-20.9 33.303a183.6 183.6 0 0 1-9.244 26.04q.845.726 1.681 1.485c3.6 3.277 6.56 6.945 9.036 10.916a198.6 198.6 0 0 0 19.427-71.744m-35.888 74.777.101.127zm3.986 6.096c.185.341.374.676.555 1.027-.181-.352-.37-.685-.555-1.027m1.33 2.607q.155.322.309.649c-.102-.22-.206-.433-.309-.649m-18.603 9.067-.004.006c2.683 5.845 4.706 11.283 6.246 16.43l.006-.008c-1.54-5.145-3.566-10.584-6.248-16.428m-10.596 13.377c-.229.262-.463.52-.693.781.56.645 1.276 1.445 1.742 1.994-.325-.908-.686-1.841-1.05-2.775M368.645 402.8a185 185 0 0 1-9.942 7.13 229 229 0 0 0 11.973 5.88 15 15 0 0 1 3.017 1.832 201 201 0 0 0 4.819-3.622zM318.2 435.125a150 150 0 0 0-13.65 14.906 198 198 0 0 0 22.9-7.22zm-32.349 14.873" style="color:#000;font-style:normal;font-variant:normal;font-weight:400;font-stretch:normal;font-size:medium;line-height:normal;font-family:sans-serif;font-variant-ligatures:normal;font-variant-position:normal;font-variant-caps:normal;font-variant-numeric:normal;font-variant-alternates:normal;font-variant-east-asian:normal;font-feature-settings:normal;font-variation-settings:normal;text-indent:0;text-align:start;text-decoration:none;text-decoration-line:none;text-decoration-style:solid;text-decoration-color:#000;letter-spacing:normal;word-spacing:normal;text-transform:none;writing-mode:lr-tb;direction:ltr;text-orientation:mixed;dominant-baseline:auto;baseline-shift:baseline;text-anchor:start;white-space:normal;shape-padding:0;shape-margin:0;inline-size:0;clip-rule:nonzero;display:inline;overflow:visible;visibility:visible;isolation:auto;mix-blend-mode:normal;color-interpolation:sRGB;color-interpolation-filters:linearRGB;solid-color:#000;solid-opacity:1;vector-effect:none;fill:#000;fill-opacity:1;fill-rule:evenodd;stroke:none;stroke-width:15.0001;stroke-linecap:round;stroke-linejoin:round;stroke-miterlimit:4;stroke-dasharray:none;stroke-dashoffset:0;stroke-opacity:1;paint-order:normal;color-rendering:auto;image-rendering:auto;shape-rendering:auto;text-rendering:auto;stop-color:#000"/><path d="M257.309 215.777a13 13 0 0 0-.997.045c-2.711.227-5.923 1.337-9.814 4.574-.185.154-.37.308-.547.467l-.033.033-.008.008a15 15 0 0 0-2.414 2.813c-.249.356-.437.72-.656 1.09q-.198.36-.377.73l-.006.018c-.344.652-.755 1.287-1.002 1.955l-.033.088c-5.126 14.113-1.61 27.727 3.967 40.086 5.573 12.35 13.539 24.666 29.12 28.597.211.058.407.102.616.158l45.781 52.067a2951 2951 0 0 0-15.806 18.84c-3.625-4.456-7.001-9.142-10.092-14.094a15 15 0 0 0-12.84-7.057 15 15 0 0 0-11.445 5.44L258.67 366.21a15 15 0 0 0 1.975 21.098l24.992 20.763c-8.913 14.347-20.858 26.589-35.055 37.889a15.002 15.002 0 0 0-.244 23.273l14.078 11.696a15.002 15.002 0 0 0 22.807-4.453c8.42-15.716 18.57-29.534 30.978-41.352l24.617 20.451a15 15 0 0 0 21.147-1.98l12.053-14.576a15.002 15.002 0 0 0-5.342-23.21 228 228 0 0 1-16.11-8.117c2.99-3.596 5.947-7.175 8.92-10.76l41.194 46.85c.03.218.047.421.078.64 1.907 15.953 13.102 25.427 24.635 32.534 11.543 7.114 24.592 12.341 39.246 9.064 5.815-1.3 10.17-6.19 11.76-9.597s1.817-5.921 1.95-8.145c.268-4.446-.314-8.01-1.06-11.511-.745-3.502-1.628-6.599-3.125-9.881-.748-1.642-1.167-3.239-4.176-6.23-1.504-1.497-4.085-4.027-9.576-4.575-3.833-.383-7.915 1.342-10.82 3.379-.164-14.918-1.25-33.74-4.246-52.092-3.457-21.177-7.474-41.444-22.407-55.037-2.452-2.233-4.963-4.235-7.49-6.102 19.94-27.337 38.113-55.85 53.106-87.117a15 15 0 0 0 1.42-7.767v-.002a15 15 0 0 0-14.868-13.717 15 15 0 0 0-9.193 3.088c-24.759 18.95-47.009 39.1-67.97 60.29-11.697-11.148-28.087-16.551-45.151-21.646-17.799-5.313-36.307-8.798-51.074-10.87 2.2-2.343 4.27-5.647 4.623-9.253.52-5.337-1.484-8.622-2.75-10.457-2.532-3.669-4.094-4.291-5.56-5.252-2.935-1.92-5.627-3.104-8.727-4.273s-6.357-2.178-10.155-2.727c-1.66-.24-3.568-.772-5.841-.75m1.427 15.432c6.2-.116 18.66 5.628 16.41 6.926-7.407 4.273-5.223 23.431 1.967 24.295 26.709 3.207 75.296 12.987 94.315 29.586q.783.683 1.496 1.382a29 29 0 0 1 2.154 2.334l.022.026c.395.482.772.968 1.117 1.46 5.864 8.389 9.938 18.57 14.31 28.38 9.17 5.591 18.747 10.935 26.315 17.824 17.842 16.241 22.082 73.146 21.82 102.744-.064 7.242 18.656 11.857 23.842 5.057 1.99-2.61 8.024 19.006 2.863 20.16-15.837 3.542-43.87-13.144-45.72-28.766a146 146 0 0 1-.653-5.27L283.34 283.065c-1.693-.404-3.404-.84-5.143-1.322-15.257-3.834-28.215-33.772-22.676-49.025a1.8 1.8 0 0 1 .547-.776c.586-.488 1.52-.71 2.668-.732m200.293 1.416v.002c-14.589 30.427-32.413 58.34-52.138 85.338-1.535-.927-3.071-1.85-4.563-2.74-3.092-7.118-6.37-14.777-11.039-22.338 20.957-21.283 43.101-41.404 67.74-60.262m-174.742 17.236.027.026a8.6 8.6 0 0 1-1.671 1.242c.51-.294 1.081-.796 1.644-1.268m101.057 34.705.142.17zm-92.252.54 125.125 142.308c-1.291-22.79.15-42.984-18.272-75.603l-.004-.008a197 197 0 0 0-2.843-4.885c-8.521-10.638-16.883-21.226-26.875-30.564-.235-.187-.464-.36-.698-.543a199 199 0 0 0-3.072-2.37l-.223-.166q-1.444-1.088-2.859-2.113-1.575-1.14-3.113-2.201h-.002q-1.44-.994-2.85-1.924l-.101-.068-.002.002c-25.488-16.763-43.94-18.074-64.211-21.866m93.705 1.224q.16.2.316.402-.156-.202-.316-.402m1.713 2.295a86.908 86.908 0 0 0 0 0m-44.867 27.916c.639.031 1.8.543 3.556 1.61-.774.869-1.541 1.752-2.314 2.624-1.82-2.701-2.423-4.291-1.242-4.234m8.558 4.99a196.314 196.314 0 0 0 0 0m-3.242 4.686c.4.502.851 1.05 1.283 1.58-.432-.53-.883-1.078-1.283-1.58m10.46.758c.345.268.634.486.991.765 7.315 6.905 14.018 14.962 20.947 23.565-1.656 2.083-3.305 4.167-4.978 6.248-7.63-8.419-15.725-17.403-22.043-24.832-.342-.402-.642-.766-.973-1.159.33.392.632.757.973 1.159 1.693-1.919 3.384-3.844 5.084-5.746m17.208 30.853c3.539 3.904 6.852 7.557 9.943 10.979 1.1-1.364 2.193-2.73 3.287-4.096 2.913 5.626 5.118 10.725 6.823 15.492-2.355-2.777-6.008-6.856-10.11-11.396-3.097-3.428-6.39-7.06-9.943-10.979m-45.717 2.057 22.565 25.662c-7.106 8.582-14.283 17.204-21.508 25.93 10.235 6.86 21.15 12.82 32.49 17.984l-12.053 14.576-34.484-28.648c-18.47 14.817-32.736 33.132-43.92 54.004l-14.078-11.696c18.542-14.758 34.45-31.707 44.873-53.21L270.23 375.77l12.053-14.577c6.699 10.732 14.566 20.355 23.346 28.973 8.51-10.284 16.905-20.371 25.281-30.281m121.113 80.742c.016.023.028.037.043.06-.539.486-1.135.977-1.488 1.44h-.002c.504-.66.991-1.13 1.447-1.5" style="color:#000;font-style:normal;font-variant:normal;font-weight:400;font-stretch:normal;font-size:medium;line-height:normal;font-family:sans-serif;font-variant-ligatures:normal;font-variant-position:normal;font-variant-caps:normal;font-variant-numeric:normal;font-variant-alternates:normal;font-variant-east-asian:normal;font-feature-settings:normal;font-variation-settings:normal;text-indent:0;text-align:start;text-decoration:none;text-decoration-line:none;text-decoration-style:solid;text-decoration-color:#000;letter-spacing:normal;word-spacing:normal;text-transform:none;writing-mode:lr-tb;direction:ltr;text-orientation:mixed;dominant-baseline:auto;baseline-shift:baseline;text-anchor:start;white-space:normal;shape-padding:0;shape-margin:0;inline-size:0;clip-rule:nonzero;display:inline;overflow:visible;visibility:visible;isolation:auto;mix-blend-mode:normal;color-interpolation:sRGB;color-interpolation-filters:linearRGB;solid-color:#000;solid-opacity:1;vector-effect:none;fill:#000;fill-opacity:1;fill-rule:nonzero;stroke:none;stroke-width:30;stroke-linecap:round;stroke-linejoin:round;stroke-miterlimit:4;stroke-dasharray:none;stroke-dashoffset:0;stroke-opacity:1;paint-order:stroke fill markers;color-rendering:auto;image-rendering:auto;shape-rendering:auto;text-rendering:auto;stop-color:#000"/></svg>