<svg xmlns="http://www.w3.org/2000/svg" xmlns:xlink="http://www.w3.org/1999/xlink" width="512" height="512" viewBox="0 0 512 512"><title>Battle: Skill</title><defs><linearGradient id="b"><stop offset="0" style="stop-color:#fedbb4;stop-opacity:1"/><stop offset=".665" style="stop-color:#fedbb4;stop-opacity:1"/><stop offset=".774" style="stop-color:#c86400;stop-opacity:1"/><stop offset="1" style="stop-color:#c86400;stop-opacity:1"/></linearGradient><linearGradient id="a"><stop offset="0" style="stop-color:#fedbb4;stop-opacity:1"/><stop offset="1" style="stop-color:#c86400;stop-opacity:1"/></linearGradient><linearGradient xlink:href="#b" id="d" x1="415.855" x2="104.098" y1="63.365" y2="439.347" gradientUnits="userSpaceOnUse"/><radialGradient xlink:href="#a" id="c" cx="256" cy="256.016" r="185.01" fx="256" fy="256.016" gradientTransform="matrix(1 0 0 .9999 0 .011)" gradientUnits="userSpaceOnUse"/></defs><path d="M87.857 45.629q-.591.01-1.2.062c-3.24.279-6.882 1.526-11.063 5-.205.17-.409.34-.606.518l-.03.03a15 15 0 0 0-2.42 2.818c-.972 1.349-1.797 2.77-2.345 4.248l-.033.088c-6.869 18.914-2.188 39.639 6.194 58.21 8.376 18.561 20.78 36.19 41.166 41.329 1.312.362 2.567.659 3.853.99l214.934 244.455c.164 1.323.298 2.61.49 3.963 2.494 20.867 18.387 35.419 35.719 46.1 17.346 10.689 37.301 17.985 56.94 13.593 6.219-1.391 10.87-6.574 12.665-10.418s2.134-6.944 2.309-9.844c.348-5.798-.444-11.077-1.54-16.222-1.095-5.145-2.466-9.812-4.445-14.15-.989-2.17-1.646-4.165-4.873-7.374-1.613-1.604-4.298-4.198-9.884-4.755-5.042-.504-10.607 2.512-13.315 5.293-.114.044-.362.135-.951.232-1.6.264-4.538.194-7.213-.414a19.4 19.4 0 0 1-4.58-1.688c.045-24.697-1.616-58.472-6.871-90.67-5.507-33.737-12.998-65.514-33.545-84.218-12.896-11.74-27.59-20.158-41.176-28.323-6.36-14.521-12.83-30.171-22.822-44.464-15.92-22.773-46.478-34.268-79.233-44.047-31.26-9.333-64.544-15.304-89.044-18.42a19.4 19.4 0 0 1-1.086-4.76c-.261-2.731.044-5.653.511-7.207.172-.572.296-.805.354-.912 2.91-2.137 6.408-6.593 6.883-11.457.53-5.426-1.513-8.812-2.856-10.758-2.686-3.892-4.56-4.777-6.459-6.02-3.797-2.485-7.822-4.31-12.38-6.029-4.559-1.718-9.4-3.185-14.565-3.931-2.26-.327-4.722-.898-7.483-.848m1.64 15.426c10.101-.189 30.407 9.17 26.741 11.285-12.07 6.963-8.514 38.18 3.201 39.586 47.887 5.75 138.957 24.466 161.48 56.685 9.557 13.668 16.197 30.258 23.321 46.243 14.94 9.11 30.544 17.817 42.875 29.042 29.072 26.464 35.98 119.183 35.553 167.41-.104 11.801 30.4 19.321 38.85 8.24 3.244-4.253 13.073 30.97 4.664 32.85-25.805 5.772-71.485-21.416-74.498-46.87a238 238 0 0 1-1.063-8.587L129.586 145.547a238 238 0 0 1-8.377-2.15c-24.86-6.247-45.976-55.03-36.95-79.883.17-.46.435-.855.78-1.168v-.002q.055-.05.111-.096c.954-.796 2.475-1.158 4.346-1.193m55.98 87.82 203.878 231.879c-2.206-38.961.515-73.244-34.412-131.16-13.884-17.334-27.507-34.586-43.789-49.803-52.97-42.051-87.319-43.741-125.677-50.916m40.086 22.875c22.101 5.449 44.91 15.018 75.779 39.432 14.749 13.865 27.648 30.018 41.174 46.908 20.152 33.617 26.716 57.419 29.285 79.984zM415.869 46.568a16.8 16.761 90 0 0-10.183 3.444c-46.867 35.869-88.224 74.478-127.252 115.42a40 40 0 0 1 2.486 3.18c2.485 3.553 4.77 7.31 6.92 11.197 39.364-41.475 80.89-80.378 128.015-116.446v.002c-27.335 57.01-61.628 108.61-99.603 158.746 4.83 2.93 9.608 5.908 14.228 9.012 38.073-50.349 72.703-102.548 100.48-160.48a16.8 16.761 90 0 0 1.59-8.745 16.8 16.761 90 0 0-2.349-7.218 16.8 16.761 90 0 0-14.332-8.112M256.553 188.87c-12.871 14.064-25.54 28.399-38.14 42.96l11.107 12.632c13.393-15.492 26.841-30.685 40.494-45.559a305 305 0 0 0-13.461-10.033m48.273 48.135c-12.663 16.334-25.686 32.558-38.955 48.8l11.223 12.764c13.047-15.937 25.902-31.885 38.44-47.974-.202-.336-.387-.663-.59-1-3.374-4.212-6.733-8.416-10.118-12.59m-92.83 2.271c-15.605 18.165-31.13 36.673-46.799 55.54-8.442-9.588-16.227-19.817-23.127-30.872a16.8 16.761 90 0 0-27.11-1.808l-19.64 23.75a16.8 16.761 90 0 0 2.21 23.654l45.825 38.07c-15.41 26.837-36.933 49.104-62.347 69.332a16.8 16.761 90 0 0-.272 26.09l22.94 19.057a16.8 16.761 90 0 0 25.459-4.986c15.156-28.285 33.711-53.149 56.914-74.026l45.377 37.697a16.8 16.761 90 0 0 23.6-2.212l19.638-23.754a16.8 16.761 90 0 0-5.97-26.012 371 371 0 0 1-34.725-18.092c12.388-14.914 24.695-29.717 36.863-44.512l-11.219-12.76c-16.658 20.293-33.65 40.651-50.793 61.354 16.677 11.177 34.464 20.887 52.942 29.303l-19.64 23.754-56.19-46.682c-30.096 24.144-53.34 53.984-71.563 87.992l-22.94-19.056c30.214-24.048 56.135-51.664 73.118-86.701l-56.324-46.79 19.64-23.751c10.915 17.486 23.735 33.163 38.041 47.205 19.29-23.309 38.214-46.027 57.201-68.149zM256 56.01c-53.582 0-102.274 21.125-138.2 55.488.53.202 1.072.36 1.64.428 5.329.64 11.257 1.468 17.501 2.43C169.107 87.304 210.627 71.01 256 71.01c40.409 0 77.762 12.925 108.174 34.86a1011 1011 0 0 1 11.562-10.016C342.344 70.838 300.89 56.01 256 56.01m135.78 53.232a811 811 0 0 1-7.678 13.229C419.183 156.126 441.01 203.487 441.01 256c0 53.332-22.516 101.346-58.563 135.09.205 7.074.266 13.667.221 19.62 44.662-36.617 73.217-92.17 73.332-154.335a8 8 0 0 0 .01-.338V256a8 8 0 0 0-.01-.38c-.109-57.821-24.829-109.914-64.22-146.378m-290.354 19.91C73.042 163.682 55.99 207.868 55.99 256c0 58.417 25.117 111.02 65.127 147.602 3.5-3.541 6.898-7.167 10.184-10.885C94.232 358.899 70.99 310.192 70.99 256c0-44.251 15.503-84.84 41.37-116.656-3.873-2.565-7.555-6.06-10.935-10.192m42.734 274.266a287 287 0 0 0-8.931 11.94c33.57 25.488 75.416 40.632 120.771 40.632 38.923 0 75.258-11.158 106-30.43-3.561-4-6.4-8.205-8.213-12.462C325.424 430.772 291.92 440.99 256 440.99c-42.048 0-80.787-13.994-111.84-37.572" style="color:#000;font-style:normal;font-variant:normal;font-weight:400;font-stretch:normal;font-size:medium;line-height:normal;font-family:sans-serif;font-variant-ligatures:normal;font-variant-position:normal;font-variant-caps:normal;font-variant-numeric:normal;font-variant-alternates:normal;font-variant-east-asian:normal;font-feature-settings:normal;font-variation-settings:normal;text-indent:0;text-align:start;text-decoration:none;text-decoration-line:none;text-decoration-style:solid;text-decoration-color:#000;letter-spacing:normal;word-spacing:normal;text-transform:none;writing-mode:lr-tb;direction:ltr;text-orientation:mixed;dominant-baseline:auto;baseline-shift:baseline;text-anchor:start;white-space:normal;shape-padding:0;shape-margin:0;inline-size:0;clip-rule:nonzero;display:inline;overflow:visible;visibility:visible;isolation:auto;mix-blend-mode:normal;color-interpolation:sRGB;color-interpolation-filters:linearRGB;solid-color:#000;solid-opacity:1;vector-effect:none;fill:#000100;fill-opacity:1;fill-rule:nonzero;stroke:none;stroke-width:30.0001;stroke-linecap:round;stroke-linejoin:round;stroke-miterlimit:4;stroke-dasharray:none;stroke-dashoffset:0;stroke-opacity:1;paint-order:stroke fill markers;color-rendering:auto;image-rendering:auto;shape-rendering:auto;text-rendering:auto;stop-color:#000"/><path d="M89.496 61.055c-.431.008-.839.038-1.23.082-.108.012-.208.032-.313.047a9 9 0 0 0-1.332.293l-.092.029a5 5 0 0 0-.683.29q-.059.032-.116.065a3.8 3.8 0 0 0-.69.483v.002c-.346.313-.61.708-.78 1.168a33 33 0 0 0-1.346 4.924c-.838 4.31-.98 9.102-.527 14.125v.002a76 76 0 0 0 1.435 9.232 91 91 0 0 0 2.59 9.398q.521 1.563 1.098 3.114a98 98 0 0 0 2.515 6.123l.002.002q.68 1.507 1.409 2.984l.002.002a90 90 0 0 0 4.775 8.51 79 79 0 0 0 2.822 4.113c.258.353.508.717.77 1.063.53.7 1.074 1.378 1.62 2.047l.003.002c.295.36.595.71.894 1.06l.041.047q.345.404.694.799l.031.035q.458.52.924 1.025l.004.006q.678.73 1.369 1.424c.3.301.605.59.908.881q.458.438.92.86c.277.252.553.507.832.75.317.275.639.533.96.796.192.16.383.327.577.48l.018.015c.294.233.592.454.888.677l.004.004a40 40 0 0 0 1.038.752c.276.194.551.392.83.576l.002.002c2.863 1.896 5.826 3.294 8.847 4.053 2.834.786 5.62 1.492 8.377 2.15l82.41 93.73 11.11 12.634 36.508 41.521 11.218 12.76 79.79 90.748c.3 2.82.645 5.675 1.062 8.586.298 2.519 1.03 5.053 2.103 7.572q.34.8.727 1.594c.203.417.423.833.645 1.248l.008.016q.166.31.34.62a45 45 0 0 0 2.712 4.266l.01.016.211.293a57 57 0 0 0 3.56 4.41q.107.12.214.238a68 68 0 0 0 2.886 3.04 75 75 0 0 0 2.276 2.142h.002a83 83 0 0 0 4.91 4.1h.002a92 92 0 0 0 5.316 3.81 97 97 0 0 0 14.46 7.924c1.994.88 4.004 1.68 6.011 2.395q1.506.537 3.008 1.007a70 70 0 0 0 8.898 2.178q1.456.252 2.887.426c3.811.46 7.463.49 10.836.021a32 32 0 0 0 2.476-.445 2.9 2.9 0 0 0 1.37-.726q.29-.27.535-.622v-.002c.325-.467.59-1.038.797-1.695v-.002q.154-.493.27-1.047v-.002q.113-.554.189-1.162.076-.61.115-1.267c.079-1.313.052-2.757-.06-4.276-.599-8.098-3.624-18.274-5.971-21.428v-.002c-.294-.394-.576-.677-.842-.833-.266-.157-.517-.187-.744-.07a1 1 0 0 0-.323.284q-.397.52-.855.985t-.975.879c-1.031.826-2.227 1.496-3.545 2.023-1.757.702-3.73 1.148-5.816 1.367-1.565.164-3.193.2-4.842.12a38.4 38.4 0 0 1-8.21-1.315 37 37 0 0 1-3.11-.996 34 34 0 0 1-1.477-.588h-.002q-.724-.308-1.414-.645c-.92-.447-1.79-.93-2.6-1.447-3.64-2.323-6.033-5.304-6.003-8.623.002-.188-.001-.406 0-.596.002-.227-.003-.489-.002-.718a510 510 0 0 0-.016-8.62v-.053c-.009-.848-.04-1.781-.053-2.648-.038-2.46-.073-4.918-.148-7.515v-.002q0-.033-.002-.065c-1.455-50.41-9.937-124.077-35.332-147.193-5.076-4.621-10.722-8.804-16.633-12.775l-.002.002a288 288 0 0 0-7.308-4.74 482 482 0 0 0-6.92-4.272c-4.003-2.427-8.03-4.83-12.012-7.258-5.271-11.828-10.281-23.983-16.4-35.045q-.775-1.401-1.575-2.777l-.064-.114a134 134 0 0 0-1.535-2.562q-.08-.135-.16-.27c-.45-.73-.911-1.447-1.374-2.164-.14-.216-.274-.438-.416-.654a106 106 0 0 0-1.796-2.656 37 37 0 0 0-1.182-1.594l-.006-.008a44 44 0 0 0-1.299-1.578c-23.073-26.788-93.496-43.684-141.492-51.076-3.11-.48-6.14-.926-9.059-1.332l-.02-.002-.015-.002a457 457 0 0 0-8.408-1.094 6 6 0 0 1-.861-.174q-.003 0-.006-.002c-1.128-.287-2.176-.843-3.13-1.642a11 11 0 0 1-.868-.819 14 14 0 0 1-1.575-1.998v-.002a20 20 0 0 1-1.343-2.42v-.002a26 26 0 0 1-1.102-2.761v-.002a32 32 0 0 1-.853-3.026v-.002q-.18-.782-.328-1.586a39.196 39.196 0 0 1-.61-8.28v-.001c.038-1.11.126-2.21.264-3.287.138-1.078.326-2.134.568-3.155.212-.892.472-1.75.766-2.58.042-.119.077-.243.12-.36v-.003q.263-.702.565-1.365a17 17 0 0 1 1.383-2.477 13 13 0 0 1 1.727-2.066 10.7 10.7 0 0 1 2.082-1.576 1 1 0 0 0 .29-.25c.02-.025.029-.051.044-.076a.6.6 0 0 0 .082-.213q.008-.06.006-.12a.9.9 0 0 0-.031-.226 1 1 0 0 0-.043-.127 2 2 0 0 0-.141-.266c-.026-.041-.048-.082-.078-.125a4 4 0 0 0-.299-.357c-.02-.021-.032-.041-.053-.063-.02-.02-.049-.043-.07-.064a9 9 0 0 0-.828-.719c-.054-.042-.103-.082-.16-.125a18 18 0 0 0-1.06-.724c-.437-.28-.924-.567-1.44-.858-.116-.065-.213-.128-.332-.193a46 46 0 0 0-2.114-1.086c-.193-.094-.406-.186-.605-.28a62 62 0 0 0-1.76-.794c-.277-.12-.564-.236-.848-.354a71 71 0 0 0-2.664-1.045 72 72 0 0 0-1.828-.644c-.293-.1-.584-.202-.879-.297a65 65 0 0 0-1.964-.598c-.271-.078-.543-.162-.813-.236a53 53 0 0 0-2.662-.662 41 41 0 0 0-2.063-.395c-.127-.02-.254-.045-.38-.064a30 30 0 0 0-1.916-.237q-.34-.03-.67-.048c-.126-.008-.254-.019-.377-.024a18 18 0 0 0-1.086-.015zm55.98 87.82c34.982 6.543 66.637 8.54 112.114 40.732a275 275 0 0 1 6.619 4.836 321 321 0 0 1 5.723 4.395l.082.064c.382.301.756.584 1.14.889 12.326 11.52 23.127 24.208 33.672 37.213 3.385 4.174 6.744 8.378 10.117 12.59.204.337.39.664.59 1 34.288 57.305 31.629 91.426 33.822 130.16z" style="color:#000;font-style:normal;font-variant:normal;font-weight:400;font-stretch:normal;font-size:medium;line-height:normal;font-family:sans-serif;font-variant-ligatures:normal;font-variant-position:normal;font-variant-caps:normal;font-variant-numeric:normal;font-variant-alternates:normal;font-variant-east-asian:normal;font-feature-settings:normal;font-variation-settings:normal;text-indent:0;text-align:start;text-decoration:none;text-decoration-line:none;text-decoration-style:solid;text-decoration-color:#000;letter-spacing:normal;word-spacing:normal;text-transform:none;writing-mode:lr-tb;direction:ltr;text-orientation:mixed;dominant-baseline:auto;baseline-shift:baseline;text-anchor:start;white-space:normal;shape-padding:0;shape-margin:0;inline-size:0;clip-rule:nonzero;display:inline;overflow:visible;visibility:visible;isolation:auto;mix-blend-mode:normal;color-interpolation:sRGB;color-interpolation-filters:linearRGB;solid-color:#000;solid-opacity:1;vector-effect:none;fill:#c86400;fill-opacity:1;fill-rule:nonzero;stroke:none;stroke-width:5;stroke-linecap:round;stroke-linejoin:round;stroke-miterlimit:4;stroke-dasharray:none;stroke-dashoffset:0;stroke-opacity:1;paint-order:stroke fill markers;color-rendering:auto;image-rendering:auto;shape-rendering:auto;text-rendering:auto;stop-color:#000"/><path d="M256 71.01c-1.527 0-3.049.022-4.566.058-.443.011-.883.031-1.325.045-1.044.033-2.088.068-3.129.117-.62.03-1.238.07-1.857.106q-1.296.073-2.588.164-.984.072-1.967.154a187 187 0 0 0-8.888.944q-1.237.163-2.47.343c-.644.094-1.29.186-1.933.286-.84.13-1.677.274-2.513.416-.61.103-1.22.199-1.826.308-.78.14-1.553.296-2.329.445q-2.172.42-4.326.891c-.553.12-1.109.236-1.66.361-.76.174-1.514.359-2.27.541-.655.159-1.312.314-1.964.479-.744.188-1.485.387-2.225.584q-.968.257-1.932.523a184 184 0 0 0-3.986 1.159q-1.236.373-2.465.763-.803.257-1.605.522c-.817.268-1.632.537-2.444.816-.476.164-.95.334-1.425.502-.894.316-1.789.632-2.676.961-.23.085-.457.176-.686.262a184 184 0 0 0-10.539 4.324 184 184 0 0 0-3.361 1.549l-.33.154a184 184 0 0 0-3.236 1.578l-.409.203a184 184 0 0 0-6.627 3.494q-.332.185-.664.372-1.494.834-2.972 1.695l-.254.15a185 185 0 0 0-9.022 5.647c19.045 3.364 40.155 7.985 60.451 14.045 30.025 8.964 58.193 19.376 74.944 38.588 19.465-19.986 39.568-39.398 60.685-58.182l-.361-.215q-1.265-.738-2.543-1.457-.4-.224-.803-.447c-.85-.474-1.705-.946-2.564-1.406-.154-.083-.31-.16-.463-.243a184 184 0 0 0-8.473-4.232c-.349-.163-.696-.33-1.047-.49a184 184 0 0 0-2.398-1.082q-.588-.26-1.18-.516-1.247-.544-2.504-1.07l-.039-.018c-.138-.058-.279-.112-.418-.17a184 184 0 0 0-5.191-2.054c-.4-.152-.8-.308-1.201-.457-.739-.275-1.482-.54-2.225-.805a184 184 0 0 0-5.459-1.848c-.747-.24-1.493-.482-2.244-.713a184 184 0 0 0-3.541-1.05l-.014-.004c-.531-.152-1.068-.293-1.601-.44-.783-.215-1.565-.431-2.352-.637q-.956-.247-1.916-.486a184 184 0 0 0-3.994-.953 184 184 0 0 0-2.4-.523c-.584-.124-1.165-.253-1.75-.372q-1.91-.385-3.832-.73c-.465-.084-.933-.16-1.399-.24q-1.41-.245-2.828-.469-.806-.125-1.613-.242-1.311-.193-2.627-.367-.82-.111-1.643-.215-1.76-.217-3.531-.4c-.203-.022-.404-.048-.607-.069q-2.142-.216-4.297-.38c-.402-.032-.805-.056-1.207-.085a187 187 0 0 0-4.621-.273 188 188 0 0 0-3.077-.115q-.625-.021-1.252-.038A189 189 0 0 0 256 71.01m140.086 64.1c-17.447 29.006-36.49 56.792-56.598 83.958 6.088 4.123 12.082 8.6 17.725 13.737 20.547 18.704 28.038 50.481 33.545 84.218 3.248 19.9 5.12 40.397 6.068 58.987a185.3 185.3 0 0 0 19.992-28.43q1.125-1.974 2.203-3.978.134-.253.266-.504a184 184 0 0 0 1.881-3.608q.145-.291.289-.584a184 184 0 0 0 1.723-3.523c.138-.29.271-.584.408-.875.503-1.073 1-2.149 1.482-3.233.186-.417.366-.838.55-1.257.424-.973.845-1.949 1.253-2.93q.302-.731.598-1.465.565-1.39 1.11-2.791.31-.805.612-1.613a184 184 0 0 0 1.6-4.42 184 184 0 0 0 5.234-17.97q.329-1.395.635-2.798c.134-.61.27-1.218.399-1.83.19-.908.367-1.82.544-2.734.124-.636.251-1.27.368-1.908.177-.97.341-1.947.504-2.922.094-.57.193-1.137.283-1.707.157-1 .298-2.005.44-3.01.081-.588.169-1.174.245-1.764.117-.896.219-1.797.323-2.697.083-.724.17-1.447.246-2.174.085-.822.154-1.649.228-2.474.068-.756.143-1.51.201-2.268.076-.971.133-1.947.194-2.922.038-.623.087-1.244.119-1.869.062-1.19.101-2.386.14-3.582.014-.422.038-.841.05-1.264q.063-2.445.064-4.906-.001-2.442-.065-4.87v-.038c-.008-.32-.027-.636-.037-.955-.04-1.275-.083-2.548-.148-3.817-.03-.576-.075-1.149-.11-1.724-.06-1.01-.118-2.02-.195-3.026-.06-.782-.139-1.56-.209-2.34-.07-.788-.134-1.579-.215-2.365-.074-.72-.164-1.436-.246-2.154-.102-.89-.198-1.78-.312-2.666-.072-.556-.156-1.108-.233-1.662-.14-1.013-.279-2.026-.435-3.033-.094-.605-.2-1.206-.3-1.809-.151-.92-.302-1.84-.468-2.756-.129-.712-.271-1.42-.408-2.129-.16-.828-.318-1.656-.488-2.48-.137-.657-.283-1.31-.426-1.965-.192-.878-.384-1.756-.588-2.629-.146-.622-.301-1.24-.453-1.86-.22-.895-.44-1.792-.672-2.683-.16-.615-.33-1.226-.496-1.838-.236-.865-.473-1.73-.72-2.59-.19-.654-.387-1.305-.583-1.957-.246-.82-.492-1.641-.75-2.457q-.31-.972-.629-1.94a184 184 0 0 0-.83-2.486c-.201-.585-.41-1.167-.617-1.75a184 184 0 0 0-.96-2.646q-.31-.833-.63-1.662-.481-1.262-.98-2.514a183.858 183.858 0 0 0-14.525-28.707q-.374-.604-.753-1.205a185 185 0 0 0-1.738-2.697q-.337-.515-.676-1.028a185 185 0 0 0-1.96-2.882l-.565-.815a185 185 0 0 0-2.094-2.92q-.276-.38-.555-.76a186 186 0 0 0-2.146-2.845c-.2-.26-.398-.524-.6-.783a186 186 0 0 0-2.142-2.698c-.242-.299-.48-.6-.723-.898a186 186 0 0 0-2.27-2.715c-.193-.228-.383-.459-.578-.685-.13-.152-.265-.3-.396-.452m-292.883 16.5-.047.066q-.957 1.404-1.888 2.826-.198.3-.395.6-.868 1.332-1.713 2.681-.217.345-.432.694-.859 1.382-1.695 2.78l-.305.514A185 185 0 0 0 95 164.746l-.086.152a184 184 0 0 0-5.293 10.051l-.06.123c-.447.918-.88 1.843-1.313 2.77q-.242.513-.48 1.03-.556 1.213-1.094 2.439-.327.739-.649 1.482a184 184 0 0 0-2.515 6.139q-.32.828-.631 1.66c-.283.75-.568 1.498-.842 2.252-.23.637-.451 1.28-.676 1.92a184 184 0 0 0-1.273 3.767c-.219.67-.441 1.338-.652 2.012-.235.747-.457 1.5-.682 2.252q-.275.91-.541 1.824-.313 1.094-.613 2.193-.267.969-.524 1.94a184 184 0 0 0-1.052 4.207 184 184 0 0 0-.481 2.066q-.265 1.184-.516 2.371c-.125.593-.253 1.184-.373 1.778-.187.932-.363 1.868-.537 2.805-.09.488-.188.974-.275 1.464q-.367 2.07-.688 4.155c-.084.548-.156 1.102-.236 1.652-.129.892-.259 1.785-.375 2.682-.075.577-.141 1.157-.21 1.736q-.169 1.384-.315 2.773-.085.81-.16 1.622a186 186 0 0 0-.381 4.517q-.1 1.388-.176 2.781-.05.832-.092 1.666c-.05 1.041-.085 2.086-.117 3.131-.014.444-.034.887-.045 1.332a189 189 0 0 0-.057 4.51q.001 2.479.067 4.941c.013.504.04 1.004.056 1.506.039 1.124.077 2.247.135 3.366.035.66.084 1.317.125 1.976.06.966.12 1.934.195 2.897.057.723.127 1.442.192 2.164.078.865.154 1.73.244 2.591.079.758.17 1.513.258 2.268.101.87.203 1.74.316 2.607.09.688.19 1.374.287 2.059.13.905.259 1.809.4 2.709.11.691.228 1.38.344 2.068q.224 1.326.465 2.645.195 1.053.403 2.101a184 184 0 0 0 .963 4.606 184 184 0 0 0 1.783 7.29q.251.952.513 1.897.373 1.337.766 2.666c.181.617.361 1.234.549 1.848.264.865.54 1.725.816 2.584.21.651.417 1.303.633 1.951.286.856.585 1.707.883 2.557.213.608.421 1.217.64 1.822.318.875.65 1.742.979 2.611.226.596.446 1.195.678 1.788.376.96.768 1.912 1.16 2.865.192.467.377.937.572 1.402a184 184 0 0 0 1.455 3.346c.138.31.267.623.407.931a184 184 0 0 0 4.09 8.479c.057.111.118.22.175.332a184 184 0 0 0 1.94 3.66c.252.462.513.918.77 1.377.496.893.994 1.785 1.505 2.668.269.465.546.925.818 1.387.514.87 1.031 1.74 1.559 2.601.29.472.586.94.879 1.409a185 185 0 0 0 1.564 2.47c.304.47.614.934.922 1.4q.843 1.282 1.707 2.548.417.605.838 1.209.876 1.261 1.774 2.507a186 186 0 0 0 2.79 3.768 185 185 0 0 0 5.688 7.113q.555.664 1.117 1.323.97 1.128 1.957 2.242.526.597 1.057 1.19c.332.368.671.729 1.006 1.095 9.046-10.327 17.09-21.327 23.926-33.23l-45.827-38.07a16.8 16.761 90 0 1-2.209-23.655l19.641-23.75a16.8 16.761 90 0 1 27.11 1.808c6.9 11.055 14.684 21.284 23.126 30.871 12.371-14.895 24.655-29.559 36.957-44.015l-80.78-91.877c-1.287-.331-2.542-.628-3.854-.99-5.288-1.333-10.035-3.511-14.317-6.323m82.36 20.14 42.787 48.664a2070 2070 0 0 1 18.04-20.338c-23.575-16.386-42.454-23.796-60.827-28.326m119.992 91.535a2570 2570 0 0 1-18.852 23.496l45.098 51.293c-2.435-21.382-8.477-43.889-26.246-74.789m-44.399 54.62a17663 17663 0 0 1-27.187 32.798 371 371 0 0 0 34.724 18.092 16.8 16.761 90 0 1 5.971 26.012l-19.639 23.754a16.8 16.761 90 0 1-23.6 2.212l-45.376-37.697c-10.224 9.199-19.543 19.173-28.069 29.871.428.268.852.54 1.282.805q1.322.809 2.658 1.596.38.225.762.449 1.268.741 2.548 1.463.435.244.874.486c.848.472 1.7.943 2.556 1.402.232.125.467.244.7.368a184 184 0 0 0 8.761 4.353q.395.186.791.37 1.223.558 2.455 1.099a184 184 0 0 0 3.662 1.568q.706.292 1.414.578c.785.318 1.57.636 2.36.944.402.156.807.305 1.21.459q2.265.862 4.555 1.668c.516.18 1.028.368 1.545.545.685.234 1.376.455 2.065.681.632.208 1.263.417 1.898.617a184 184 0 0 0 4.082 1.235q.96.28 1.922.55 1.073.298 2.15.583c.653.173 1.303.35 1.957.517q1.894.483 3.801.926.004 0 .008.002c.494.114.992.218 1.487.328.87.194 1.739.387 2.613.568.618.129 1.239.25 1.86.372a184 184 0 0 0 4.152.771q1.274.22 2.554.422c.577.092 1.153.185 1.73.271.94.14 1.882.269 2.825.395.474.063.945.134 1.42.193q2.11.265 4.234.48c.322.034.645.061.967.093q1.683.165 3.373.298c.493.04.987.073 1.48.108a188 188 0 0 0 7.555.383c.448.013.894.03 1.342.04 1.467.035 2.937.057 4.412.057 1.437 0 2.868-.022 4.297-.055q.554-.012 1.107-.029 1.716-.049 3.422-.129c.318-.015.638-.026.955-.043q2.075-.109 4.137-.261c.337-.025.672-.056 1.008-.082q1.673-.135 3.338-.297c.344-.034.688-.064 1.031-.1q2.034-.209 4.055-.46c.358-.046.714-.098 1.072-.145a185 185 0 0 0 16.127-2.856c.572-.127 1.143-.252 1.713-.385q1.688-.394 3.363-.82c.675-.17 1.346-.349 2.018-.527q.91-.241 1.816-.492a184 184 0 0 0 2.012-.565q.774-.226 1.547-.459 1.962-.585 3.906-1.21.654-.21 1.307-.425 1.149-.38 2.293-.775.539-.188 1.078-.379a184 184 0 0 0 5.21-1.922l.014-.006h.002q1.328-.515 2.647-1.05l.682-.28a184 184 0 0 0 8.042-3.52l.442-.205q2.937-1.381 5.816-2.86a46.5 46.5 0 0 1-3.66-13.313c-.192-1.354-.326-2.64-.49-3.963z" style="color:#000;font-style:normal;font-variant:normal;font-weight:400;font-stretch:normal;font-size:medium;line-height:normal;font-family:sans-serif;font-variant-ligatures:normal;font-variant-position:normal;font-variant-caps:normal;font-variant-numeric:normal;font-variant-alternates:normal;font-variant-east-asian:normal;font-feature-settings:normal;font-variation-settings:normal;text-indent:0;text-align:start;text-decoration:none;text-decoration-line:none;text-decoration-style:solid;text-decoration-color:#000;letter-spacing:normal;word-spacing:normal;text-transform:none;writing-mode:lr-tb;direction:ltr;text-orientation:mixed;dominant-baseline:auto;baseline-shift:baseline;text-anchor:start;white-space:normal;shape-padding:0;shape-margin:0;inline-size:0;clip-rule:nonzero;display:inline;overflow:visible;visibility:visible;isolation:auto;mix-blend-mode:normal;color-interpolation:sRGB;color-interpolation-filters:linearRGB;solid-color:#000;solid-opacity:1;vector-effect:none;fill:url(#c);fill-opacity:1;fill-rule:nonzero;stroke:none;stroke-width:5;stroke-linecap:round;stroke-linejoin:round;stroke-miterlimit:4;stroke-dasharray:none;stroke-dashoffset:0;stroke-opacity:1;paint-order:stroke fill markers;color-rendering:auto;image-rendering:auto;shape-rendering:auto;text-rendering:auto;stop-color:#000"/><path d="M415.855 63.363q-4.517 3.46-8.968 6.953c-.658.517-1.306 1.038-1.961 1.555a952 952 0 0 0-6.703 5.328c-1.555 1.25-3.09 2.508-4.633 3.764-1.312 1.067-2.63 2.13-3.934 3.203-1.531 1.26-3.046 2.53-4.566 3.797-1.346 1.12-2.698 2.237-4.035 3.363-1.595 1.343-3.173 2.697-4.756 4.047l-.565.48-.175.15a1197 1197 0 0 0-7.416 6.401c-1.217 1.06-2.437 2.12-3.647 3.184l-.002.002c-22.972 20.221-44.738 41.215-65.81 62.932 7.04 11.854 12.235 24.272 17.353 35.96 3.035 1.824 6.137 3.674 9.25 5.557 22.002-29.675 42.633-59.972 61.23-91.687a813 813 0 0 0 1.92-3.288 936 936 0 0 0 2.862-4.984q.393-.688.785-1.377c.887-1.561 1.778-3.119 2.654-4.687 1.043-1.867 2.07-3.745 3.098-5.621.793-1.448 1.592-2.89 2.377-4.344 1.093-2.027 2.166-4.068 3.242-6.108.705-1.335 1.418-2.664 2.115-4.005a725 725 0 0 0 3.955-7.745c.402-.795.813-1.583 1.211-2.38a704 704 0 0 0 5.12-10.448zm-155.98 146.684a2049 2049 0 0 0-20.422 22.996l36.014 40.96c6.694-8.272 13.32-16.548 19.857-24.845-10.991-13.616-21.867-26.587-33.982-37.976-.497-.393-.974-.75-1.467-1.135m-46.6 53.398c-15.701 18.473-31.41 37.33-47.37 56.614-14.307-14.042-27.127-29.719-38.042-47.205l-19.64 23.751 56.324 46.79c-8.862 18.283-20.176 34.532-33.246 49.322a260 260 0 0 1-4.94 5.431l-.072.079a295 295 0 0 1-18.348 17.94 353 353 0 0 1-10.898 9.378 394 394 0 0 1-5.613 4.55l22.94 19.057a343 343 0 0 1 3.476-6.326v-.002c7.071-12.555 14.864-24.51 23.476-35.785v-.002c.931-1.219 1.888-2.416 2.838-3.62 12.236-15.488 26.063-29.655 41.772-42.257l56.19 46.682 19.64-23.754c-18.478-8.416-36.265-18.126-52.942-29.303 13.845-16.719 27.58-33.209 41.131-49.625z" style="color:#000;font-style:normal;font-variant:normal;font-weight:400;font-stretch:normal;font-size:medium;line-height:normal;font-family:sans-serif;font-variant-ligatures:normal;font-variant-position:normal;font-variant-caps:normal;font-variant-numeric:normal;font-variant-alternates:normal;font-variant-east-asian:normal;font-feature-settings:normal;font-variation-settings:normal;text-indent:0;text-align:start;text-decoration:none;text-decoration-line:none;text-decoration-style:solid;text-decoration-color:#000;letter-spacing:normal;word-spacing:normal;text-transform:none;writing-mode:lr-tb;direction:ltr;text-orientation:mixed;dominant-baseline:auto;baseline-shift:baseline;text-anchor:start;white-space:normal;shape-padding:0;shape-margin:0;inline-size:0;clip-rule:nonzero;display:inline;overflow:visible;visibility:visible;isolation:auto;mix-blend-mode:normal;color-interpolation:sRGB;color-interpolation-filters:linearRGB;solid-color:#000;solid-opacity:1;vector-effect:none;fill:url(#d);fill-opacity:1;fill-rule:nonzero;stroke:none;stroke-width:5;stroke-linecap:round;stroke-linejoin:round;stroke-miterlimit:4;stroke-dasharray:none;stroke-dashoffset:0;stroke-opacity:1;paint-order:stroke fill markers;color-rendering:auto;image-rendering:auto;shape-rendering:auto;text-rendering:auto;stop-color:#000"/></svg>