<svg xmlns="http://www.w3.org/2000/svg" width="512" height="512" viewBox="0 0 512 512"><title>Battle: Skill</title><path d="M256 71.01C153.732 71.01 70.99 153.745 70.99 256S153.732 440.99 256 440.99 441.01 358.255 441.01 256 358.268 71.01 256 71.01" style="color:#000;font-style:normal;font-variant:normal;font-weight:400;font-stretch:normal;font-size:medium;line-height:normal;font-family:sans-serif;font-variant-ligatures:normal;font-variant-position:normal;font-variant-caps:normal;font-variant-numeric:normal;font-variant-alternates:normal;font-variant-east-asian:normal;font-feature-settings:normal;font-variation-settings:normal;text-indent:0;text-align:start;text-decoration:none;text-decoration-line:none;text-decoration-style:solid;text-decoration-color:#000;letter-spacing:normal;word-spacing:normal;text-transform:none;writing-mode:lr-tb;direction:ltr;text-orientation:mixed;dominant-baseline:auto;baseline-shift:baseline;text-anchor:start;white-space:normal;shape-padding:0;shape-margin:0;inline-size:0;clip-rule:nonzero;display:inline;overflow:visible;visibility:visible;isolation:auto;mix-blend-mode:normal;color-interpolation:sRGB;color-interpolation-filters:linearRGB;solid-color:#000;solid-opacity:1;vector-effect:none;fill:#fff;fill-opacity:1;fill-rule:evenodd;stroke:none;stroke-width:15.0001;stroke-linecap:round;stroke-linejoin:round;stroke-miterlimit:4;stroke-dasharray:none;stroke-dashoffset:0;stroke-opacity:1;paint-order:normal;color-rendering:auto;image-rendering:auto;shape-rendering:auto;text-rendering:auto;stop-color:#000"/><path d="M256 56.01C145.626 56.01 55.99 145.637 55.99 256S145.626 455.99 256 455.99c110.248 0 199.796-89.425 200-199.615a8 8 0 0 0 .01-.338V256a8 8 0 0 0-.01-.38c-.207-110.188-89.754-199.61-200-199.61m0 15c102.268 0 185.01 82.735 185.01 184.99S358.268 440.99 256 440.99 70.99 358.255 70.99 256 153.732 71.01 256 71.01" style="color:#000;font-style:normal;font-variant:normal;font-weight:400;font-stretch:normal;font-size:medium;line-height:normal;font-family:sans-serif;font-variant-ligatures:normal;font-variant-position:normal;font-variant-caps:normal;font-variant-numeric:normal;font-variant-alternates:normal;font-variant-east-asian:normal;font-feature-settings:normal;font-variation-settings:normal;text-indent:0;text-align:start;text-decoration:none;text-decoration-line:none;text-decoration-style:solid;text-decoration-color:#000;letter-spacing:normal;word-spacing:normal;text-transform:none;writing-mode:lr-tb;direction:ltr;text-orientation:mixed;dominant-baseline:auto;baseline-shift:baseline;text-anchor:start;white-space:normal;shape-padding:0;shape-margin:0;inline-size:0;clip-rule:nonzero;display:inline;overflow:visible;visibility:visible;isolation:auto;mix-blend-mode:normal;color-interpolation:sRGB;color-interpolation-filters:linearRGB;solid-color:#000;solid-opacity:1;vector-effect:none;fill:#000100;fill-opacity:1;fill-rule:evenodd;stroke:none;stroke-width:15.0001;stroke-linecap:round;stroke-linejoin:round;stroke-miterlimit:4;stroke-dasharray:none;stroke-dashoffset:0;stroke-opacity:1;paint-order:normal;color-rendering:auto;image-rendering:auto;shape-rendering:auto;text-rendering:auto;stop-color:#000"/><g style="stroke-width:.893976"><path d="M611.183-37.423a15 15 0 0 0-14.93 16.61c11.336 104.926 41.244 198.054 75.484 297.345-11.237 2.03-22.658 3.257-34.3 3.426a15.002 15.002 0 0 0-13.952 19.918l9.036 26.022a15 15 0 0 0 19.091 9.25l50.323-17.475c13.352 24.211 20.383 50.988 24.05 79.8a15.002 15.002 0 0 0 19.801 12.276l25.192-8.748a15.002 15.002 0 0 0 7.994-21.797c-14.577-24.685-24.964-50.392-30.153-77.812l49.83-17.303a15 15 0 0 0 9.25-19.092l-9.037-26.021a15.002 15.002 0 0 0-22.636-7.461 332 332 0 0 1-29.918 18.217c-34.033-98.707-66.047-193.74-122.58-280.354a15 15 0 0 0-5.942-5.262 15 15 0 0 0-6.603-1.539m-.018 15h.002c58.246 89.238 90.3 188.525 126.6 293.295 16.269-7.597 31.931-16.723 46.926-26.976l9.037 26.023-61.705 21.426c4.488 34.209 16.504 65.804 34.03 95.486l-25.19 8.748c-4.36-34.254-13.435-66.872-32.323-96.08l-61.851 21.479-9.036-26.022c18.417-.268 36.334-2.83 53.692-7.289-36.534-105.354-68.441-201.413-80.182-310.09" style="color:#000;font-style:normal;font-variant:normal;font-weight:400;font-stretch:normal;font-size:medium;line-height:normal;font-family:sans-serif;font-variant-ligatures:normal;font-variant-position:normal;font-variant-caps:normal;font-variant-numeric:normal;font-variant-alternates:normal;font-variant-east-asian:normal;font-feature-settings:normal;font-variation-settings:normal;text-indent:0;text-align:start;text-decoration:none;text-decoration-line:none;text-decoration-style:solid;text-decoration-color:#000;letter-spacing:normal;word-spacing:normal;text-transform:none;writing-mode:lr-tb;direction:ltr;text-orientation:mixed;dominant-baseline:auto;baseline-shift:baseline;text-anchor:start;white-space:normal;shape-padding:0;shape-margin:0;inline-size:0;clip-rule:nonzero;display:inline;overflow:visible;visibility:visible;isolation:auto;mix-blend-mode:normal;color-interpolation:sRGB;color-interpolation-filters:linearRGB;solid-color:#000;solid-opacity:1;vector-effect:none;fill:#000100;fill-opacity:1;fill-rule:nonzero;stroke:none;stroke-width:26.8193;stroke-linecap:round;stroke-linejoin:round;stroke-miterlimit:4;stroke-dasharray:none;stroke-dashoffset:0;stroke-opacity:1;paint-order:stroke fill markers;color-rendering:auto;image-rendering:auto;shape-rendering:auto;text-rendering:auto;stop-color:#000" transform="matrix(.57875 .95795 -.95571 .5801 40.71 -509.092)"/><path d="M611.166-22.423c11.74 108.676 43.648 204.735 80.182 310.09-17.358 4.458-35.276 7.02-53.693 7.289l9.036 26.02 61.85-21.476c18.888 29.208 27.964 61.825 32.324 96.08l25.191-8.748c-17.527-29.682-29.544-61.278-34.032-95.487l61.705-21.427-9.036-26.022c-14.995 10.254-30.658 19.38-46.926 26.977-36.3-104.77-68.354-204.058-126.6-293.296Z" style="color:#000;font-style:normal;font-variant:normal;font-weight:400;font-stretch:normal;font-size:medium;line-height:normal;font-family:sans-serif;font-variant-ligatures:normal;font-variant-position:normal;font-variant-caps:normal;font-variant-numeric:normal;font-variant-alternates:normal;font-variant-east-asian:normal;font-feature-settings:normal;font-variation-settings:normal;text-indent:0;text-align:start;text-decoration:none;text-decoration-line:none;text-decoration-style:solid;text-decoration-color:#000;letter-spacing:normal;word-spacing:normal;text-transform:none;writing-mode:lr-tb;direction:ltr;text-orientation:mixed;dominant-baseline:auto;baseline-shift:baseline;text-anchor:start;white-space:normal;shape-padding:0;shape-margin:0;inline-size:0;clip-rule:nonzero;display:inline;overflow:visible;visibility:visible;isolation:auto;mix-blend-mode:normal;color-interpolation:sRGB;color-interpolation-filters:linearRGB;solid-color:#000;solid-opacity:1;vector-effect:none;fill:#fff;fill-opacity:1;fill-rule:nonzero;stroke:none;stroke-width:26.8193;stroke-linecap:round;stroke-linejoin:round;stroke-miterlimit:4;stroke-dasharray:none;stroke-dashoffset:0;stroke-opacity:1;paint-order:stroke fill markers;color-rendering:auto;image-rendering:auto;shape-rendering:auto;text-rendering:auto;stop-color:#000" transform="matrix(.57875 .95795 -.95571 .5801 40.71 -509.092)"/></g><path d="M87.857 45.629q-.591.01-1.2.062c-3.24.279-6.882 1.526-11.063 5-.205.17-.409.34-.606.518l-.031.03a15 15 0 0 0-2.42 2.818c-.97 1.349-1.796 2.77-2.344 4.248l-.033.088c-6.869 18.914-2.188 39.639 6.194 58.21 8.376 18.561 20.78 36.19 41.166 41.329 1.312.362 2.567.659 3.853.99l214.934 244.455c.164 1.323.298 2.61.49 3.963 2.494 20.867 18.387 35.419 35.719 46.1 17.346 10.689 37.301 17.985 56.94 13.593 6.219-1.391 10.87-6.574 12.665-10.418s2.134-6.944 2.309-9.844c.348-5.798-.444-11.077-1.54-16.222-1.095-5.145-2.466-9.812-4.445-14.15-.989-2.17-1.646-4.165-4.873-7.374-1.613-1.604-4.298-4.198-9.885-4.755-5.041-.504-10.606 2.512-13.314 5.293-.114.043-.362.135-.951.232-1.6.264-4.538.194-7.213-.414a19.4 19.4 0 0 1-4.58-1.688c.045-24.697-1.616-58.472-6.871-90.67-5.507-33.737-12.998-65.514-33.545-84.218-12.896-11.74-27.59-20.158-41.176-28.323-6.36-14.521-12.83-30.172-22.822-44.464-15.92-22.773-46.478-34.268-79.233-44.047-31.26-9.333-64.544-15.304-89.044-18.42a19.4 19.4 0 0 1-1.086-4.76c-.261-2.731.044-5.653.511-7.207.172-.572.296-.805.354-.912 2.91-2.137 6.408-6.593 6.883-11.457.53-5.426-1.513-8.812-2.856-10.758-2.686-3.892-4.56-4.777-6.459-6.02-3.797-2.485-7.822-4.31-12.38-6.029-4.56-1.718-9.4-3.185-14.565-3.931-2.26-.327-4.723-.898-7.483-.848m1.64 15.426c10.101-.189 30.407 9.17 26.741 11.285-12.07 6.963-8.514 38.18 3.201 39.586 47.887 5.75 138.957 24.466 161.48 56.685 9.557 13.668 16.197 30.258 23.321 46.243 14.94 9.11 30.544 17.817 42.875 29.042 29.072 26.464 35.98 119.183 35.553 167.41-.104 11.801 30.4 19.321 38.85 8.24 3.244-4.253 13.073 30.97 4.664 32.85-25.805 5.772-71.485-21.416-74.498-46.87a238 238 0 0 1-1.063-8.587L129.586 145.547a238 238 0 0 1-8.377-2.15c-24.86-6.247-45.976-55.03-36.95-79.883.17-.46.435-.855.78-1.168v-.002q.055-.05.111-.096c.954-.796 2.475-1.158 4.346-1.193m55.98 87.82 203.878 231.879c-2.206-38.961.515-73.244-34.412-131.16-13.884-17.334-27.507-34.586-43.789-49.803-52.97-42.051-87.319-43.741-125.677-50.916m40.085 22.875c22.102 5.449 44.91 15.018 75.78 39.432 14.749 13.865 27.648 30.018 41.174 46.908 20.152 33.617 26.716 57.419 29.285 79.984z" style="color:#000;font-style:normal;font-variant:normal;font-weight:400;font-stretch:normal;font-size:medium;line-height:normal;font-family:sans-serif;font-variant-ligatures:normal;font-variant-position:normal;font-variant-caps:normal;font-variant-numeric:normal;font-variant-alternates:normal;font-variant-east-asian:normal;font-feature-settings:normal;font-variation-settings:normal;text-indent:0;text-align:start;text-decoration:none;text-decoration-line:none;text-decoration-style:solid;text-decoration-color:#000;letter-spacing:normal;word-spacing:normal;text-transform:none;writing-mode:lr-tb;direction:ltr;text-orientation:mixed;dominant-baseline:auto;baseline-shift:baseline;text-anchor:start;white-space:normal;shape-padding:0;shape-margin:0;inline-size:0;clip-rule:nonzero;display:inline;overflow:visible;visibility:visible;isolation:auto;mix-blend-mode:normal;color-interpolation:sRGB;color-interpolation-filters:linearRGB;solid-color:#000;solid-opacity:1;vector-effect:none;fill:#000100;fill-opacity:1;fill-rule:nonzero;stroke:none;stroke-width:30.0001;stroke-linecap:round;stroke-linejoin:round;stroke-miterlimit:4;stroke-dasharray:none;stroke-dashoffset:0;stroke-opacity:1;paint-order:stroke fill markers;color-rendering:auto;image-rendering:auto;shape-rendering:auto;text-rendering:auto;stop-color:#000"/><path d="M85.039 62.345c-.345.313-.61.71-.78 1.169-9.026 24.854 12.09 73.635 36.95 79.882 2.832.785 5.62 1.494 8.377 2.152L350.622 396.94c.3 2.82.645 5.674 1.062 8.585 3.014 25.455 48.692 52.642 74.497 46.87 8.41-1.88-1.42-37.1-4.663-32.847-8.45 11.08-38.954 3.56-38.85-8.241.426-48.228-6.48-140.946-35.553-167.41-12.331-11.225-27.936-19.933-42.875-29.044-7.124-15.984-13.764-32.574-23.32-46.241-22.523-32.22-113.594-50.935-161.48-56.685-11.716-1.407-15.272-32.624-3.203-39.587 4.345-2.505-24.98-15.19-31.086-10.092zm60.438 86.53c38.359 7.176 72.708 8.864 125.678 50.916 16.281 15.216 29.905 32.47 43.789 49.803 34.926 57.916 32.205 92.199 34.411 131.16z" style="color:#000;font-style:normal;font-variant:normal;font-weight:400;font-stretch:normal;font-size:medium;line-height:normal;font-family:sans-serif;font-variant-ligatures:normal;font-variant-position:normal;font-variant-caps:normal;font-variant-numeric:normal;font-variant-alternates:normal;font-variant-east-asian:normal;font-feature-settings:normal;font-variation-settings:normal;text-indent:0;text-align:start;text-decoration:none;text-decoration-line:none;text-decoration-style:solid;text-decoration-color:#000;letter-spacing:normal;word-spacing:normal;text-transform:none;writing-mode:lr-tb;direction:ltr;text-orientation:mixed;dominant-baseline:auto;baseline-shift:baseline;text-anchor:start;white-space:normal;shape-padding:0;shape-margin:0;inline-size:0;clip-rule:nonzero;display:inline;overflow:visible;visibility:visible;isolation:auto;mix-blend-mode:normal;color-interpolation:sRGB;color-interpolation-filters:linearRGB;solid-color:#000;solid-opacity:1;vector-effect:none;fill:#fcfcfc;fill-opacity:1;fill-rule:nonzero;stroke:none;stroke-width:30.0001;stroke-linecap:round;stroke-linejoin:round;stroke-miterlimit:4;stroke-dasharray:none;stroke-dashoffset:0;stroke-opacity:1;paint-order:stroke fill markers;color-rendering:auto;image-rendering:auto;shape-rendering:auto;text-rendering:auto;stop-color:#000"/></svg>