<svg xmlns="http://www.w3.org/2000/svg" width="512" height="512" viewBox="0 0 512 512"><title>Devine: Liturgy</title><path d="M255.93 14.89a15 15 0 0 0-14.608 11.907l-6.37 30.305a198.5 198.5 0 0 0-60.175 16.119l-20.666-23.057a15 15 0 0 0-15.134-4.45 15 15 0 0 0-10.291 19.128l9.652 29.482a201.4 201.4 0 0 0-44.01 44.012l-29.482-9.652a15.002 15.002 0 0 0-14.68 25.425l23.057 20.668a198.5 198.5 0 0 0-16.118 60.17L26.8 241.318a15.002 15.002 0 0 0-.002 29.36l30.308 6.37a198.5 198.5 0 0 0 16.118 60.17l-23.059 20.669a15.002 15.002 0 0 0 14.682 25.424l29.48-9.653a201.4 201.4 0 0 0 44.012 44.012l-9.652 29.482a15.002 15.002 0 0 0 25.425 14.68l20.668-23.057a198.5 198.5 0 0 0 60.17 16.12l6.371 30.304a15.002 15.002 0 0 0 29.36.002l6.37-30.308a198.5 198.5 0 0 0 60.17-16.118l20.669 23.057a15.002 15.002 0 0 0 25.425-14.68l-9.654-29.484a201.4 201.4 0 0 0 44.008-44.012l29.486 9.655a15.002 15.002 0 0 0 14.68-25.424l-23.064-20.674a198.5 198.5 0 0 0 16.119-60.164l30.312-6.371a15.002 15.002 0 0 0 0-29.36l-30.31-6.37a198.5 198.5 0 0 0-16.12-60.165l23.063-20.672a15.002 15.002 0 0 0-14.68-25.427l-29.486 9.654a201.4 201.4 0 0 0-44.008-44.01l9.654-29.486a15.002 15.002 0 0 0-25.425-14.678L337.22 73.223a198.5 198.5 0 0 0-60.17-16.12l-6.371-30.308a15 15 0 0 0-14.75-11.904m.07 14.993 24.65 117.262a111.6 111.6 0 0 0-24.65-2.749c-8.468 0-16.717.952-24.65 2.747zM142.941 60.178l79.975 89.222c-16.079 4.998-30.606 13.542-42.674 24.71zm226.118 0-37.307 113.947c-12.064-11.173-26.59-19.725-42.668-24.725zM231.69 72.608l-10.918 51.931-35.455-39.555a184 184 0 0 1 46.373-12.377m48.618 0a184 184 0 0 1 46.37 12.374l-35.454 39.555zM143.24 109.292l16.524 50.469-50.48-16.528a185.8 185.8 0 0 1 33.956-33.941m225.522.002a185.8 185.8 0 0 1 33.955 33.94l-50.479 16.527zM60.178 142.94l113.93 37.301c-11.172 12.063-19.72 26.585-24.721 42.662zm391.644 0-89.24 79.99c-4.997-16.083-13.538-30.615-24.707-42.683zM256 159.418c53.476 0 96.643 43.165 96.643 96.582S309.476 352.582 256 352.582 159.357 309.417 159.357 256s43.167-96.582 96.643-96.582m171.041 25.88a183.8 183.8 0 0 1 12.395 46.403l-51.973-10.926zm-342.08.003 39.574 35.474L72.566 231.7a183.8 183.8 0 0 1 12.395-46.398m279.873 46.045L482.117 256l-117.283 24.654a111.6 111.6 0 0 0 2.75-23.89 7.49 7.51 0 0 0 .039-.764 7.49 7.51 0 0 0-.039-.75 111.6 111.6 0 0 0-2.75-23.904m-217.709.008A111.6 111.6 0 0 0 144.379 256c0 8.468.952 16.715 2.746 24.646L29.883 256zm292.31 48.945a183.8 183.8 0 0 1-12.394 46.402l-39.578-35.476zm-366.869.002 51.971 10.926-39.576 35.472a183.8 183.8 0 0 1-12.395-46.398m290.016 8.767 89.24 79.99-113.947-37.306c11.17-12.068 19.71-26.6 24.707-42.684m-213.195.028c5 16.076 13.55 30.6 24.72 42.662l-113.93 37.3zm182.365 48.779 37.307 113.947-79.975-89.224c16.079-5 30.604-13.55 42.668-24.723m-151.51.016c12.067 11.167 26.594 19.713 42.672 24.71l-79.973 89.221zm-20.48 14.345-16.524 50.47a185.8 185.8 0 0 1-33.955-33.942zm192.476.002 50.479 16.526a185.8 185.8 0 0 1-33.955 33.941zm-120.888 12.62a111.6 111.6 0 0 0 24.65 2.746c8.469 0 16.718-.952 24.65-2.747L256 482.117zm59.875 22.605 35.455 39.555a184 184 0 0 1-46.371 12.375zm-70.45.002 10.916 51.928a184 184 0 0 1-46.37-12.375z" style="color:#000;font-style:normal;font-variant:normal;font-weight:400;font-stretch:normal;font-size:medium;line-height:normal;font-family:sans-serif;font-variant-ligatures:normal;font-variant-position:normal;font-variant-caps:normal;font-variant-numeric:normal;font-variant-alternates:normal;font-variant-east-asian:normal;font-feature-settings:normal;font-variation-settings:normal;text-indent:0;text-align:start;text-decoration:none;text-decoration-line:none;text-decoration-style:solid;text-decoration-color:#000;letter-spacing:normal;word-spacing:normal;text-transform:none;writing-mode:lr-tb;direction:ltr;text-orientation:mixed;dominant-baseline:auto;baseline-shift:baseline;text-anchor:start;white-space:normal;shape-padding:0;shape-margin:0;inline-size:0;clip-rule:nonzero;display:inline;overflow:visible;visibility:visible;isolation:auto;mix-blend-mode:normal;color-interpolation:sRGB;color-interpolation-filters:linearRGB;solid-color:#000;solid-opacity:1;vector-effect:none;fill:#000100;fill-opacity:1;fill-rule:evenodd;stroke:none;stroke-width:15.0001;stroke-linecap:round;stroke-linejoin:round;stroke-miterlimit:4;stroke-dasharray:none;stroke-dashoffset:0;stroke-opacity:1;paint-order:normal;color-rendering:auto;image-rendering:auto;shape-rendering:auto;text-rendering:auto;stop-color:#000"/></svg>