<svg xmlns="http://www.w3.org/2000/svg" width="512" height="512" viewBox="0 0 512 512"><title>Devine: Liturgy</title><path d="M678.22-46.197a184 184 0 0 0-46.373 12.377l35.455 39.555zm48.617 0 10.916 51.93 35.455-39.555a184 184 0 0 0-46.371-12.375M589.768-9.51a185.8 185.8 0 0 0-33.957 33.941l50.48 16.527zm225.522.002-16.524 50.467 50.479-16.528A185.8 185.8 0 0 0 815.29-9.51m58.28 76.004L833.99 101.97l51.973 10.926a183.8 183.8 0 0 0-12.395-46.402m-342.08.002a183.8 183.8 0 0 0-12.395 46.398l51.968-10.924zm354.474 94.998L833.99 172.42l39.578 35.477a183.8 183.8 0 0 0 12.395-46.402m-366.87.002a183.8 183.8 0 0 0 12.395 46.398l39.576-35.473zm87.196 71.935L555.81 249.96a185.8 185.8 0 0 0 33.955 33.941zm192.476.002 16.524 50.467a185.8 185.8 0 0 0 33.955-33.941zm-61.013 35.225-10.916 51.93a184 184 0 0 0 46.37-12.375zm-70.45.002-35.454 39.553a184 184 0 0 0 46.37 12.375z" style="color:#000;font-style:normal;font-variant:normal;font-weight:400;font-stretch:normal;font-size:medium;line-height:normal;font-family:sans-serif;font-variant-ligatures:normal;font-variant-position:normal;font-variant-caps:normal;font-variant-numeric:normal;font-variant-alternates:normal;font-variant-east-asian:normal;font-feature-settings:normal;font-variation-settings:normal;text-indent:0;text-align:start;text-decoration:none;text-decoration-line:none;text-decoration-style:solid;text-decoration-color:#000;letter-spacing:normal;word-spacing:normal;text-transform:none;writing-mode:lr-tb;direction:ltr;text-orientation:mixed;dominant-baseline:auto;baseline-shift:baseline;text-anchor:start;white-space:normal;shape-padding:0;shape-margin:0;inline-size:0;clip-rule:nonzero;display:inline;overflow:visible;visibility:visible;isolation:auto;mix-blend-mode:normal;color-interpolation:sRGB;color-interpolation-filters:linearRGB;solid-color:#000;solid-opacity:1;vector-effect:none;fill:#fff;fill-opacity:1;fill-rule:evenodd;stroke:none;stroke-width:15.0001;stroke-linecap:round;stroke-linejoin:round;stroke-miterlimit:4;stroke-dasharray:none;stroke-dashoffset:0;stroke-opacity:1;paint-order:normal;color-rendering:auto;image-rendering:auto;shape-rendering:auto;text-rendering:auto;stop-color:#000" transform="translate(-446.528 118.804)"/><path d="m702.528-88.921-24.65 117.26a111.6 111.6 0 0 1 24.65-2.747c8.47 0 16.718.953 24.65 2.748zM589.47-58.626l37.3 113.931c12.068-11.168 26.595-19.712 42.674-24.709zm226.117 0-79.975 89.222c16.08 5 30.604 13.552 42.668 24.725zM506.706 24.137l89.209 79.963c5-16.077 13.55-30.6 24.72-42.662zm391.644 0L784.403 61.444c11.17 12.067 19.71 26.6 24.707 42.683zM702.528 40.614c-53.476 0-96.642 43.165-96.642 96.582s43.166 96.582 96.642 96.582 96.643-43.165 96.643-96.582-43.166-96.582-96.643-96.582m108.834 71.927a111.6 111.6 0 0 1 2.75 23.905 7.49 7.51 0 0 1 .04.75 7.49 7.51 0 0 1-.04.763 111.6 111.6 0 0 1-2.75 23.891l117.283-24.654zm-217.709.008-117.242 24.647 117.242 24.646a111.6 111.6 0 0 1-2.746-24.646c0-8.467.952-16.716 2.746-24.647zm215.457 57.715c-4.997 16.084-13.537 30.616-24.707 42.684l113.947 37.307zm-213.195.028-89.21 79.962 113.93-37.3c-11.17-12.063-19.72-26.586-24.72-42.662M778.28 219.07c-12.064 11.173-26.589 19.723-42.668 24.723l79.975 89.224zm-151.51.016-37.3 113.931 79.972-89.22c-16.078-4.998-30.604-13.544-42.672-24.711m51.108 26.966 24.65 117.26 24.65-117.26a111.6 111.6 0 0 1-24.65 2.746c-8.468 0-16.717-.951-24.65-2.746" style="color:#000;font-style:normal;font-variant:normal;font-weight:400;font-stretch:normal;font-size:medium;line-height:normal;font-family:sans-serif;font-variant-ligatures:normal;font-variant-position:normal;font-variant-caps:normal;font-variant-numeric:normal;font-variant-alternates:normal;font-variant-east-asian:normal;font-feature-settings:normal;font-variation-settings:normal;text-indent:0;text-align:start;text-decoration:none;text-decoration-line:none;text-decoration-style:solid;text-decoration-color:#000;letter-spacing:normal;word-spacing:normal;text-transform:none;writing-mode:lr-tb;direction:ltr;text-orientation:mixed;dominant-baseline:auto;baseline-shift:baseline;text-anchor:start;white-space:normal;shape-padding:0;shape-margin:0;inline-size:0;clip-rule:nonzero;display:inline;overflow:visible;visibility:visible;isolation:auto;mix-blend-mode:normal;color-interpolation:sRGB;color-interpolation-filters:linearRGB;solid-color:#000;solid-opacity:1;vector-effect:none;fill:#fff;fill-opacity:1;fill-rule:evenodd;stroke:none;stroke-width:30;stroke-linecap:round;stroke-linejoin:round;stroke-miterlimit:4;stroke-dasharray:none;stroke-dashoffset:0;stroke-opacity:1;paint-order:stroke fill markers;color-rendering:auto;image-rendering:auto;shape-rendering:auto;text-rendering:auto;stop-color:#000" transform="translate(-446.528 118.804)"/></svg>