<svg xmlns="http://www.w3.org/2000/svg" width="512" height="512" viewBox="0 0 512 512"><title>Devine: Miracle</title><path d="M256 71.01c-100.67 0-182.42 80.169-184.95 180.21a189 189 0 0 0-.06 4.78c0 49.53 19.413 94.48 51.055 127.666q1.53 1.606 3.1 3.176C158.614 420.307 204.866 440.99 256 440.99c1.476 0 2.948-.024 4.416-.058q.629-.016 1.256-.036 1.65-.05 3.29-.128c.42-.02.839-.036 1.257-.059q2.168-.117 4.322-.283c.157-.012.313-.029.47-.041a186 186 0 0 0 3.942-.36q.537-.055 1.072-.113a186 186 0 0 0 3.809-.447q.258-.032.518-.065 2.305-.303 4.593-.662a185 185 0 0 0 4.977-.853q2.196-.405 4.373-.862l6.435-19.658-31.732 10.389a15.001 15.001 0 0 1-14.678-25.426l24.862-22.285-32.674-6.87a15.001 15.001 0 0 1 0-29.357l32.674-6.869-24.862-22.285A15.001 15.001 0 0 1 269 289.236l31.73 10.391-10.388-31.732a15 15 0 0 1 10.316-19.135 15 15 0 0 1 15.108 4.457l22.287 24.863 6.869-32.676a15 15 0 0 1 14.607-11.908 15 15 0 0 1 14.75 11.908l6.867 32.674 22.288-24.863a15.001 15.001 0 0 1 25.423 14.68l-10.388 31.732 18.738-6.137q.463-2.252.871-4.523l.006-.035.006-.03q.81-4.52 1.4-9.113l.037-.293q.26-2.055.475-4.125l.062-.615q.226-2.212.399-4.44.165-2.173.28-4.359c.02-.376.034-.754.052-1.13q.074-1.598.123-3.202.02-.663.037-1.328c.033-1.429.055-2.86.055-4.297 0-102.255-82.742-184.99-185.01-184.99m103.6 177.48-12.96 61.643-42.042-46.904 19.6 59.863-59.866-19.6 46.906 42.045-61.644 12.96 61.644 12.956-46.906 42.045 59.865-19.6-12.644 38.62-5.623 17.177-1.33 4.065 25.117-28.022.004-.002 16.92-18.879 1.966 9.36h.002l3.221 15.316-.002.002 7.772 36.967 10.093-48.016 2.866-13.629 6.23 6.952 35.81 39.95-19.597-59.859v-.002h.002l4.385 1.436 55.474 18.162-40.101-35.945-6.8-6.096-.001-.002 61.644-12.957-37.416-7.865-15.28-3.211v-.002l-8.948-1.88 17.88-16.028 7.014-6.287 16.065-14.4 5.943-5.327-4.963 1.623-17.105 5.602v-.002l-37.793 12.373 19.602-59.863-42.045 46.904zm0 61.205c26.622 0 48.38 21.543 48.779 48.069a8 8 0 0 1 .037.732 8 8 0 0 1-.039.752c-.41 26.516-22.162 48.047-48.777 48.047-26.87 0-48.815-21.935-48.815-48.799s21.945-48.8 48.815-48.8m0 15a33.695 33.695 0 0 0-33.815 33.801 33.693 33.693 0 0 0 33.815 33.799 33.695 33.695 0 0 0 33.816-33.799c0-18.754-15.05-33.8-33.816-33.8" style="color:#000;font-style:normal;font-variant:normal;font-weight:400;font-stretch:normal;font-size:medium;line-height:normal;font-family:sans-serif;font-variant-ligatures:normal;font-variant-position:normal;font-variant-caps:normal;font-variant-numeric:normal;font-variant-alternates:normal;font-variant-east-asian:normal;font-feature-settings:normal;font-variation-settings:normal;text-indent:0;text-align:start;text-decoration:none;text-decoration-line:none;text-decoration-style:solid;text-decoration-color:#000;letter-spacing:normal;word-spacing:normal;text-transform:none;writing-mode:lr-tb;direction:ltr;text-orientation:mixed;dominant-baseline:auto;baseline-shift:baseline;text-anchor:start;white-space:normal;shape-padding:0;shape-margin:0;inline-size:0;clip-rule:nonzero;display:inline;overflow:visible;visibility:visible;isolation:auto;mix-blend-mode:normal;color-interpolation:sRGB;color-interpolation-filters:linearRGB;solid-color:#000;solid-opacity:1;vector-effect:none;fill:#fff;fill-opacity:1;fill-rule:evenodd;stroke:none;stroke-width:30;stroke-linecap:round;stroke-linejoin:round;stroke-miterlimit:4;stroke-dasharray:none;stroke-dashoffset:0;stroke-opacity:1;paint-order:stroke fill markers;color-rendering:auto;image-rendering:auto;shape-rendering:auto;text-rendering:auto;stop-color:#000"/><path d="M255.996 56.008c-110.373 0-200.01 89.627-200.01 199.99s89.637 199.99 200.01 199.99c11.455 0 22.68-.986 33.611-2.84a15.001 15.001 0 0 0 26.157 10.625l22.285-24.863 6.867 32.676a15.001 15.001 0 0 0 29.36 0l6.867-32.676 22.287 24.863a15.001 15.001 0 0 0 25.423-14.68l-10.388-31.73 31.732 10.389a15.001 15.001 0 0 0 14.678-25.426l-24.863-22.285 32.675-6.87a15.001 15.001 0 0 0 0-29.357l-32.675-6.869 24.863-22.285a15.001 15.001 0 0 0-11.547-26.088 200.6 200.6 0 0 0 2.668-32.199 8 8 0 0 0 .01-.338v-.037a8 8 0 0 0-.01-.38c-.207-110.188-89.754-199.61-200-199.61m0 15c102.268 0 185.01 82.735 185.01 184.99a186 186 0 0 1-3.803 37.49l-18.738 6.137 10.388-31.732a15.001 15.001 0 0 0-25.423-14.68l-22.287 24.863-6.868-32.674a15 15 0 0 0-14.75-11.908 15 15 0 0 0-14.607 11.908l-6.87 32.676-22.286-24.863a15 15 0 0 0-15.108-4.457 15 15 0 0 0-10.316 19.135l10.389 31.732-31.731-10.39a15.001 15.001 0 0 0-14.68 25.425l24.862 22.285-32.674 6.87a15.001 15.001 0 0 0 0 29.357l32.674 6.869-24.862 22.285a15.001 15.001 0 0 0 14.678 25.426l31.733-10.389-6.436 19.658a186 186 0 0 1-38.295 3.967c-102.268 0-185.01-82.735-185.01-184.99s82.742-184.99 185.01-184.99m103.6 177.48 12.959 61.643 42.045-46.904-19.602 59.863 37.793-12.373 17.105-5.6 4.967-1.627-5.947 5.33-16.064 14.4-7.014 6.288-17.881 16.027 8.947 1.881 15.281 3.213 37.417 7.865-61.645 12.957.002.002 6.799 6.096 40.105 35.947-55.478-18.164-4.385-1.436h-.002l1.443 4.405 18.159 55.46-35.815-39.954-6.23-6.952-2.866 13.63-10.093 48.015-7.772-36.967.002-.002-3.22-15.316h-.003l-1.966-9.36-16.92 18.88-20.735 23.132-4.388 4.895 1.332-4.069 5.623-17.177 12.644-38.62-59.865 19.6 46.906-42.045-61.644-12.957 61.644-12.959-46.906-42.045 59.865 19.6-19.6-59.863 42.044 46.904zm0 61.205c-26.87 0-48.815 21.937-48.815 48.801s21.945 48.799 48.815 48.799c26.615 0 48.368-21.53 48.777-48.047a8 8 0 0 0 .04-.752 8 8 0 0 0-.038-.732c-.399-26.526-22.157-48.069-48.78-48.069m0 15a33.696 33.696 0 0 1 33.816 33.801 33.695 33.695 0 0 1-33.816 33.799 33.693 33.693 0 0 1-33.815-33.799 33.695 33.695 0 0 1 33.815-33.8" style="color:#000;font-style:normal;font-variant:normal;font-weight:400;font-stretch:normal;font-size:medium;line-height:normal;font-family:sans-serif;font-variant-ligatures:normal;font-variant-position:normal;font-variant-caps:normal;font-variant-numeric:normal;font-variant-alternates:normal;font-variant-east-asian:normal;font-feature-settings:normal;font-variation-settings:normal;text-indent:0;text-align:start;text-decoration:none;text-decoration-line:none;text-decoration-style:solid;text-decoration-color:#000;letter-spacing:normal;word-spacing:normal;text-transform:none;writing-mode:lr-tb;direction:ltr;text-orientation:mixed;dominant-baseline:auto;baseline-shift:baseline;text-anchor:start;white-space:normal;shape-padding:0;shape-margin:0;inline-size:0;clip-rule:nonzero;display:inline;overflow:visible;visibility:visible;isolation:auto;mix-blend-mode:normal;color-interpolation:sRGB;color-interpolation-filters:linearRGB;solid-color:#000;solid-opacity:1;vector-effect:none;fill:#000100;fill-opacity:1;fill-rule:evenodd;stroke:none;stroke-width:30;stroke-linecap:round;stroke-linejoin:round;stroke-miterlimit:4;stroke-dasharray:none;stroke-dashoffset:0;stroke-opacity:1;paint-order:stroke fill markers;color-rendering:auto;image-rendering:auto;shape-rendering:auto;text-rendering:auto;stop-color:#000"/></svg>