<svg xmlns="http://www.w3.org/2000/svg" width="512" height="512" viewBox="0 0 512 512"><title>Devine: Miracle</title><path d="M255.996 56.008c-110.373 0-200.01 89.627-200.01 199.99s89.637 199.99 200.01 199.99c11.455 0 22.68-.986 33.611-2.84a15.001 15.001 0 0 0 26.157 10.625l22.285-24.863 6.867 32.676a15.001 15.001 0 0 0 29.36 0l6.867-32.676 22.287 24.863a15.001 15.001 0 0 0 25.423-14.68l-10.388-31.73 31.732 10.389a15.001 15.001 0 0 0 14.678-25.426l-24.863-22.285 32.675-6.87a15.001 15.001 0 0 0 0-29.357l-32.675-6.869 24.863-22.285a15.001 15.001 0 0 0-11.547-26.088 200.6 200.6 0 0 0 2.668-32.199 8 8 0 0 0 .01-.338v-.037a8 8 0 0 0-.01-.38c-.207-110.188-89.754-199.61-200-199.61m0 15c102.268 0 185.01 82.735 185.01 184.99a186 186 0 0 1-3.803 37.49l-18.738 6.137 10.388-31.732a15.001 15.001 0 0 0-25.423-14.68l-22.287 24.863-6.868-32.674a15 15 0 0 0-14.75-11.908 15 15 0 0 0-14.607 11.908l-6.87 32.676-22.286-24.863a15 15 0 0 0-15.108-4.457 15 15 0 0 0-10.316 19.135l10.389 31.732-31.731-10.39a15.001 15.001 0 0 0-14.68 25.425l24.862 22.285-32.674 6.87a15.001 15.001 0 0 0 0 29.357l32.674 6.869-24.862 22.285a15.001 15.001 0 0 0 14.678 25.426l31.733-10.389-6.436 19.658a186 186 0 0 1-38.295 3.967c-102.268 0-185.01-82.735-185.01-184.99s82.742-184.99 185.01-184.99m103.6 177.48 12.959 61.643 42.045-46.904-19.602 59.863 37.793-12.373 17.105-5.6 4.967-1.627-5.947 5.33-16.064 14.4-7.014 6.288-17.881 16.027 8.947 1.881 15.281 3.213 37.417 7.865-61.645 12.957.002.002 6.799 6.096 40.105 35.947-55.478-18.164-4.385-1.436h-.002l1.443 4.405 18.159 55.46-35.815-39.954-6.23-6.952-2.866 13.63-10.093 48.015-7.772-36.967.002-.002-3.22-15.316h-.003l-1.966-9.36-16.92 18.88-20.735 23.132-4.388 4.895 1.332-4.069 5.623-17.177 12.644-38.62-59.865 19.6 46.906-42.045-61.644-12.957 61.644-12.959-46.906-42.045 59.865 19.6-19.6-59.863 42.044 46.904zm0 61.205c-26.87 0-48.815 21.937-48.815 48.801s21.945 48.799 48.815 48.799c26.615 0 48.368-21.53 48.777-48.047a8 8 0 0 0 .04-.752 8 8 0 0 0-.038-.732c-.399-26.526-22.157-48.069-48.78-48.069m0 15a33.696 33.696 0 0 1 33.816 33.801 33.695 33.695 0 0 1-33.816 33.799 33.693 33.693 0 0 1-33.815-33.799 33.695 33.695 0 0 1 33.815-33.8" style="color:#000;font-style:normal;font-variant:normal;font-weight:400;font-stretch:normal;font-size:medium;line-height:normal;font-family:sans-serif;font-variant-ligatures:normal;font-variant-position:normal;font-variant-caps:normal;font-variant-numeric:normal;font-variant-alternates:normal;font-variant-east-asian:normal;font-feature-settings:normal;font-variation-settings:normal;text-indent:0;text-align:start;text-decoration:none;text-decoration-line:none;text-decoration-style:solid;text-decoration-color:#000;letter-spacing:normal;word-spacing:normal;text-transform:none;writing-mode:lr-tb;direction:ltr;text-orientation:mixed;dominant-baseline:auto;baseline-shift:baseline;text-anchor:start;white-space:normal;shape-padding:0;shape-margin:0;inline-size:0;clip-rule:nonzero;display:inline;overflow:visible;visibility:visible;isolation:auto;mix-blend-mode:normal;color-interpolation:sRGB;color-interpolation-filters:linearRGB;solid-color:#000;solid-opacity:1;vector-effect:none;fill:#000100;fill-opacity:1;fill-rule:evenodd;stroke:none;stroke-width:30;stroke-linecap:round;stroke-linejoin:round;stroke-miterlimit:4;stroke-dasharray:none;stroke-dashoffset:0;stroke-opacity:1;paint-order:stroke fill markers;color-rendering:auto;image-rendering:auto;shape-rendering:auto;text-rendering:auto;stop-color:#000"/></svg>