<svg xmlns="http://www.w3.org/2000/svg" width="512" height="512" viewBox="0 0 512 512"><title>Magic: Spells</title><g style="stroke-width:1.54493;stroke-miterlimit:4;stroke-dasharray:none"><path d="M470.142 239.507c0 117.149-95.247 212.117-212.74 212.117-117.491 0-212.738-94.968-212.738-212.117 0-117.15 95.247-212.118 212.739-212.118s212.739 94.968 212.739 212.118" style="color:#000;font-style:normal;font-variant:normal;font-weight:400;font-stretch:normal;font-size:medium;line-height:normal;font-family:sans-serif;font-variant-ligatures:normal;font-variant-position:normal;font-variant-caps:normal;font-variant-numeric:normal;font-variant-alternates:normal;font-variant-east-asian:normal;font-feature-settings:normal;font-variation-settings:normal;text-indent:0;text-align:start;text-decoration:none;text-decoration-line:none;text-decoration-style:solid;text-decoration-color:#000;letter-spacing:normal;word-spacing:normal;text-transform:none;writing-mode:lr-tb;direction:ltr;text-orientation:mixed;dominant-baseline:auto;baseline-shift:baseline;text-anchor:start;white-space:normal;shape-padding:0;shape-margin:0;inline-size:0;clip-rule:nonzero;display:inline;overflow:visible;visibility:visible;isolation:auto;mix-blend-mode:normal;color-interpolation:sRGB;color-interpolation-filters:linearRGB;solid-color:#000;solid-opacity:1;vector-effect:none;fill:#fff;fill-opacity:1;fill-rule:evenodd;stroke:none;stroke-width:16.5529;stroke-linecap:round;stroke-linejoin:round;stroke-miterlimit:4;stroke-dasharray:none;stroke-dashoffset:0;stroke-opacity:1;paint-order:normal;color-rendering:auto;image-rendering:auto;shape-rendering:auto;text-rendering:auto;stop-color:#000" transform="matrix(.90492 0 0 .90747 23.072 38.656)"/><path d="M257.402 19.113C135.45 19.113 36.39 117.87 36.39 239.506S135.45 459.9 257.402 459.9c121.803 0 220.761-98.519 221.004-219.949l.002-.023a8 8 0 0 0 .01-.422 8 8 0 0 0-.01-.385c-.21-121.458-99.183-220.008-221.006-220.008m0 16.553c113.033 0 204.463 91.177 204.463 203.84s-91.43 203.842-204.463 203.842-204.46-91.179-204.46-203.842 91.428-203.84 204.46-203.84" style="color:#000;font-style:normal;font-variant:normal;font-weight:400;font-stretch:normal;font-size:medium;line-height:normal;font-family:sans-serif;font-variant-ligatures:normal;font-variant-position:normal;font-variant-caps:normal;font-variant-numeric:normal;font-variant-alternates:normal;font-variant-east-asian:normal;font-feature-settings:normal;font-variation-settings:normal;text-indent:0;text-align:start;text-decoration:none;text-decoration-line:none;text-decoration-style:solid;text-decoration-color:#000;letter-spacing:normal;word-spacing:normal;text-transform:none;writing-mode:lr-tb;direction:ltr;text-orientation:mixed;dominant-baseline:auto;baseline-shift:baseline;text-anchor:start;white-space:normal;shape-padding:0;shape-margin:0;inline-size:0;clip-rule:nonzero;display:inline;overflow:visible;visibility:visible;isolation:auto;mix-blend-mode:normal;color-interpolation:sRGB;color-interpolation-filters:linearRGB;solid-color:#000;solid-opacity:1;vector-effect:none;fill:#000100;fill-opacity:1;fill-rule:evenodd;stroke:none;stroke-width:16.5529;stroke-linecap:round;stroke-linejoin:round;stroke-miterlimit:4;stroke-dasharray:none;stroke-dashoffset:0;stroke-opacity:1;paint-order:normal;color-rendering:auto;image-rendering:auto;shape-rendering:auto;text-rendering:auto;stop-color:#000" transform="matrix(.90492 0 0 .90747 23.072 38.656)"/><path d="M257.244-21.445a31 31 0 0 0-1.19.027l-.279.014-.232.013-.04.002-.206.014-.082.006-.022.002-.105.008a32 32 0 0 0-1.1.1l-.06.005q-.288.034-.577.07l-.08.01-.46.067q-.382.056-.762.12l-.04.007q-.247.044-.494.092l-.043.007-.248.05q-.012 0-.023.003l-.068.014q-.288.06-.575.123l-.017.004q-.172.038-.342.08l-.025.006-.079.017-.164.04-.04.01a32 32 0 0 0-1.006.265l-.174.049-.254.074-.026.008-.011.004-.022.005-.16.05-.172.052-.03.01-.087.027-.064.02q-.274.087-.545.18-.134.044-.266.09l-.336.116-.119.045q-.276.102-.55.207l-.013.004-.093.037q-.27.105-.537.215l-.19.08-.158.067-.182.076-.142.06-.12.053-.392.178-.113.053q-.13.06-.26.123l-.295.14-.07.035q-.15.074-.299.149l-.1.049-.252.13-.091.05q-.2.102-.397.208l-.14.079q-.087.046-.172.093l-.235.131-.097.057-.018.01-.002.002-.172.1-.088.052q-.139.08-.277.162l-.016.01-.013.008q-.231.139-.46.28l-.171.108-.088.057a32 32 0 0 0-.988.654l-.022.014q-.28.194-.555.392l-.15.114-.096.068-.273.203-.049.035q-.177.134-.352.272l-.01.008-.093.072-.131.103-.06.047q-.18.142-.354.286l-.008.007-.014.01q-.228.186-.451.377l-.149.129q-.151.131-.302.266l-.037.03-.022.022-.098.086-.006.006q-.179.16-.355.322l-.145.135-.074.07-.299.286-.187.183-.076.074q-.158.157-.313.315l-.19.195-.099.102-.133.137-.013.015-.155.162-.297.324-.06.067-.028.031-.293.328-.138.158-.067.079a33 33 0 0 0-.558.666l-.018.021-.037.045-.037.047-.09.11q-.145.182-.289.368l-.055.069-.017.023-.018.022-.058.076a33 33 0 0 0-.336.447l-.006.008q-.08.108-.158.217l-.137.187-.06.082-.118.166q-.163.232-.322.467l.01-.012q-.137.202-.272.405l.01-.012q-.066.098-.13.197l-.016.026q-.09.14-.18.283l-.092.142-.084.137-.15.246-.047.078-.049.082-.006.01-.002.002-.021.035-.098.162q-.107.182-.21.366-.025.04-.048.082l-.025.045-.07.125-.07.125a33 33 0 0 0-.485.908l-.024.043-.113.224q-.08.158-.158.317l-.037.078-.008.015-.041.088q-.244.504-.47 1.016l-.015.033-.029.069-.092.209-.166.392-.006.016q-.098.24-.195.482l-.004.012-.012.027q-.014.038-.027.074l-.031.08a17 17 0 0 0-.16.41l-.1.27-.033.092-.137.387-.049.146.121-.318-.103.275-.014.04-.002.005-.084.244-.008.018q0 .003-.002.008l-.006.013-.004.014-.01.027-.002.008-.03.088-.02.06-33.924 103.6H46.832c-28.899.01-42.522 38.374-21.453 57.691l.004.002L139.72 267.191l-62.17 189.83v.006c-4.52 13.817.155 29.134 12.181 37.686s28.95 7.428 39.797-2.506l.004-.004 127.87-117.172L385.27 492.203l.004.004c10.848 9.934 27.773 11.058 39.8 2.506s16.701-23.87 12.181-37.686l-.002-.006-62.168-189.83 114.338-104.775.002-.002c21.069-19.317 7.447-57.681-21.451-57.691H321.877L288.115 1.635l.133.517a17 17 0 0 0-.307-1.05q-.06-.186-.123-.37l-.033-.095q-.001-.006-.004-.012l-.039-.113a33 33 0 0 0-.223-.621l-.002-.008q-.114-.309-.234-.613l-.021-.053-.088-.219-.008-.021-.057-.141-.035-.086-.08-.195a33 33 0 0 0-.221-.516l-.002-.004a33 33 0 0 0-.248-.55l-.01-.022-.047-.102q-.118-.255-.24-.51l-.027-.054a34 34 0 0 0-.301-.6l-.002-.004-.2-.379-.021-.037q-.365-.689-.762-1.361l-.039-.068-.03-.047-.04-.069-.205-.337-.092-.143-.092-.147-.056-.09-.034-.05-.08-.127-.037-.057q-.134-.21-.273-.418l-.131-.191-.002-.004q-.36-.528-.74-1.041l-.008-.012q-.178-.24-.36-.476l-.056-.077-.39-.494.019.028-.23-.285-.036-.043-.162-.196-.06-.072q-.344-.408-.7-.805l-.02-.021-.03-.035-.136-.15q-.21-.23-.424-.456l-.012-.012-.246-.255-.008-.01-.139-.14-.04-.042-.08-.082a33 33 0 0 0-.382-.375l-.025-.025a33 33 0 0 0-.674-.635l-.02-.018q-.154-.142-.312-.283l-.015-.013a32 32 0 0 0-.415-.364l-.109-.093q-.224-.191-.453-.38l-.018-.015a32 32 0 0 0-.425-.342l-.03-.023-.054-.043-.043-.035-.372-.287-.011-.01-.096-.07-.059-.046a32 32 0 0 0-.519-.38l-.018-.012-.205-.145-.07-.052-.117-.082-.022-.016-.027-.018-.162-.115q-.221-.15-.446-.299l-.027-.017q-.27-.179-.545-.352h-.002q-.33-.21-.668-.412l-.058-.033q-.27-.16-.543-.315l-.008-.003-.045-.028-.131-.072-.33-.184-.098-.052q-.252-.135-.506-.266l-.068-.035-.022-.012a32 32 0 0 0-1.101-.537l-.193-.09-.049-.021-.023-.012-.045-.02-.01-.003-.006-.002-.02-.008-.004-.002-.308-.139-.057-.025a32 32 0 0 0-.61-.258l-.015-.006a32 32 0 0 0-.605-.242l-.143-.055-.119-.045.115.045-.361-.135-.025-.01-.227-.083a32 32 0 0 0-.62-.211l-.124-.041-.324-.106-.098-.031-.21-.063-.16-.048-.089-.028-.03-.01-.245-.072-.037-.01-.032-.01-.015-.003-.33-.09q-.098-.028-.194-.055l-.029-.008a31.669 31.669 0 0 0-1.262-.307l-.008-.001a31 31 0 0 0-.597-.127l-.22-.043q-.121-.023-.245-.045l.172.033q-.246-.047-.492-.092-.287-.05-.575-.094l-.045-.005a31 31 0 0 0-.697-.1l-.012-.002q-.332-.044-.666-.08l-.125-.014q-.285-.029-.574-.052a31 31 0 0 0-.596-.047l-.025-.002-.357-.022-.096-.006-.28-.013a32 32 0 0 0-1.189-.028h-.318zm1.258 32.617v.002l-.104.1zm-2.086.076.02.043h-.002zm1.97.018h.003l-.002.002zm-.115.3-.025.079-.04.109zm-.869 2.655 11.952 36.492a16.554 16.554 0 0 0-23.9-.004zm-35.767 109.224a16.554 16.554 0 0 0 14.435 14.264h-8.83a16.55 16.55 0 0 0-15.73 11.4l-.979 2.987a16.554 16.554 0 0 0-14.433-14.268h8.828a16.55 16.55 0 0 0 15.732-11.402zm71.537 0 .976 2.98a16.55 16.55 0 0 0 15.73 11.403h8.825a16.554 16.554 0 0 0-14.43 14.266l-.976-2.985a16.55 16.55 0 0 0-15.73-11.4h-8.829a16.554 16.554 0 0 0 14.434-14.264M47.359 137.828h39.35a16.554 16.554 0 0 0-12.525 24.404l-26.432-24.22-.002-.002c-.197-.18-.264-.134-.39-.182m380.735 0h39.351c-.127.049-.194.002-.392.184l-26.432 24.222a16.554 16.554 0 0 0-12.527-24.406m-296.84 32.986h40.03l-9.241 28.215zm107.982 0h36.334l24.926 76.11-43.094 39.488-43.091-39.488zm104.285 0h40.03l-30.79 28.213zm-161.787 69.211-2.207 6.74a16.55 16.55 0 0 0 4.547 17.356l6.846 6.274a16.55 16.55 0 0 0-18.623 3.693l2.207-6.736a16.55 16.55 0 0 0-4.547-17.356l-6.852-6.28a16.55 16.55 0 0 0 18.63-3.69m151.338.002a16.55 16.55 0 0 0 18.63 3.69l-6.852 6.28a16.55 16.55 0 0 0-4.547 17.355l2.207 6.738a16.55 16.55 0 0 0-18.63-3.693l6.85-6.276a16.55 16.55 0 0 0 4.55-17.355zm-141.084 75.059 17.063 15.635-31.694 29.04zm130.828 0 14.633 44.678-31.695-29.043zm-55.853 7.29a16.55 16.55 0 0 0-.002 16.69 16.55 16.55 0 0 0-19.117 0 16.55 16.55 0 0 0 .002-16.689 16.55 16.55 0 0 0 19.117-.002m-141.404 94.43a16.554 16.554 0 0 0 23.09 12.98l-39.065 35.796zm263.69 0 15.974 48.776-39.065-35.795a16.554 16.554 0 0 0 23.09-12.98" style="color:#000;font-style:normal;font-variant:normal;font-weight:400;font-stretch:normal;font-size:medium;line-height:normal;font-family:sans-serif;font-variant-ligatures:normal;font-variant-position:normal;font-variant-caps:normal;font-variant-numeric:normal;font-variant-alternates:normal;font-variant-east-asian:normal;font-feature-settings:normal;font-variation-settings:normal;text-indent:0;text-align:start;text-decoration:none;text-decoration-line:none;text-decoration-style:solid;text-decoration-color:#000;letter-spacing:normal;word-spacing:normal;text-transform:none;writing-mode:lr-tb;direction:ltr;text-orientation:mixed;dominant-baseline:auto;baseline-shift:baseline;text-anchor:start;white-space:normal;shape-padding:0;shape-margin:0;inline-size:0;clip-rule:nonzero;display:inline;overflow:visible;visibility:visible;isolation:auto;mix-blend-mode:normal;color-interpolation:sRGB;color-interpolation-filters:linearRGB;solid-color:#000;solid-opacity:1;vector-effect:none;fill:#000;fill-opacity:1;fill-rule:nonzero;stroke:none;stroke-width:33.1056;stroke-linecap:butt;stroke-linejoin:round;stroke-miterlimit:4;stroke-dasharray:none;stroke-dashoffset:0;stroke-opacity:1;paint-order:stroke fill markers;color-rendering:auto;image-rendering:auto;shape-rendering:auto;text-rendering:auto;stop-color:#000" transform="matrix(.90492 0 0 .90747 23.072 38.656)"/><path d="M257.328-4.893a14.8 14.8 0 0 0-3.452.425l-.026.005a15 15 0 0 0-.93.261l-.007.002a15 15 0 0 0-.615.208l-.265.1-.04.015a15 15 0 0 0-.643.267l-.213.095-.044.022a15 15 0 0 0-1.12.576l-.042.025a16 16 0 0 0-.519.31l-.042.027a16 16 0 0 0-1.077.743l-.006.004a16 16 0 0 0-.519.409 16 16 0 0 0-.71.618l-.036.035-.203.193-.037.037a16 16 0 0 0-1.53 1.719l-.016.02a16 16 0 0 0-.364.493l-.004.004-.03.041a17 17 0 0 0-.668 1.03l-.06.097a17 17 0 0 0-.33.588 17 17 0 0 0-.284.552l-.022.047q-.137.279-.263.564v.002a17 17 0 0 0-.378.929l-.006.011-.017.047a17 17 0 0 0-.197.572l-.007.02-.013.038-.006.016-37.66 115.001H46.837c-14.474.005-21.19 18.927-10.27 28.938L158.772 262.2l-65.49 199.974c-2.31 7.059.168 14.872 6.042 19.048 5.873 4.177 13.677 3.676 19.026-1.222l139.051-127.42L396.455 480c5.349 4.898 13.152 5.4 19.026 1.222 5.874-4.176 8.352-11.99 6.043-19.048L356.033 262.2 478.24 150.213c10.918-10.01 4.202-28.933-10.271-28.938h-158.09L272.216 6.272l-.002-.008a17 17 0 0 0-.432-1.175l-.046-.115-.009-.023a17 17 0 0 0-.25-.57l-.023-.05a17 17 0 0 0-.39-.78 17 17 0 0 0-.907-1.514l-.029-.043a16.5 16.5 0 0 0-1.393-1.77l-.027-.032-.028-.03a16 16 0 0 0-.443-.466l-.015-.015a16 16 0 0 0-.722-.684l-.21-.184-.023-.02a16 16 0 0 0-1.237-.953l-.065-.047-.022-.016a15.5 15.5 0 0 0-2.23-1.27l-.021-.01-.11-.049a15 15 0 0 0-.808-.34l-.057-.022-.226-.083-.03-.012a15 15 0 0 0-.786-.257l-.133-.04q-.015-.005-.031-.009a15 15 0 0 0-2.518-.494 15 15 0 0 0-.792-.062l-.126-.008a15 15 0 0 0-.746-.014zm.074 67.054 19.362 59.114h-38.722Zm-168.713 92.1h105.435l-24.34 74.313zm138.55 0h60.327l31.982 97.656-62.146 56.946-62.144-56.946zm93.443 0h105.435l-81.096 74.313zM184.246 285.54l49.305 45.18-91.585 83.924zm146.314 0 42.28 129.104-91.585-83.924z" style="color:#000;font-style:normal;font-variant:normal;font-weight:400;font-stretch:normal;font-size:medium;line-height:normal;font-family:sans-serif;font-variant-ligatures:normal;font-variant-position:normal;font-variant-caps:normal;font-variant-numeric:normal;font-variant-alternates:normal;font-variant-east-asian:normal;font-feature-settings:normal;font-variation-settings:normal;text-indent:0;text-align:start;text-decoration:none;text-decoration-line:none;text-decoration-style:solid;text-decoration-color:#000;letter-spacing:normal;word-spacing:normal;text-transform:none;writing-mode:lr-tb;direction:ltr;text-orientation:mixed;dominant-baseline:auto;baseline-shift:baseline;text-anchor:start;white-space:normal;shape-padding:0;shape-margin:0;inline-size:0;clip-rule:nonzero;display:inline;overflow:visible;visibility:visible;isolation:auto;mix-blend-mode:normal;color-interpolation:sRGB;color-interpolation-filters:linearRGB;solid-color:#000;solid-opacity:1;vector-effect:none;fill:#fff;fill-opacity:1;fill-rule:nonzero;stroke:none;stroke-width:33.1056;stroke-linecap:butt;stroke-linejoin:round;stroke-miterlimit:4;stroke-dasharray:none;stroke-dashoffset:0;stroke-opacity:1;paint-order:stroke fill markers;color-rendering:auto;image-rendering:auto;shape-rendering:auto;text-rendering:auto;stop-color:#000" transform="matrix(.90492 0 0 .90747 23.072 38.656)"/></g></svg>