<svg xmlns="http://www.w3.org/2000/svg" xmlns:xlink="http://www.w3.org/1999/xlink" width="512" height="512" viewBox="0 0 512 512"><title>Magic: Spells</title><defs><radialGradient xlink:href="#a" id="b" cx="257.404" cy="241.806" r="204.462" fx="257.404" fy="241.806" gradientTransform="matrix(1 0 0 .98572 0 3.454)" gradientUnits="userSpaceOnUse"/><linearGradient id="a"><stop offset="0" style="stop-color:#ced9e0;stop-opacity:1"/><stop offset="1" style="stop-color:#425a66;stop-opacity:1"/></linearGradient></defs><g style="stroke-width:1.54493;stroke-miterlimit:4;stroke-dasharray:none"><path d="M257.328-4.893a14.8 14.8 0 0 0-3.452.425l-.026.005a15 15 0 0 0-.93.261l-.007.002a15 15 0 0 0-.615.208l-.265.1-.04.015a15 15 0 0 0-.643.267l-.213.095-.044.022a15 15 0 0 0-1.12.576l-.042.025a16 16 0 0 0-.519.31l-.042.027a16 16 0 0 0-1.077.743l-.006.004a16 16 0 0 0-.519.409 16 16 0 0 0-.71.618l-.036.035-.203.193-.037.037a16 16 0 0 0-1.53 1.719l-.016.02a16 16 0 0 0-.364.493l-.004.004-.03.041a17 17 0 0 0-.668 1.03l-.06.097a17 17 0 0 0-.33.588 17 17 0 0 0-.284.552l-.022.047q-.137.279-.263.564v.002a17 17 0 0 0-.378.929l-.006.011-.017.047a17 17 0 0 0-.197.572l-.007.02-.013.038-.006.016-37.66 115.001H46.837c-14.474.005-21.19 18.927-10.27 28.938L158.772 262.2l-65.49 199.974c-2.31 7.059.168 14.872 6.042 19.048 5.873 4.177 13.677 3.676 19.026-1.222l139.051-127.42L396.455 480c5.349 4.898 13.153 5.4 19.026 1.222 5.874-4.176 8.352-11.99 6.043-19.048L356.033 262.2 478.24 150.213c10.918-10.01 4.202-28.933-10.271-28.938h-158.09L272.216 6.272l-.002-.008a17 17 0 0 0-.432-1.175l-.046-.115-.009-.023a17 17 0 0 0-.25-.57l-.023-.05a17 17 0 0 0-.39-.78 17 17 0 0 0-.907-1.514l-.029-.043a16.5 16.5 0 0 0-1.393-1.77l-.027-.032-.028-.03a16 16 0 0 0-.443-.466l-.015-.015a16 16 0 0 0-.722-.684l-.21-.184-.023-.02a16 16 0 0 0-1.237-.953l-.065-.047-.022-.016a15.5 15.5 0 0 0-2.23-1.27l-.021-.01-.11-.049a15 15 0 0 0-.808-.34l-.057-.022-.226-.083-.03-.012a15 15 0 0 0-.786-.257l-.133-.04q-.015-.005-.031-.009a15 15 0 0 0-2.518-.494 15 15 0 0 0-.792-.062l-.126-.008a15 15 0 0 0-.746-.014zm.074 67.054 19.362 59.114h-38.722Zm-168.713 92.1h105.435l-24.34 74.313zm138.55 0h60.327l31.982 97.656-62.146 56.946-62.144-56.946zm93.443 0h105.435l-81.096 74.313zM184.246 285.54l49.305 45.18-91.585 83.924zm146.314 0 42.28 129.104-91.585-83.924z" style="color:#000;font-style:normal;font-variant:normal;font-weight:400;font-stretch:normal;font-size:medium;line-height:normal;font-family:sans-serif;font-variant-ligatures:normal;font-variant-position:normal;font-variant-caps:normal;font-variant-numeric:normal;font-variant-alternates:normal;font-variant-east-asian:normal;font-feature-settings:normal;font-variation-settings:normal;text-indent:0;text-align:start;text-decoration:none;text-decoration-line:none;text-decoration-style:solid;text-decoration-color:#000;letter-spacing:normal;word-spacing:normal;text-transform:none;writing-mode:lr-tb;direction:ltr;text-orientation:mixed;dominant-baseline:auto;baseline-shift:baseline;text-anchor:start;white-space:normal;shape-padding:0;shape-margin:0;inline-size:0;clip-rule:nonzero;display:inline;overflow:visible;visibility:visible;isolation:auto;mix-blend-mode:normal;color-interpolation:sRGB;color-interpolation-filters:linearRGB;solid-color:#000;solid-opacity:1;vector-effect:none;fill:#425a66;fill-opacity:1;fill-rule:nonzero;stroke:none;stroke-width:33.1056;stroke-linecap:butt;stroke-linejoin:round;stroke-miterlimit:4;stroke-dasharray:none;stroke-dashoffset:0;stroke-opacity:1;paint-order:stroke fill markers;color-rendering:auto;image-rendering:auto;shape-rendering:auto;text-rendering:auto;stop-color:#000" transform="matrix(.90492 0 0 .90747 23.072 38.656)"/><path d="M214.035 40.265c-43.451 9.338-81.735 32.414-110.07 64.457h88.964zm86.734 0 21.108 64.457h88.965c-28.335-32.044-66.621-55.12-110.073-64.457m-169.515 130.55 30.789 28.214 9.24-28.214zm107.982 0-24.925 76.109 43.092 39.488 43.094-39.488-24.927-76.11zm104.285 0 9.24 28.212 30.789-28.212zM456.44 192.64l-81.355 74.55 35.259 107.66c32.056-35.986 51.522-83.374 51.522-135.344 0-16.132-1.882-31.82-5.426-46.866m-398.072.002a204.2 204.2 0 0 0-5.426 46.864c0 51.97 19.465 99.358 51.52 135.344l35.259-107.66zm133.62 122.443-14.63 44.675 31.694-29.04zm130.828 0-17.062 15.634 31.696 29.043zm-65.413 59.946-63.592 58.27c20.012 6.512 41.382 10.045 63.592 10.045s43.58-3.533 63.591-10.044z" style="color:#000;font-style:normal;font-variant:normal;font-weight:400;font-stretch:normal;font-size:medium;line-height:normal;font-family:sans-serif;font-variant-ligatures:normal;font-variant-position:normal;font-variant-caps:normal;font-variant-numeric:normal;font-variant-alternates:normal;font-variant-east-asian:normal;font-feature-settings:normal;font-variation-settings:normal;text-indent:0;text-align:start;text-decoration:none;text-decoration-line:none;text-decoration-style:solid;text-decoration-color:#000;letter-spacing:normal;word-spacing:normal;text-transform:none;writing-mode:lr-tb;direction:ltr;text-orientation:mixed;dominant-baseline:auto;baseline-shift:baseline;text-anchor:start;white-space:normal;shape-padding:0;shape-margin:0;inline-size:0;clip-rule:nonzero;display:inline;overflow:visible;visibility:visible;isolation:auto;mix-blend-mode:normal;color-interpolation:sRGB;color-interpolation-filters:linearRGB;solid-color:#000;solid-opacity:1;vector-effect:none;fill:url(#b);fill-opacity:1;fill-rule:evenodd;stroke:none;stroke-width:16.5529;stroke-linecap:round;stroke-linejoin:round;stroke-miterlimit:4;stroke-dasharray:none;stroke-dashoffset:0;stroke-opacity:1;paint-order:normal;color-rendering:auto;image-rendering:auto;shape-rendering:auto;text-rendering:auto;stop-color:#000" transform="matrix(.90492 0 0 .90747 23.072 38.656)"/></g></svg>