<svg xmlns="http://www.w3.org/2000/svg" width="512" height="512" viewBox="0 0 512 512"><title>Magic: Tricks</title><g style="stroke-width:1.54493;stroke-miterlimit:4;stroke-dasharray:none"><path d="M255.998 56C145.642 56 56 145.62 56 256s89.642 200 199.998 200c14.219 0 28.09-1.5 41.473-4.328-1.679 8.583 2.099 17.546 8.584 22.201 7.101 5.098 19.228 5.115 26.566-1.668a14.98 15.023 0 0 0 .004-.004l46.098-42.64 46.097 42.64a14.98 15.023 0 0 0 .004.004c7.338 6.783 19.467 6.766 26.569 1.668 7.101-5.097 10.976-15.363 7.97-24.637a14.98 15.023 0 0 0-.002-.004L435.84 376.73l42.379-39.2a14.98 15.023 0 0 0 .002-.003c13.58-12.568 4.686-37.87-14.309-37.877a14.98 15.023 0 0 0-.004 0h-12.72a200.3 200.3 0 0 0 4.8-43.248l.002-.02A7.49 7.51 0 0 0 456 256a7.49 7.51 0 0 0-.01-.35C455.8 145.432 366.237 56 255.998 56m0 15.021c102.285 0 185.023 82.74 185.023 184.979 0 15.041-1.805 29.655-5.185 43.65H410.83l-11.648-35.904.154.697a14.98 15.023 0 0 0-.379-1.392l-.031-.092-.022-.07a14.98 15.023 0 0 0-.072-.217q-.072-.203-.146-.404l-.002-.006-.15-.4a14.98 15.023 0 0 0-.014-.032l-.004-.008a14.98 15.023 0 0 0-.002-.011l-.037-.096-.022-.055-.033-.08a14.98 15.023 0 0 0-.076-.185l-.14-.332-.005-.008q-.074-.17-.15-.338l-.004-.008q-.011-.028-.024-.055a14.98 15.023 0 0 0-.013-.031q-.077-.167-.158-.334a14.98 15.023 0 0 0-.024-.049q-.094-.196-.193-.39a14.98 15.023 0 0 0-.002-.004q-.06-.118-.123-.235-.242-.463-.508-.916a14.98 15.023 0 0 0-.033-.058l-.006-.008-.041-.068-.123-.21a14.98 15.023 0 0 0-.06-.093l-.106-.168a14.98 15.023 0 0 0-.053-.08l-.004-.01-.021-.033-.182-.28a14.98 15.023 0 0 0-.1-.15l-.013-.02-.006-.007a22 22 0 0 0-.693-.967 14.98 15.023 0 0 0-.055-.07q-.115-.15-.233-.3l-.023-.027-.123-.152-.04-.05q-.045-.055-.089-.108a14.98 15.023 0 0 0-.047-.059 22 22 0 0 0-.467-.539 14.98 15.023 0 0 0-.115-.129q-.137-.152-.277-.302a14.98 15.023 0 0 0-.014-.014l-.158-.164-.01-.012-.137-.138a14.98 15.023 0 0 0-.039-.04l-.043-.044-.195-.194-.027-.027a22 22 0 0 0-.446-.422l.018.014q-.107-.098-.215-.194l-.084-.076-.18-.158a14.98 15.023 0 0 0-.107-.094q-.147-.127-.297-.252l-.013-.01-.24-.197a14.98 15.023 0 0 0-.106-.084q-.123-.097-.246-.193a14.98 15.023 0 0 0-.016-.012l-.062-.047a14.98 15.023 0 0 0-.057-.043q-.168-.127-.34-.252l-.014-.01-.103-.074a14.98 15.023 0 0 0-.078-.056l-.106-.077h-.002l-.007-.005a14.98 15.023 0 0 0-.092-.063l-.29-.195-.007-.006a22 22 0 0 0-.371-.242 14.98 15.023 0 0 0-.006-.004 21 21 0 0 0-.443-.276 14.98 15.023 0 0 0-.051-.029l-.336-.197-.016-.008-.01-.006a14.98 15.023 0 0 0-.01-.006l-.029-.017q-.135-.077-.271-.153a14.98 15.023 0 0 0-.09-.048q-.167-.091-.336-.178a14.98 15.023 0 0 0-.037-.02l-.062-.033q-.003 0-.006-.002a21 21 0 0 0-.682-.336 14.98 15.023 0 0 0-.133-.06l-.03-.014-.01-.006-.01-.006-.024-.007a14.98 15.023 0 0 0-.049-.024 14.98 15.023 0 0 0-.056-.025l-.02-.008-.096-.045a14.98 15.023 0 0 0-.05-.022 21 21 0 0 0-.817-.337l-.037-.016a14.98 15.023 0 0 0-.057-.022l-.173-.066h-.002a14.98 15.023 0 0 0-.141-.053 14.98 15.023 0 0 0-.121-.045q-.193-.068-.387-.132l-.027-.01-.274-.09a14.98 15.023 0 0 0-.082-.025l-.078-.026-.086-.025-.101-.031a14.98 15.023 0 0 0-.213-.065l-.024-.008-.043-.011-.34-.094a14.98 15.023 0 0 0-.027-.008l-.379-.098-.045-.01q-.2-.049-.4-.095a14.98 15.023 0 0 0-.004 0q-.2-.045-.4-.088a14.98 15.023 0 0 0-.104-.02l-.103-.019-.06-.012-.272-.049a14.98 15.023 0 0 0-.01-.002l-.383-.064a14.98 15.023 0 0 0-.039-.006l-.164-.023-.02-.004-.263-.037-.016-.002q-.22-.03-.441-.053a14.98 15.023 0 0 0-.11-.014q-.151-.014-.304-.027l-.022-.002q-.202-.019-.404-.033l-.035-.002a14.98 15.023 0 0 0-.067-.004h-.007l-.07-.006a14.98 15.023 0 0 0-.202-.01 14.98 15.023 0 0 0-.219-.011l-.326-.01h-.047l-.267-.006-.075-.002a14.98 15.023 0 0 0-.029 0h-.205a14.98 15.023 0 0 0-.008 0 14.98 15.023 0 0 0-.025 0h-.004q-.188.002-.377.008c-.111.003-.223.003-.334.008a14.98 15.023 0 0 0-.309.015 14.98 15.023 0 0 0-.11.008l-.093.006a14.98 15.023 0 0 0-.088.008l-.056.004a14.98 15.023 0 0 0-.19.013l-.068.006h-.002l-.11.01q-.2.017-.402.04a14.98 15.023 0 0 0-.06.007q-.194.021-.387.047a14.98 15.023 0 0 0-.07.01l-.196.027q-.298.044-.595.096a14.98 15.023 0 0 0-.04.005l-.306.057-.025.004a14.98 15.023 0 0 0-.032.008l-.027.006q-.07.013-.14.027a14.98 15.023 0 0 0-.057.012l-.385.082a14.98 15.023 0 0 0-.006.002q-.206.045-.41.095a14.98 15.023 0 0 0-.162.043l-.205.053q-.162.044-.323.09l.063-.02-.166.047a14.98 15.023 0 0 0-.195.059l-.02.006a14.98 15.023 0 0 0-.068.021q-.016.003-.031.008a14.98 15.023 0 0 0-.077.025 14.98 15.023 0 0 0-.045.014l-.1.031a14.98 15.023 0 0 0-.046.016q-.17.054-.34.111l-.008.002-.02.008-.17.06-.202.07a14.98 15.023 0 0 0-.108.04l-.35.133-.019.008a14.98 15.023 0 0 0-.07.025l-.36.146a14.98 15.023 0 0 0-.003.002l-.053.024-.09.037a14.98 15.023 0 0 0-.309.133l-.08.037q-.12.053-.238.107a14.98 15.023 0 0 0-.078.037 14.98 15.023 0 0 0-.272.13l-.097.048a14.98 15.023 0 0 0-.067.031l-.199.102-.033.016a14.98 15.023 0 0 0-.213.11q-.03.017-.06.032-.115.06-.229.123a14.98 15.023 0 0 0-.178.1l-.082.045-.101.058a14.98 15.023 0 0 0-.268.157h-.002a14.98 15.023 0 0 0-.004.002l-.058.035-.102.06-.021.014h-.002q-.151.093-.301.187a14.98 15.023 0 0 0-.11.069l-.005.004a14.98 15.023 0 0 0-.014.01l-.059.037q-.151.097-.302.197-.173.115-.342.232a14.98 15.023 0 0 0-.02.016q-.184.129-.367.262-.055.04-.11.082-.116.084-.232.172a14.98 15.023 0 0 0-.045.033q-.15.115-.298.234l-.063.049a14.98 15.023 0 0 0-.049.04l-.248.202q-.149.123-.295.248a14.98 15.023 0 0 0-.142.123l-.024.024q-.074.064-.146.129l-.03.025a14.98 15.023 0 0 0-.003.004l-.063.056-.227.21a14.98 15.023 0 0 0-.158.148l-.049.045-.144.14a14.98 15.023 0 0 0-.07.069l-.012.012a22 22 0 0 0-.41.416l-.02.02a14.98 15.023 0 0 0-.082.087l-.074.078a14.98 15.023 0 0 0-.117.123l-.172.19-.022.023-.058.068-.17.192a14.98 15.023 0 0 0-.115.133l-.043.05q-.082.095-.16.19-.09.107-.178.217l-.016.02-.031.038-.012.016a14.98 15.023 0 0 0-.076.096q-.096.12-.19.242l-.013.017a14.98 15.023 0 0 0-.076.1l-.032.04q-.019.027-.039.052a14.98 15.023 0 0 0-.128.175l-.024.032a14.98 15.023 0 0 0-.018.025l-.076.106a14.98 15.023 0 0 0-.074.1l-.039.054a14.98 15.023 0 0 0-.03.04 14.98 15.023 0 0 0-.08.116q-.101.146-.2.293l-.008.012-.002.004q-.084.125-.166.252l-.084.129a14.98 15.023 0 0 0-.002.004q-.06.094-.117.187l-.038.059a14.98 15.023 0 0 0-.08.129l-.062.103-.031.053a14.98 15.023 0 0 0-.012.02l-.01.015-.01.016-.04.068a14.98 15.023 0 0 0-.077.13l-.123.214-.033.056-.03.053-.03.057a14.98 15.023 0 0 0-.06.107l-.12.223-.022.039-.008.017q-.08.151-.16.303a14.98 15.023 0 0 0-.02.041l-.07.139q0 .001-.002.004l-.001.004q-.052.102-.1.205a14.98 15.023 0 0 0-.045.093q-.164.34-.314.682a14.98 15.023 0 0 0-.016.04q-.04.089-.078.179a14.98 15.023 0 0 0-.051.123l-.05.119a14.98 15.023 0 0 0-.003.01q-.07.17-.138.342l-.028.07a14.98 15.023 0 0 0-.017.045 14.98 15.023 0 0 0-.13.34l.075-.168.023-.05a14.98 15.023 0 0 0-.23.6 14.98 15.023 0 0 0-.004.008v.004l-.006.014q-.001.004-.004.01l-.01.033-.029.082a14.98 15.023 0 0 0-.025.08l-.018.053-.039.117.03-.094a14.98 15.023 0 0 0-.038.11l-11.869 36.587H293.54a14.98 15.023 0 0 0-.006 0c-18.995.008-27.888 25.31-14.308 37.877a14.98 15.023 0 0 0 .004.002l42.378 39.201-18.92 58.317c-14.912 3.868-30.556 5.932-46.689 5.932-102.285 0-185.02-82.74-185.02-184.979 0-102.238 82.735-184.979 185.02-184.979m122.697 192.122v.002h.06l.11.001.131.004.05.002.081.006.13.01.11.01.131.017.084.012.064.01.112.017.094.018.046.008.116.025.129.031q.063.014.127.032l.117.033q.006.001.011.004l.055.015.088.028.086.029.144.049.012.004q.045.016.09.035l.023.01q.061.022.122.047.06.025.12.052l.087.04.043.019.01.004.1.049.118.058.02.01.097.053.1.054.025.016.106.06.13.083q.057.035.112.072l.094.062.007.008q.015.009.028.018.045.031.09.064l.105.078.02.016.072.057.016.011.103.086.094.078.01.008.084.076.07.063q.072.066.142.135.041.04.08.08l.006.008.045.044.051.053q.043.045.084.092l.012.012.012.013.154.18.039.049.06.072a7 7 0 0 1 .309.422l.012.018.062.097.06.096.02.03q.026.042.051.085.008.011.014.024a7 7 0 0 1 .207.377l.06.123.051.105.008.02q.03.062.057.125l.045.107.003.01.02.047.035.091a6 6 0 0 1 .096.26l.008.022.035.107.002.004 15.236 46.963h63.953c5.855.002 8.574 7.728 4.156 11.816l-49.439 45.73 26.494 81.663c2.112 6.516-5.25 11.8-10.14 7.28l-56.254-52.034-56.252 52.033c-4.892 4.521-12.255-.763-10.143-7.279l26.494-81.662-49.437-45.73c-4.417-4.089-1.701-11.815 4.154-11.817h63.955l15.234-46.963.004-.006.004-.015.004-.008a7 7 0 0 1 .08-.235l.006-.02.002-.003.049-.125.043-.107.037-.09.025-.057v-.002q.051-.116.106-.23l.01-.018.033-.066q.01-.024.021-.047l.06-.113.048-.088.029-.051.057-.102.01-.015.013-.024.053-.086.037-.058.035-.057.027-.041.055-.082.065-.096.011-.017.002-.002.078-.11.069-.091.008-.008q.013-.019.027-.037l.058-.075.02-.023.068-.086.075-.088.013-.015.076-.086.079-.084.02-.022.087-.092.094-.095.015-.014.082-.08.016-.014.07-.064.02-.018.043-.039.06-.053.094-.078.072-.06.137-.108.002-.002.106-.078.109-.076q.053-.039.11-.076.054-.037.11-.072l.018-.012a7 7 0 0 1 .211-.127l.018-.01.078-.045.023-.013.114-.059.017-.01.053-.027.058-.03.108-.05.017-.01.086-.039.024-.01.031-.013q.05-.023.102-.043.052-.023.105-.043l.016-.006.107-.041.086-.03.057-.02.105-.034.004-.002.098-.03.03-.01.048-.013.092-.025.107-.028.012-.002.117-.029.11-.023.025-.004.047-.01a5 5 0 0 1 .265-.045l.088-.012.111-.013.13-.014.13-.01.02-.002q.03-.001.06-.004.025-.001.051-.004a5 5 0 0 1 .242-.005m.03 27.382-7.832 24.141h15.664zm-68.252 37.61 32.806 30.345 9.846-30.345zm56.048 0-12.937 39.879 25.14 23.254 25.141-23.254-12.937-39.88zm37.803 0 9.846 30.345 32.809-30.345zM377.4 343.156h2.649l6.601 20.346-7.925 7.33-7.924-7.33zm-28.271 38.588-17.104 52.72 37.051-34.27zm59.191 0-19.945 18.45 37.049 34.27z" style="color:#000;font-style:normal;font-variant:normal;font-weight:400;font-stretch:normal;font-size:medium;line-height:normal;font-family:sans-serif;font-variant-ligatures:normal;font-variant-position:normal;font-variant-caps:normal;font-variant-numeric:normal;font-variant-alternates:normal;font-variant-east-asian:normal;font-feature-settings:normal;font-variation-settings:normal;text-indent:0;text-align:start;text-decoration:none;text-decoration-line:none;text-decoration-style:solid;text-decoration-color:#000;letter-spacing:normal;word-spacing:normal;text-transform:none;writing-mode:lr-tb;direction:ltr;text-orientation:mixed;dominant-baseline:auto;baseline-shift:baseline;text-anchor:start;white-space:normal;shape-padding:0;shape-margin:0;inline-size:0;clip-rule:nonzero;display:inline;overflow:visible;visibility:visible;isolation:auto;mix-blend-mode:normal;color-interpolation:sRGB;color-interpolation-filters:linearRGB;solid-color:#000;solid-opacity:1;vector-effect:none;fill:#000100;fill-opacity:1;fill-rule:evenodd;stroke:none;stroke-width:15.0001;stroke-linecap:round;stroke-linejoin:round;stroke-miterlimit:4;stroke-dasharray:none;stroke-dashoffset:0;stroke-opacity:1;paint-order:normal;color-rendering:auto;image-rendering:auto;shape-rendering:auto;text-rendering:auto;stop-color:#000"/><path d="M255.998 71.021c-51.142 0-97.396 20.687-130.865 54.15a185.7 185.7 0 0 0-22.582 27.371 185 185 0 0 0-13.344 23.228 183.7 183.7 0 0 0-15.342 47.466 185 185 0 0 0-2.347 18.522 188 188 0 0 0-.479 19.02 188 188 0 0 0 .895 14.148q.71 7 1.931 13.838a183.683 183.683 0 0 0 19.424 55.441 185 185 0 0 0 17.121 26.031 185.7 185.7 0 0 0 21.145 22.715h.002q1.641 1.493 3.318 2.945h.002q1.676 1.454 3.389 2.868h.002a186 186 0 0 0 6.986 5.488h.002q1.78 1.332 3.592 2.621h.002a185 185 0 0 0 11.164 7.344h.002q1.905 1.159 3.841 2.271h.002q1.937 1.113 3.903 2.18h.002q1.965 1.067 3.959 2.088h.002q1.993 1.02 4.015 1.994h.002a184 184 0 0 0 20.875 8.518h.002q4.3 1.453 8.692 2.699h.001q2.196.623 4.413 1.193h.002q2.216.57 4.455 1.086h.002a185.7 185.7 0 0 0 37.035 4.672q2.383.06 4.781.06c1.834 0 3.66-.034 5.48-.087.575-.017 1.146-.043 1.72-.065a187 187 0 0 0 5.638-.297q2.07-.143 4.129-.332c.44-.04.881-.074 1.32-.117 1.845-.18 3.685-.383 5.514-.617 1.823-.234 3.637-.5 5.443-.787.355-.056.708-.118 1.063-.176a185 185 0 0 0 10.388-2.012c.158-.035.317-.066.475-.101q2.775-.63 5.517-1.34l18.92-58.317-42.378-39.2a14.98 15.023 0 0 1-.004-.003c-13.58-12.568-4.687-37.87 14.308-37.877a14.98 15.023 0 0 1 .006 0h53.076l11.87-36.587a14.98 15.023 0 0 1 .036-.11l-.029.094.04-.117.017-.053a14.98 15.023 0 0 1 .025-.08l.03-.082.01-.033q0-.006.003-.01l.006-.014v-.004a14.98 15.023 0 0 1 .004-.008 14.98 15.023 0 0 1 .23-.6l-.023.05-.074.168a14.98 15.023 0 0 1 .129-.34 14.98 15.023 0 0 1 .017-.045l.028-.07q.067-.173.138-.342a14.98 15.023 0 0 1 .002-.01l.051-.12a14.98 15.023 0 0 1 .05-.122l.079-.18a14.98 15.023 0 0 1 .016-.039q.15-.343.314-.682a14.98 15.023 0 0 1 .045-.093q.048-.103.1-.205l.001-.004.002-.004.07-.139a14.98 15.023 0 0 1 .02-.04q.08-.153.16-.304l.008-.017.022-.04.12-.222a14.98 15.023 0 0 1 .06-.107l.03-.057.03-.053.033-.056q.06-.107.123-.213a14.98 15.023 0 0 1 .076-.131l.041-.068.01-.016.01-.016a14.98 15.023 0 0 1 .012-.02l.03-.052q.032-.051.063-.103a14.98 15.023 0 0 1 .08-.13l.038-.058q.058-.094.117-.187a14.98 15.023 0 0 1 .002-.004l.084-.13.166-.251q0-.002.002-.004l.007-.012q.1-.147.202-.293a14.98 15.023 0 0 1 .08-.115 14.98 15.023 0 0 1 .029-.041l.04-.055a14.98 15.023 0 0 1 .073-.1q.039-.052.076-.105a14.98 15.023 0 0 1 .018-.025l.024-.031a14.98 15.023 0 0 1 .128-.176l.04-.051.03-.041a14.98 15.023 0 0 1 .077-.1l.014-.017q.093-.122.189-.242a14.98 15.023 0 0 1 .076-.096l.012-.016.031-.039.016-.02q.087-.109.178-.216.079-.095.16-.19l.043-.05a14.98 15.023 0 0 1 .115-.133l.17-.192.058-.068.022-.023.172-.19a14.98 15.023 0 0 1 .117-.123l.074-.078a14.98 15.023 0 0 1 .082-.088l.02-.02a21 21 0 0 1 .41-.415l.012-.012a14.98 15.023 0 0 1 .07-.069l.144-.14.05-.045a14.98 15.023 0 0 1 .157-.149l.227-.209c.022-.019.04-.037.063-.056a14.98 15.023 0 0 1 .003-.004l.03-.025.146-.13q.013-.012.024-.023a14.98 15.023 0 0 1 .142-.123q.147-.125.295-.248.123-.101.248-.201a14.98 15.023 0 0 1 .049-.041q.03-.025.063-.049.147-.119.298-.234a14.98 15.023 0 0 1 .045-.034q.116-.086.233-.171.054-.042.11-.082.18-.134.366-.262a14.98 15.023 0 0 1 .02-.016q.17-.118.342-.232.15-.1.302-.197l.059-.038a14.98 15.023 0 0 1 .014-.01l.005-.003a14.98 15.023 0 0 1 .11-.069q.15-.094.3-.187h.003l.021-.014.102-.06.058-.035a14.98 15.023 0 0 1 .004-.002h.002a14.98 15.023 0 0 1 .268-.157l.101-.058q.041-.023.082-.045a14.98 15.023 0 0 1 .178-.1l.228-.123.061-.031a14.98 15.023 0 0 1 .213-.111l.033-.016.2-.102a14.98 15.023 0 0 1 .066-.03l.097-.05a14.98 15.023 0 0 1 .272-.129 14.98 15.023 0 0 1 .078-.037l.238-.107.08-.037a14.98 15.023 0 0 1 .309-.133l.09-.037.053-.024a14.98 15.023 0 0 1 .003-.002q.18-.075.36-.146a14.98 15.023 0 0 1 .07-.025l.02-.008.011-.004q.169-.066.338-.129a14.98 15.023 0 0 1 .108-.04l.203-.07.17-.06.02-.008q.003 0 .007-.002.17-.057.34-.111a14.98 15.023 0 0 1 .047-.016l.1-.03a14.98 15.023 0 0 1 .044-.015 14.98 15.023 0 0 1 .077-.025q.015-.005.03-.008a14.98 15.023 0 0 1 .07-.021l.019-.006a14.98 15.023 0 0 1 .195-.059l.166-.047-.063.02q.161-.046.323-.09l.205-.053a14.98 15.023 0 0 1 .162-.043q.204-.049.41-.095a14.98 15.023 0 0 1 .006-.002q.192-.044.385-.082a14.98 15.023 0 0 1 .056-.012l.141-.027.027-.006a14.98 15.023 0 0 1 .032-.008l.025-.004q.153-.03.307-.057a14.98 15.023 0 0 1 .039-.005q.297-.053.595-.096l.196-.028a14.98 15.023 0 0 1 .07-.01q.193-.024.387-.046a14.98 15.023 0 0 1 .06-.008 20 20 0 0 1 .512-.049h.002l.068-.006a14.98 15.023 0 0 1 .19-.013l.056-.004a14.98 15.023 0 0 1 .088-.008l.092-.006a14.98 15.023 0 0 1 .111-.008 14.98 15.023 0 0 1 .309-.015q.167-.005.334-.008.188-.006.377-.008h.004a14.98 15.023 0 0 1 .025 0 14.98 15.023 0 0 1 .008 0h.205a14.98 15.023 0 0 1 .03 0l.074.002q.133.001.267.006h.047q.163.003.326.01a14.98 15.023 0 0 1 .219.011 14.98 15.023 0 0 1 .201.01l.07.006h.008a14.98 15.023 0 0 1 .067.004l.035.002q.203.015.404.033l.022.002q.153.013.304.027a14.98 15.023 0 0 1 .11.014q.22.023.441.053l.016.002q.132.017.263.037l.02.004.164.023a14.98 15.023 0 0 1 .04.006q.19.03.382.064a14.98 15.023 0 0 1 .01.002q.135.023.271.05l.06.01q.053.01.104.02a14.98 15.023 0 0 1 .104.02q.2.042.4.088a14.98 15.023 0 0 1 .004 0q.2.046.4.096l.045.01q.19.046.38.097a14.98 15.023 0 0 1 .027.008q.17.045.34.094l.042.011.024.008a14.98 15.023 0 0 1 .213.065l.101.03.086.026.078.026a14.98 15.023 0 0 1 .082.025l.274.09.027.01q.194.064.387.132a14.98 15.023 0 0 1 .121.045 14.98 15.023 0 0 1 .14.053h.003l.173.066a14.98 15.023 0 0 1 .057.022l.037.016a21 21 0 0 1 .817.337 14.98 15.023 0 0 1 .05.022l.096.045.02.008a14.98 15.023 0 0 1 .056.025 14.98 15.023 0 0 1 .049.024l.023.007.01.006.012.006.03.014a14.98 15.023 0 0 1 .132.06 21 21 0 0 1 .682.336l.006.002.062.033a14.98 15.023 0 0 1 .037.02q.169.087.336.178a14.98 15.023 0 0 1 .09.048q.136.075.271.153l.03.017a14.98 15.023 0 0 1 .01.006l.01.006.015.008q.169.097.336.197a14.98 15.023 0 0 1 .05.03q.224.135.444.275a14.98 15.023 0 0 1 .006.004q.186.12.37.242l.009.006.289.195a14.98 15.023 0 0 1 .092.063l.007.006h.002l.106.076a14.98 15.023 0 0 1 .078.056l.103.075.014.01q.172.123.34.251a14.98 15.023 0 0 1 .057.043l.062.047a14.98 15.023 0 0 1 .016.012q.123.096.246.193a14.98 15.023 0 0 1 .105.084q.12.099.24.197l.014.01q.15.125.297.252a14.98 15.023 0 0 1 .108.094l.18.158.083.076q.108.096.215.194l-.018-.014q.226.209.446.422l.027.027.195.194.043.044a14.98 15.023 0 0 1 .04.04l.136.138.01.012.158.164a14.98 15.023 0 0 1 .014.014q.14.15.277.302a14.98 15.023 0 0 1 .115.13q.239.265.467.538a14.98 15.023 0 0 1 .047.059l.09.107.039.051.123.152.023.028q.118.148.233.299a14.98 15.023 0 0 1 .055.07 22 22 0 0 1 .693.967l.006.008.013.02a14.98 15.023 0 0 1 .1.15q.092.138.182.279l.021.033.004.01a14.98 15.023 0 0 1 .053.08l.105.168a14.98 15.023 0 0 1 .06.094q.064.104.124.209l.04.068.007.008a14.98 15.023 0 0 1 .033.058q.265.453.508.916.062.117.123.235a14.98 15.023 0 0 1 .002.004q.099.194.193.39a14.98 15.023 0 0 1 .024.05q.08.166.158.333a14.98 15.023 0 0 1 .013.031q.013.027.024.055l.004.008q.076.168.15.338l.004.007q.072.166.14.333a14.98 15.023 0 0 1 .077.185l.033.08.022.055.037.096a14.98 15.023 0 0 1 .002.011l.004.008a14.98 15.023 0 0 1 .013.031q.077.2.15.4l.003.007q.075.2.146.404a14.98 15.023 0 0 1 .072.217l.022.07.031.092a14.98 15.023 0 0 1 .348 1.256l-.123-.56 11.648 35.903h25.006l.002-.007a185 185 0 0 0 3.814-21.09c.043-.353.08-.707.121-1.06a186 186 0 0 0 .553-5.5q.158-1.845.28-3.698.061-.918.115-1.838c.065-1.164.112-2.332.156-3.502.021-.571.05-1.14.066-1.713q.077-2.612.078-5.242a189 189 0 0 0-.539-14.242 186 186 0 0 0-2.347-18.522 184 184 0 0 0-5.424-22.271 183.6 183.6 0 0 0-11.912-29.211 185 185 0 0 0-8.903-15.49 185.82 185.82 0 0 0-38.164-43.027h-.002a186 186 0 0 0-6.986-5.489h-.002a185 185 0 0 0-22.506-14.416h-.002a184 184 0 0 0-3.959-2.088h-.002q-1.993-1.02-4.015-1.994h-.002c-24.27-11.683-51.49-18.229-80.258-18.229m122.697 192.122a6 6 0 0 0-.242.005l-.05.004-.061.004-.02.002a5 5 0 0 0-.26.022l-.11.013-.089.014a6 6 0 0 0-.265.045l-.047.008q-.01.002-.02.006h-.006l-.109.023-.117.027-.012.004-.107.028-.092.025-.049.014q-.014.003-.03.01-.048.014-.097.029l-.004.002-.105.033q-.03.01-.057.021l-.086.03-.107.04-.016.007q-.053.02-.105.043l-.102.043-.031.013-.024.01-.086.039-.005.002-.012.006-.108.053-.058.029-.053.027-.017.01q-.058.029-.114.059l-.023.013-.078.045-.018.01a6 6 0 0 0-.21.127l-.018.012a6 6 0 0 0-.436.302l-.002.002-.09.07q-.023.019-.047.036l-.072.06-.094.08-.06.053-.043.04-.02.017-.07.064-.016.014-.082.078v.002l-.015.014-.094.095-.088.092-.02.02v.002l-.078.084-.076.086-.013.015-.075.088-.068.086-.02.021v.002l-.058.075-.027.035v.002l-.008.008-.069.091-.078.11-.002.002-.011.015v.002l-.065.094v.002l-.055.082-.027.04v.001l-.035.057-.037.058-.053.086-.014.024-.01.015-.056.102-.03.05-.046.089q-.03.056-.06.113-.008.015-.014.031l-.008.014v.002q-.017.031-.033.064v.002l-.01.018a7 7 0 0 0-.106.23v.002l-.025.057-.037.088v.002l-.043.107-.049.125-.002.004-.006.02-.039.109v.002q-.022.06-.04.12v.005l-.005.006-.004.015-.004.006-15.234 46.961h-63.955c-.732 0-1.415.122-2.041.342a6 6 0 0 0-1.7.931 6.655 6.655 0 0 0-1.312 1.389 7.24 7.24 0 0 0-1.271 3.621 7 7 0 0 0-.004.983c.003.045.015.09.02.136.052.612.176 1.22.396 1.809.353.947.93 1.84 1.758 2.607l49.437 45.73-18.601 57.335-7.893 24.326c-2.112 6.516 5.251 11.8 10.143 7.28l56.252-52.034 56.254 52.033c4.89 4.521 12.252-.763 10.14-7.279l-26.494-81.66 49.44-45.73c4.417-4.089 1.7-11.817-4.155-11.819h-63.955l-15.236-46.96-.002-.005-.035-.107-.008-.022v-.002l-.047-.129q-.023-.065-.047-.128l-.037-.092-.02-.047-.003-.01-.045-.107-.057-.125-.008-.02-.049-.105q-.03-.063-.062-.123l-.047-.09v-.002a7 7 0 0 0-.158-.285l-.016-.024v-.002l-.05-.084v-.002q-.01-.014-.02-.027l-.06-.096-.063-.097-.012-.018a7 7 0 0 0-.309-.422l-.058-.074q-.02-.023-.041-.047a7 7 0 0 0-.154-.18l-.012-.013-.012-.012q-.041-.046-.084-.092l-.05-.053-.046-.044v-.002l-.005-.006-.08-.08a6 6 0 0 0-.297-.274l-.01-.008-.094-.08-.103-.084-.016-.011-.072-.059-.02-.014-.105-.078-.09-.064-.026-.02-.01-.006-.093-.062-.111-.072q-.065-.043-.131-.082-.052-.032-.106-.063l-.025-.014-.1-.054-.097-.053-.02-.01-.117-.06-.102-.05-.01-.001q-.021-.01-.042-.022l-.086-.039-.121-.05-.122-.05-.023-.007-.09-.035-.012-.004-.144-.049-.086-.03-.088-.027-.055-.017-.011-.002-.117-.033-.127-.034-.13-.029-.115-.025-.046-.008-.094-.018-.112-.02-.062-.009-.086-.012-.24-.025-.131-.01-.08-.006q-.026-.001-.05-.004l-.132-.003h-.17zm.03 27.382 7.832 24.14h-15.664zm-68.252 37.61h42.652l-9.846 30.345zm56.05 0h24.405l12.767 39.353.17.526-1.965 1.816q0 .003-.004.004l-23.171 21.434-25.141-23.254zm37.801 0h42.655l-32.807 30.345-1.365-4.203zM377.4 343.156l-6.6 20.346 7.925 7.33 7.925-7.33-6.601-20.346zm-28.271 38.588 19.947 18.45-10.887 10.07-26.164 24.2 3.723-11.476zm59.191 0 17.106 52.72-37.051-34.27z" style="color:#000;font-style:normal;font-variant:normal;font-weight:400;font-stretch:normal;font-size:medium;line-height:normal;font-family:sans-serif;font-variant-ligatures:normal;font-variant-position:normal;font-variant-caps:normal;font-variant-numeric:normal;font-variant-alternates:normal;font-variant-east-asian:normal;font-feature-settings:normal;font-variation-settings:normal;text-indent:0;text-align:start;text-decoration:none;text-decoration-line:none;text-decoration-style:solid;text-decoration-color:#000;letter-spacing:normal;word-spacing:normal;text-transform:none;writing-mode:lr-tb;direction:ltr;text-orientation:mixed;dominant-baseline:auto;baseline-shift:baseline;text-anchor:start;white-space:normal;shape-padding:0;shape-margin:0;inline-size:0;clip-rule:nonzero;display:inline;overflow:visible;visibility:visible;isolation:auto;mix-blend-mode:normal;color-interpolation:sRGB;color-interpolation-filters:linearRGB;solid-color:#000;solid-opacity:1;vector-effect:none;fill:#fff;fill-opacity:1;fill-rule:evenodd;stroke:none;stroke-width:15.0001;stroke-linecap:round;stroke-linejoin:round;stroke-miterlimit:4;stroke-dasharray:none;stroke-dashoffset:0;stroke-opacity:1;paint-order:normal;color-rendering:auto;image-rendering:auto;shape-rendering:auto;text-rendering:auto;stop-color:#000"/></g></svg>