<svg xmlns="http://www.w3.org/2000/svg" width="512" height="512" viewBox="0 0 512 512"><title>Magic: Spells</title><g style="stroke-width:1.54493;stroke-miterlimit:4;stroke-dasharray:none"><path d="M256 71.021c-2.142 0-4.272.05-6.396.122l-4.418 13.529a14.98 15.023 0 0 1 21.628.004l-4.42-13.533A189 189 0 0 0 256 71.02m-39.244 4.174c-39.32 8.473-73.963 29.414-99.604 58.493h80.504zm78.486 0 19.102 58.493h80.506c-25.642-29.08-60.287-50.02-99.608-58.493m-71.61 75.483-.882 2.705a14.98 15.023 0 0 1-14.238 10.347h-7.989a14.98 15.023 0 0 1 13.063 12.948l.885-2.711a14.98 15.023 0 0 1 14.234-10.344h7.99a14.98 15.023 0 0 1-13.062-12.945m64.735 0a14.98 15.023 0 0 1-13.06 12.945h7.988a14.98 15.023 0 0 1 14.234 10.344l.885 2.709a14.98 15.023 0 0 1 13.057-12.946h-7.985a14.98 15.023 0 0 1-14.234-10.347zM95.564 163.73a185 185 0 0 0-1.947 3.479 14.98 15.023 0 0 1 7.92-3.479zm314.897 0a14.98 15.023 0 0 1 7.926 3.483q-.958-1.752-1.951-3.483zm13.143 13.778a14.98 15.023 0 0 1-1.807 8.37l3.95-3.628a184 184 0 0 0-2.143-4.742m-335.208.002a184 184 0 0 0-2.14 4.74l3.945 3.627a14.98 15.023 0 0 1-1.805-8.367m53.45 16.154 27.861 25.604 8.361-25.604zm97.715 0-22.555 69.066L256 298.564l38.996-35.834-22.557-69.066zm94.369 0 8.361 25.602 27.861-25.602zm102.181 19.807-73.619 67.652 31.906 97.697c29.009-32.656 46.623-75.659 46.623-122.82 0-14.64-1.703-28.875-4.91-42.53m-360.22.002A185.8 185.8 0 0 0 70.98 256c0 47.16 17.613 90.165 46.62 122.82l31.907-97.697zm111.634 42.998a14.98 15.023 0 0 1-16.857 3.35l6.201 5.699a14.98 15.023 0 0 1 4.113 15.748l-1.996 6.113a14.98 15.023 0 0 1 16.852-3.352l-6.193-5.693a14.98 15.023 0 0 1-4.116-15.748zm136.95.002 1.996 6.115a14.98 15.023 0 0 1-4.116 15.748l-6.199 5.695a14.98 15.023 0 0 1 16.858 3.352l-1.996-6.115a14.98 15.023 0 0 1 4.113-15.748l6.201-5.7a14.98 15.023 0 0 1-16.857-3.347m-127.67 68.113-13.239 40.541 28.68-26.354zm118.388 0-15.44 14.187 28.683 26.356zm-67.841 6.615a14.98 15.023 0 0 1-.002 15.147 14.98 15.023 0 0 1 17.298 0 14.98 15.023 0 0 1 .002-15.147 14.98 15.023 0 0 1-17.298 0M256 378.984l-57.545 52.88c18.11 5.908 37.447 9.115 57.545 9.115s39.436-3.207 57.545-9.116z" style="color:#000;font-style:normal;font-variant:normal;font-weight:400;font-stretch:normal;font-size:medium;line-height:normal;font-family:sans-serif;font-variant-ligatures:normal;font-variant-position:normal;font-variant-caps:normal;font-variant-numeric:normal;font-variant-alternates:normal;font-variant-east-asian:normal;font-feature-settings:normal;font-variation-settings:normal;text-indent:0;text-align:start;text-decoration:none;text-decoration-line:none;text-decoration-style:solid;text-decoration-color:#000;letter-spacing:normal;word-spacing:normal;text-transform:none;writing-mode:lr-tb;direction:ltr;text-orientation:mixed;dominant-baseline:auto;baseline-shift:baseline;text-anchor:start;white-space:normal;shape-padding:0;shape-margin:0;inline-size:0;clip-rule:nonzero;display:inline;overflow:visible;visibility:visible;isolation:auto;mix-blend-mode:normal;color-interpolation:sRGB;color-interpolation-filters:linearRGB;solid-color:#000;solid-opacity:1;vector-effect:none;fill:#fff;fill-opacity:1;fill-rule:evenodd;stroke:none;stroke-width:15.0001;stroke-linecap:round;stroke-linejoin:round;stroke-miterlimit:4;stroke-dasharray:none;stroke-dashoffset:0;stroke-opacity:1;paint-order:normal;color-rendering:auto;image-rendering:auto;shape-rendering:auto;text-rendering:auto;stop-color:#000"/><path d="M257.328-4.893a14.8 14.8 0 0 0-3.452.425l-.026.005a15 15 0 0 0-.93.261l-.007.002a15 15 0 0 0-.615.208l-.265.1-.04.015a15 15 0 0 0-.643.267l-.213.095-.044.022a15 15 0 0 0-1.12.576l-.042.025a16 16 0 0 0-.519.31l-.042.027a16 16 0 0 0-1.077.743l-.006.004a16 16 0 0 0-.519.409 16 16 0 0 0-.71.618l-.036.035-.203.193-.037.037a16 16 0 0 0-1.53 1.719l-.016.02a16 16 0 0 0-.364.493l-.004.004-.03.041a17 17 0 0 0-.668 1.03l-.06.097a17 17 0 0 0-.33.588 17 17 0 0 0-.284.552l-.022.047q-.137.279-.263.564v.002a17 17 0 0 0-.378.929l-.006.011-.017.047a17 17 0 0 0-.197.572l-.007.02-.013.038-.006.016-37.66 115.001H46.837c-14.474.005-21.19 18.927-10.27 28.938L158.772 262.2l-65.49 199.974c-2.31 7.059.168 14.872 6.042 19.048 5.873 4.177 13.677 3.676 19.026-1.222l139.051-127.42L396.455 480c5.349 4.898 13.152 5.4 19.026 1.222 5.874-4.176 8.352-11.99 6.043-19.048L356.033 262.2 478.24 150.213c10.918-10.01 4.202-28.933-10.271-28.938h-158.09L272.216 6.272l-.002-.008a17 17 0 0 0-.432-1.175l-.046-.115-.009-.023a17 17 0 0 0-.25-.57l-.023-.05a17 17 0 0 0-.39-.78 17 17 0 0 0-.907-1.514l-.029-.043a16.5 16.5 0 0 0-1.393-1.77l-.027-.032-.028-.03a16 16 0 0 0-.443-.466l-.015-.015a16 16 0 0 0-.722-.684l-.21-.184-.023-.02a16 16 0 0 0-1.237-.953l-.065-.047-.022-.016a15.5 15.5 0 0 0-2.23-1.27l-.021-.01-.11-.049a15 15 0 0 0-.808-.34l-.057-.022-.226-.083-.03-.012a15 15 0 0 0-.786-.257l-.133-.04q-.015-.005-.031-.009a15 15 0 0 0-2.518-.494 15 15 0 0 0-.792-.062l-.126-.008a15 15 0 0 0-.746-.014zm.074 67.054 19.362 59.114h-38.722Zm-168.713 92.1h105.435l-24.34 74.313zm138.55 0h60.327l31.982 97.656-62.146 56.946-62.144-56.946zm93.443 0h105.435l-81.096 74.313zM184.246 285.54l49.305 45.18-91.585 83.924zm146.314 0 42.28 129.104-91.585-83.924z" style="color:#000;font-style:normal;font-variant:normal;font-weight:400;font-stretch:normal;font-size:medium;line-height:normal;font-family:sans-serif;font-variant-ligatures:normal;font-variant-position:normal;font-variant-caps:normal;font-variant-numeric:normal;font-variant-alternates:normal;font-variant-east-asian:normal;font-feature-settings:normal;font-variation-settings:normal;text-indent:0;text-align:start;text-decoration:none;text-decoration-line:none;text-decoration-style:solid;text-decoration-color:#000;letter-spacing:normal;word-spacing:normal;text-transform:none;writing-mode:lr-tb;direction:ltr;text-orientation:mixed;dominant-baseline:auto;baseline-shift:baseline;text-anchor:start;white-space:normal;shape-padding:0;shape-margin:0;inline-size:0;clip-rule:nonzero;display:inline;overflow:visible;visibility:visible;isolation:auto;mix-blend-mode:normal;color-interpolation:sRGB;color-interpolation-filters:linearRGB;solid-color:#000;solid-opacity:1;vector-effect:none;fill:#fff;fill-opacity:1;fill-rule:nonzero;stroke:none;stroke-width:33.1056;stroke-linecap:butt;stroke-linejoin:round;stroke-miterlimit:4;stroke-dasharray:none;stroke-dashoffset:0;stroke-opacity:1;paint-order:stroke fill markers;color-rendering:auto;image-rendering:auto;shape-rendering:auto;text-rendering:auto;stop-color:#000" transform="matrix(.90492 0 0 .90747 23.072 38.656)"/></g></svg>