<svg xmlns="http://www.w3.org/2000/svg" xmlns:xlink="http://www.w3.org/1999/xlink" width="512" height="512" viewBox="0 0 512 512"><title>Magic: Tricks</title><defs><radialGradient xlink:href="#a" id="b" cx="256.003" cy="256" r="185.024" fx="256.003" fy="256" gradientTransform="matrix(1 0 0 .99975 0 .063)" gradientUnits="userSpaceOnUse"/><linearGradient id="a"><stop offset="0" style="stop-color:#ced9e0;stop-opacity:1"/><stop offset="1" style="stop-color:#425a66;stop-opacity:1"/></linearGradient></defs><g style="stroke-width:1.54493;stroke-miterlimit:4;stroke-dasharray:none"><path d="m392.997 247.38-.002.002a7 7 0 0 0-.268.006l-.056.004-.067.004-.022.002-.144.011-.143.013q-.06.008-.123.015l-.097.015a6 6 0 0 0-.293.05l-.052.009q-.011.004-.022.006h-.006l-.12.025-.13.03-.013.004-.119.03-.101.029-.054.015q-.017.006-.033.013l-.108.032h-.004l-.116.036-.063.024-.095.032q-.06.022-.118.046l-.018.009-.116.047-.113.047q-.016.008-.034.015l-.026.011-.095.043-.006.002q-.007.002-.013.006l-.119.058-.064.033-.059.03q-.01.006-.019.01l-.125.065-.026.015q-.044.024-.086.05l-.02.01a6 6 0 0 0-.233.14q-.01.007-.02.013a7 7 0 0 0-.48.334l-.003.002-.099.077-.052.04-.08.066-.103.088-.067.058-.048.043-.021.02-.078.07-.017.016-.09.086v.002l-.018.015-.104.105-.097.102-.021.021v.002q-.044.046-.087.093l-.084.094-.015.017-.082.097-.075.095-.022.024v.002l-.065.081-.03.04v.001l-.01.01-.075.1-.086.12-.002.003q-.007.008-.013.017v.002l-.071.103v.002l-.06.09q-.016.023-.03.044v.002l-.04.062-.04.065-.059.095-.015.025-.01.018q-.032.055-.063.111l-.033.056-.051.097-.067.125q-.008.017-.015.035-.003.008-.01.015v.002q-.017.036-.036.07v.003q-.006.01-.01.02-.062.125-.117.253v.002l-.029.062-.04.097v.002l-.048.119q-.028.068-.054.137l-.002.004q-.002.011-.006.022-.023.06-.043.12v.002l-.045.134v.004l-.004.006-.004.017-.004.006-16.836 51.75h-70.678c-.808 0-1.563.134-2.255.376a6.6 6.6 0 0 0-1.878 1.027 7.333 7.333 0 0 0-1.45 1.53 7.96 7.96 0 0 0-1.41 5.073c.004.05.018.1.022.15.058.674.196 1.345.438 1.994a7.4 7.4 0 0 0 1.943 2.873l54.632 50.394-20.556 63.18-8.722 26.807c-2.334 7.18 5.803 13.003 11.208 8.021l62.163-57.339 62.165 57.34c5.405 4.981 13.54-.842 11.206-8.022l-29.276-89.992 54.635-50.393c4.88-4.505 1.88-13.021-4.591-13.024H416.49l-16.838-51.75-.002-.003q-.019-.06-.039-.119l-.009-.023v-.002q-.025-.072-.051-.142l-.052-.142-.041-.102-.022-.051-.004-.011q-.023-.06-.05-.118-.03-.07-.062-.138l-.01-.022-.053-.116q-.034-.067-.07-.135-.024-.05-.051-.1v-.001a8 8 0 0 0-.175-.315q-.008-.013-.017-.026v-.002l-.056-.092v-.002q-.011-.015-.022-.028l-.067-.105q-.034-.056-.069-.11l-.013-.02a8 8 0 0 0-.34-.465l-.065-.081-.046-.052a7 7 0 0 0-.17-.198q-.007-.008-.013-.015-.007-.007-.013-.013-.046-.051-.093-.101l-.056-.058-.05-.05-.006-.009-.088-.088-.158-.149-.078-.07-.092-.082-.011-.01-.104-.088-.114-.092q-.01-.007-.017-.013l-.08-.065q-.011-.008-.022-.015l-.117-.086-.099-.07-.028-.022-.01-.006-.104-.07-.123-.079q-.072-.046-.145-.09l-.117-.07-.028-.014q-.054-.03-.11-.06-.053-.03-.108-.059-.01-.007-.021-.013-.064-.034-.13-.066l-.112-.054h-.013q-.024-.011-.047-.024l-.095-.045q-.068-.029-.134-.056l-.134-.054-.026-.009q-.048-.02-.097-.038-.007-.002-.013-.004-.08-.03-.16-.054l-.095-.033-.097-.03-.06-.019h-.013l-.13-.037q-.068-.019-.14-.036l-.142-.035-.128-.028-.051-.009-.104-.019-.123-.022q-.034-.007-.07-.01-.046-.009-.094-.013l-.145-.017-.12-.011-.145-.011-.089-.006-.056-.004-.144-.004h-.188zm.03 30.177 8.655 26.6h-17.31zm-75.424 41.445h47.134l-10.88 33.44zm61.94 0h26.97l14.108 43.366.188.58-2.171 2-.004.005-25.607 23.619-27.782-25.625zm41.773 0h47.136l-36.253 33.44-1.509-4.632zm-60.995 59.076 22.043 20.33-12.03 11.097-28.913 26.67 4.113-12.647zm65.411 0 18.903 58.096-40.944-37.766z" style="color:#000;font-style:normal;font-variant:normal;font-weight:400;font-stretch:normal;font-size:medium;line-height:normal;font-family:sans-serif;font-variant-ligatures:normal;font-variant-position:normal;font-variant-caps:normal;font-variant-numeric:normal;font-variant-alternates:normal;font-variant-east-asian:normal;font-feature-settings:normal;font-variation-settings:normal;text-indent:0;text-align:start;text-decoration:none;text-decoration-line:none;text-decoration-style:solid;text-decoration-color:#000;letter-spacing:normal;word-spacing:normal;text-transform:none;writing-mode:lr-tb;direction:ltr;text-orientation:mixed;dominant-baseline:auto;baseline-shift:baseline;text-anchor:start;white-space:normal;shape-padding:0;shape-margin:0;inline-size:0;clip-rule:nonzero;display:inline;overflow:visible;visibility:visible;isolation:auto;mix-blend-mode:normal;color-interpolation:sRGB;color-interpolation-filters:linearRGB;solid-color:#000;solid-opacity:1;vector-effect:none;fill:#425a66;fill-opacity:1;fill-rule:evenodd;stroke:none;stroke-width:16.5529;stroke-linecap:round;stroke-linejoin:round;stroke-miterlimit:4;stroke-dasharray:none;stroke-dashoffset:0;stroke-opacity:1;paint-order:normal;color-rendering:auto;image-rendering:auto;shape-rendering:auto;text-rendering:auto;stop-color:#000" transform="matrix(.90492 0 0 .90747 23.072 38.656)"/><path d="M255.998 71.021c-51.142 0-97.396 20.687-130.865 54.15a185.7 185.7 0 0 0-22.582 27.371 185 185 0 0 0-13.344 23.228 183.7 183.7 0 0 0-15.342 47.466 185 185 0 0 0-2.347 18.522 188 188 0 0 0-.479 19.02 188 188 0 0 0 .895 14.148q.71 7 1.931 13.838a183.683 183.683 0 0 0 19.424 55.441 185 185 0 0 0 17.121 26.031 185.7 185.7 0 0 0 21.145 22.715h.002q1.641 1.493 3.318 2.945h.002q1.676 1.454 3.389 2.868h.002a186 186 0 0 0 6.986 5.488h.002q1.78 1.332 3.592 2.621h.002a185 185 0 0 0 11.164 7.344h.002q1.905 1.159 3.841 2.271h.002q1.937 1.113 3.903 2.18h.002q1.965 1.067 3.959 2.088h.002q1.993 1.02 4.015 1.994h.002a184 184 0 0 0 20.875 8.518h.002q4.3 1.453 8.692 2.699h.001q2.196.623 4.413 1.193h.002q2.216.57 4.455 1.086h.002a185.7 185.7 0 0 0 37.035 4.672q2.383.06 4.781.06c1.834 0 3.66-.034 5.48-.087.575-.017 1.146-.043 1.72-.065a187 187 0 0 0 5.638-.297q2.07-.143 4.129-.332c.44-.04.881-.074 1.32-.117 1.845-.18 3.685-.383 5.514-.617 1.823-.234 3.637-.5 5.443-.787.355-.056.708-.118 1.063-.176a185 185 0 0 0 10.388-2.012c.158-.035.317-.066.475-.101q2.775-.63 5.517-1.34l18.92-58.317-42.378-39.2a14.98 15.023 0 0 1-.004-.003c-13.58-12.568-4.687-37.87 14.308-37.877a14.98 15.023 0 0 1 .006 0h53.076l11.87-36.587a14.98 15.023 0 0 1 .036-.11l-.029.094.04-.117.017-.053a14.98 15.023 0 0 1 .025-.08l.03-.082.011-.033.004-.01.006-.014v-.004a14.98 15.023 0 0 1 .004-.008 14.98 15.023 0 0 1 .23-.6l-.023.05-.074.168a14.98 15.023 0 0 1 .129-.34 14.98 15.023 0 0 1 .017-.045l.028-.07q.067-.173.138-.342a14.98 15.023 0 0 1 .002-.01l.051-.12a14.98 15.023 0 0 1 .05-.122l.079-.18a14.98 15.023 0 0 1 .015-.039q.152-.343.315-.682a14.98 15.023 0 0 1 .045-.093q.048-.103.1-.205l.001-.004.002-.004.07-.139a14.98 15.023 0 0 1 .02-.04q.08-.153.16-.304l.008-.017.022-.041.12-.223a14.98 15.023 0 0 1 .06-.107l.03-.055.03-.053q.016-.029.033-.056.06-.107.123-.213a14.98 15.023 0 0 1 .076-.131l.041-.068.01-.016.01-.016a14.98 15.023 0 0 1 .012-.02l.03-.052q.032-.051.063-.103a14.98 15.023 0 0 1 .08-.13l.038-.058q.058-.094.117-.187a14.98 15.023 0 0 1 .002-.004l.084-.13.166-.251q0-.003.002-.006l.007-.012q.1-.147.202-.293a14.98 15.023 0 0 1 .08-.115 14.98 15.023 0 0 1 .029-.04l.039-.056a14.98 15.023 0 0 1 .074-.097q.037-.054.076-.108a14.98 15.023 0 0 1 .018-.025l.023-.03a14.98 15.023 0 0 1 .13-.175l.038-.051.032-.041a14.98 15.023 0 0 1 .076-.1l.014-.017q.093-.122.189-.242a14.98 15.023 0 0 1 .076-.096l.012-.016.031-.039.016-.02.177-.216.16-.19.044-.05a14.98 15.023 0 0 1 .115-.133l.17-.192.058-.068.022-.023.172-.19a14.98 15.023 0 0 1 .117-.123l.074-.078a14.98 15.023 0 0 1 .082-.088l.02-.02a24 24 0 0 1 .41-.415l.012-.012a14.98 15.023 0 0 1 .07-.069l.144-.14.05-.045a14.98 15.023 0 0 1 .157-.149l.227-.209.062-.056a14.98 15.023 0 0 1 .004-.004l.03-.025.146-.13q.012-.01.024-.023a14.98 15.023 0 0 1 .142-.123q.147-.125.295-.248.123-.101.248-.201a14.98 15.023 0 0 1 .049-.041l.062-.049q.149-.119.3-.234a14.98 15.023 0 0 1 .044-.034q.116-.086.233-.171.054-.042.109-.082.183-.134.367-.262a14.98 15.023 0 0 1 .02-.016q.17-.118.342-.232.15-.1.302-.197l.059-.038a14.98 15.023 0 0 1 .014-.011l.005-.004a14.98 15.023 0 0 1 .11-.069q.15-.094.3-.187h.003l.021-.014.102-.06.058-.035a14.98 15.023 0 0 1 .004-.002h.002a14.98 15.023 0 0 1 .268-.157l.101-.058q.041-.023.082-.045a14.98 15.023 0 0 1 .178-.1l.228-.123.061-.031a14.98 15.023 0 0 1 .213-.111q.016-.008.033-.016l.2-.102a14.98 15.023 0 0 1 .066-.03l.097-.05a14.98 15.023 0 0 1 .272-.129 14.98 15.023 0 0 1 .078-.037l.238-.107.08-.037a14.98 15.023 0 0 1 .309-.133l.09-.037.053-.024a14.98 15.023 0 0 1 .003-.001q.18-.076.36-.147a14.98 15.023 0 0 1 .07-.025l.02-.008.011-.004q.169-.066.338-.129a14.98 15.023 0 0 1 .108-.04l.203-.07.17-.06.02-.008q.003 0 .007-.002.17-.057.34-.111a14.98 15.023 0 0 1 .047-.016l.1-.03a14.98 15.023 0 0 1 .044-.015 14.98 15.023 0 0 1 .076-.025q.016-.005.032-.008a14.98 15.023 0 0 1 .068-.021l.02-.006a14.98 15.023 0 0 1 .195-.059l.166-.047-.063.02q.161-.046.323-.09l.205-.053a14.98 15.023 0 0 1 .162-.043q.204-.049.41-.095a14.98 15.023 0 0 1 .006-.002q.192-.044.385-.082a14.98 15.023 0 0 1 .056-.012l.14-.027.028-.006a14.98 15.023 0 0 1 .032-.008l.025-.004q.153-.03.307-.057a14.98 15.023 0 0 1 .039-.005q.297-.052.595-.096l.196-.027a14.98 15.023 0 0 1 .07-.01q.193-.025.387-.047a14.98 15.023 0 0 1 .06-.008q.202-.022.403-.039.054-.007.109-.012h.002l.068-.006a14.98 15.023 0 0 1 .19-.013l.056-.004a14.98 15.023 0 0 1 .088-.008l.092-.006a14.98 15.023 0 0 1 .111-.008 14.98 15.023 0 0 1 .309-.015c.111-.005.223-.005.334-.008q.189-.006.377-.008h.006a14.98 15.023 0 0 1 .025 0 14.98 15.023 0 0 1 .008 0h.205a14.98 15.023 0 0 1 .03 0l.074.002.267.006h.047q.163.003.326.01a14.98 15.023 0 0 1 .219.011 14.98 15.023 0 0 1 .201.01l.07.006h.008a14.98 15.023 0 0 1 .067.004q.016 0 .035.002.202.014.404.033l.022.002q.152.014.304.027a14.98 15.023 0 0 1 .11.014q.22.024.441.053l.016.002q.131.017.263.037l.02.004.164.023a14.98 15.023 0 0 1 .039.008q.192.03.383.063a14.98 15.023 0 0 1 .01.003q.135.023.271.047l.06.012q.053.01.104.02a14.98 15.023 0 0 1 .104.02q.2.041.4.087a14.98 15.023 0 0 1 .004 0q.2.046.4.096l.045.011q.19.048.38.098a14.98 15.023 0 0 1 .026.008q.172.045.34.094l.043.011.024.008a14.98 15.023 0 0 1 .213.065l.101.03.086.026.078.026a14.98 15.023 0 0 1 .082.025l.274.09.027.01q.194.064.387.132a14.98 15.023 0 0 1 .12.045 14.98 15.023 0 0 1 .142.053h.001l.174.067a14.98 15.023 0 0 1 .057.021l.037.016a22 22 0 0 1 .816.338 14.98 15.023 0 0 1 .051.021l.096.045.02.008a14.98 15.023 0 0 1 .056.025 14.98 15.023 0 0 1 .049.024c.008.004.016.003.023.007l.01.006.012.006.03.014a14.98 15.023 0 0 1 .132.06 21 21 0 0 1 .682.336l.005.002.063.033a14.98 15.023 0 0 1 .037.02q.169.087.336.178a14.98 15.023 0 0 1 .09.049q.136.075.271.152l.03.017a14.98 15.023 0 0 1 .01.006l.01.006.015.008q.169.097.336.197a14.98 15.023 0 0 1 .05.03q.224.135.444.275a14.98 15.023 0 0 1 .006.004q.187.12.37.242l.009.008.289.195a14.98 15.023 0 0 1 .091.063l.008.006h.002l.106.076a14.98 15.023 0 0 1 .078.056l.103.075.014.01q.172.123.342.251a14.98 15.023 0 0 1 .055.043l.062.047a14.98 15.023 0 0 1 .016.012q.123.096.246.193a14.98 15.023 0 0 1 .105.084l.24.197.014.01q.15.125.297.252a14.98 15.023 0 0 1 .107.094l.18.158.084.076q.108.096.215.194l-.018-.014q.226.209.446.422l.027.027.195.194.043.044a14.98 15.023 0 0 1 .041.04l.137.138.01.012.158.164a14.98 15.023 0 0 1 .014.014q.14.15.277.302a14.98 15.023 0 0 1 .115.13q.239.265.467.538a14.98 15.023 0 0 1 .047.059l.09.107.039.051.123.152.023.028q.118.148.233.299a14.98 15.023 0 0 1 .054.07 22 22 0 0 1 .694.967l.006.008.013.02a14.98 15.023 0 0 1 .1.15q.091.138.182.279l.021.033.004.01a14.98 15.023 0 0 1 .053.08l.105.168a14.98 15.023 0 0 1 .06.094q.063.104.124.209l.04.068.007.008a14.98 15.023 0 0 1 .033.058q.265.453.508.916.062.117.123.235a14.98 15.023 0 0 1 .002.004q.099.194.193.39a14.98 15.023 0 0 1 .023.05q.081.166.159.333a14.98 15.023 0 0 1 .013.031l.024.055.004.008.15.338.004.007q.072.166.14.333a14.98 15.023 0 0 1 .077.185l.033.08.021.055.038.096a14.98 15.023 0 0 1 .001.011l.004.008a14.98 15.023 0 0 1 .014.031q.077.2.15.4l.002.009q.076.2.147.404a14.98 15.023 0 0 1 .072.217l.022.07q.016.045.03.092a14.98 15.023 0 0 1 .349 1.256l-.123-.561 11.648 35.904h25.006q0-.004.002-.01a185 185 0 0 0 3.814-21.09c.043-.352.08-.706.121-1.06a186 186 0 0 0 .553-5.5q.158-1.844.28-3.697.061-.918.115-1.838c.065-1.164.112-2.332.156-3.502.02-.571.05-1.14.066-1.713.049-1.742.078-3.488.078-5.242a189 189 0 0 0-.539-14.242 186 186 0 0 0-2.347-18.522 184 184 0 0 0-5.424-22.271 183.6 183.6 0 0 0-11.912-29.211 185 185 0 0 0-8.903-15.49 185.82 185.82 0 0 0-38.164-43.027h-.002a186 186 0 0 0-6.986-5.489h-.002a185 185 0 0 0-22.506-14.416h-.002a184 184 0 0 0-3.959-2.088h-.002q-1.994-1.02-4.015-1.994h-.002c-24.276-11.684-51.496-18.229-80.264-18.229M377.4 343.156l-6.6 20.346 7.925 7.33 7.925-7.33-6.601-20.346z" style="color:#000;font-style:normal;font-variant:normal;font-weight:400;font-stretch:normal;font-size:medium;line-height:normal;font-family:sans-serif;font-variant-ligatures:normal;font-variant-position:normal;font-variant-caps:normal;font-variant-numeric:normal;font-variant-alternates:normal;font-variant-east-asian:normal;font-feature-settings:normal;font-variation-settings:normal;text-indent:0;text-align:start;text-decoration:none;text-decoration-line:none;text-decoration-style:solid;text-decoration-color:#000;letter-spacing:normal;word-spacing:normal;text-transform:none;writing-mode:lr-tb;direction:ltr;text-orientation:mixed;dominant-baseline:auto;baseline-shift:baseline;text-anchor:start;white-space:normal;shape-padding:0;shape-margin:0;inline-size:0;clip-rule:nonzero;display:inline;overflow:visible;visibility:visible;isolation:auto;mix-blend-mode:normal;color-interpolation:sRGB;color-interpolation-filters:linearRGB;solid-color:#000;solid-opacity:1;vector-effect:none;fill:url(#b);fill-opacity:1;fill-rule:evenodd;stroke:none;stroke-width:15.0001;stroke-linecap:round;stroke-linejoin:round;stroke-miterlimit:4;stroke-dasharray:none;stroke-dashoffset:0;stroke-opacity:1;paint-order:normal;color-rendering:auto;image-rendering:auto;shape-rendering:auto;text-rendering:auto;stop-color:#000"/></g></svg>