<svg xmlns="http://www.w3.org/2000/svg" xmlns:xlink="http://www.w3.org/1999/xlink" width="512" height="512" viewBox="0 0 512 512"><title>Magic: Spells</title><defs><radialGradient xlink:href="#a" id="b" cx="257.404" cy="241.806" r="204.462" fx="257.404" fy="241.806" gradientTransform="matrix(1 0 0 .98572 0 3.454)" gradientUnits="userSpaceOnUse"/><linearGradient id="a"><stop offset="0" style="stop-color:#ced9e0;stop-opacity:1"/><stop offset="1" style="stop-color:#425a66;stop-opacity:1"/></linearGradient></defs><g style="stroke-width:1.54493;stroke-miterlimit:4;stroke-dasharray:none"><path d="M257.328-4.893a14.8 14.8 0 0 0-3.452.425l-.026.005a15 15 0 0 0-.93.261l-.007.002a15 15 0 0 0-.615.208l-.265.1-.04.015a15 15 0 0 0-.643.267l-.213.095-.044.022a15 15 0 0 0-1.12.576l-.042.025a16 16 0 0 0-.519.31l-.042.027a16 16 0 0 0-1.077.743l-.006.004a16 16 0 0 0-.519.409 16 16 0 0 0-.71.618l-.036.035-.203.193-.037.037a16 16 0 0 0-1.53 1.719l-.016.02a16 16 0 0 0-.364.493l-.004.004-.03.041a17 17 0 0 0-.668 1.03l-.06.097a17 17 0 0 0-.33.588 17 17 0 0 0-.284.552l-.022.047q-.137.279-.263.564v.002a17 17 0 0 0-.378.929l-.006.011-.017.047a17 17 0 0 0-.197.572l-.007.02-.013.038-.006.016-37.66 115.001H46.837c-14.474.005-21.19 18.927-10.27 28.938L158.772 262.2l-65.49 199.974c-2.31 7.059.168 14.872 6.042 19.048 5.873 4.177 13.677 3.676 19.026-1.222l139.051-127.42L396.455 480c5.349 4.898 13.153 5.4 19.026 1.222 5.874-4.176 8.352-11.99 6.043-19.048L356.033 262.2 478.24 150.213c10.918-10.01 4.202-28.933-10.271-28.938h-158.09L272.216 6.272l-.002-.008a17 17 0 0 0-.432-1.175l-.046-.115-.009-.023a17 17 0 0 0-.25-.57l-.023-.05a17 17 0 0 0-.39-.78 17 17 0 0 0-.907-1.514l-.029-.043a16.5 16.5 0 0 0-1.393-1.77l-.027-.032-.028-.03a16 16 0 0 0-.443-.466l-.015-.015a16 16 0 0 0-.722-.684l-.21-.184-.023-.02a16 16 0 0 0-1.237-.953l-.065-.047-.022-.016a15.5 15.5 0 0 0-2.23-1.27l-.021-.01-.11-.049a15 15 0 0 0-.808-.34l-.057-.022-.226-.083-.03-.012a15 15 0 0 0-.786-.257l-.133-.04q-.015-.005-.031-.009a15 15 0 0 0-2.518-.494 15 15 0 0 0-.792-.062l-.126-.008a15 15 0 0 0-.746-.014zm.074 67.054 19.362 59.114h-38.722Zm-168.713 92.1h105.435l-24.34 74.313zm138.55 0h60.327l31.982 97.656-62.146 56.946-62.144-56.946zm93.443 0h105.435l-81.096 74.313zM184.246 285.54l49.305 45.18-91.585 83.924zm146.314 0 42.28 129.104-91.585-83.924z" style="color:#000;font-style:normal;font-variant:normal;font-weight:400;font-stretch:normal;font-size:medium;line-height:normal;font-family:sans-serif;font-variant-ligatures:normal;font-variant-position:normal;font-variant-caps:normal;font-variant-numeric:normal;font-variant-alternates:normal;font-variant-east-asian:normal;font-feature-settings:normal;font-variation-settings:normal;text-indent:0;text-align:start;text-decoration:none;text-decoration-line:none;text-decoration-style:solid;text-decoration-color:#000;letter-spacing:normal;word-spacing:normal;text-transform:none;writing-mode:lr-tb;direction:ltr;text-orientation:mixed;dominant-baseline:auto;baseline-shift:baseline;text-anchor:start;white-space:normal;shape-padding:0;shape-margin:0;inline-size:0;clip-rule:nonzero;display:inline;overflow:visible;visibility:visible;isolation:auto;mix-blend-mode:normal;color-interpolation:sRGB;color-interpolation-filters:linearRGB;solid-color:#000;solid-opacity:1;vector-effect:none;fill:#425a66;fill-opacity:1;fill-rule:nonzero;stroke:none;stroke-width:33.1056;stroke-linecap:butt;stroke-linejoin:round;stroke-miterlimit:4;stroke-dasharray:none;stroke-dashoffset:0;stroke-opacity:1;paint-order:stroke fill markers;color-rendering:auto;image-rendering:auto;shape-rendering:auto;text-rendering:auto;stop-color:#000" transform="matrix(.90492 0 0 .90747 23.072 38.656)"/><path d="M214.035 40.265c-43.451 9.338-81.735 32.414-110.07 64.457h88.964zm86.734 0 21.108 64.457h88.965c-28.335-32.044-66.621-55.12-110.073-64.457m-169.515 130.55 30.789 28.214 9.24-28.214zm107.982 0-24.925 76.109 43.092 39.488 43.094-39.488-24.927-76.11zm104.285 0 9.24 28.212 30.789-28.212zM456.44 192.64l-81.355 74.55 35.259 107.66c32.056-35.986 51.522-83.374 51.522-135.344 0-16.132-1.882-31.82-5.426-46.866m-398.072.002a204.2 204.2 0 0 0-5.426 46.864c0 51.97 19.465 99.358 51.52 135.344l35.259-107.66zm133.62 122.443-14.63 44.675 31.694-29.04zm130.828 0-17.062 15.634 31.696 29.043zm-65.413 59.946-63.592 58.27c20.012 6.512 41.382 10.045 63.592 10.045s43.58-3.533 63.591-10.044z" style="color:#000;font-style:normal;font-variant:normal;font-weight:400;font-stretch:normal;font-size:medium;line-height:normal;font-family:sans-serif;font-variant-ligatures:normal;font-variant-position:normal;font-variant-caps:normal;font-variant-numeric:normal;font-variant-alternates:normal;font-variant-east-asian:normal;font-feature-settings:normal;font-variation-settings:normal;text-indent:0;text-align:start;text-decoration:none;text-decoration-line:none;text-decoration-style:solid;text-decoration-color:#000;letter-spacing:normal;word-spacing:normal;text-transform:none;writing-mode:lr-tb;direction:ltr;text-orientation:mixed;dominant-baseline:auto;baseline-shift:baseline;text-anchor:start;white-space:normal;shape-padding:0;shape-margin:0;inline-size:0;clip-rule:nonzero;display:inline;overflow:visible;visibility:visible;isolation:auto;mix-blend-mode:normal;color-interpolation:sRGB;color-interpolation-filters:linearRGB;solid-color:#000;solid-opacity:1;vector-effect:none;fill:url(#b);fill-opacity:1;fill-rule:evenodd;stroke:none;stroke-width:16.5529;stroke-linecap:round;stroke-linejoin:round;stroke-miterlimit:4;stroke-dasharray:none;stroke-dashoffset:0;stroke-opacity:1;paint-order:normal;color-rendering:auto;image-rendering:auto;shape-rendering:auto;text-rendering:auto;stop-color:#000" transform="matrix(.90492 0 0 .90747 23.072 38.656)"/><g style="stroke-width:1.54493;stroke-miterlimit:4;stroke-dasharray:none"><path d="M410.575 104.722h21.357c-33.165-42.625-81.504-72.888-137.034-82.377l5.9 18.013c43.367 9.332 81.467 32.405 109.777 64.364M410.27 374.625l5.871 17.93c38.37-39.567 62.146-93.3 62.264-152.603l.002-.024a8 8 0 0 0 .011-.421 8 8 0 0 0-.011-.386c-.035-20.449-3.085-40.162-8.357-58.95l-13.78 12.624c3.532 15.022 5.595 30.61 5.595 46.712 0 51.928-19.585 99.143-51.595 135.118zM193.9 433.22 180.2 445.776c24.071 8.98 50.012 14.126 77.204 14.126 27.193 0 53.133-5.146 77.204-14.126l-13.7-12.554c-20 6.503-41.31 10.126-63.504 10.126s-43.503-3.623-63.503-10.126M58.535 192.796l-13.79-12.639c-5.307 18.91-8.357 38.76-8.357 59.35 0 59.483 23.8 113.395 62.273 153.062l5.875-17.944c-32.01-35.975-51.594-83.19-51.594-135.118 0-16.103 2.061-31.69 5.593-46.711M219.906 22.343c-55.533 9.49-103.876 39.752-137.042 82.379h21.367c28.31-31.959 66.409-55.032 109.774-64.364z" style="color:#000;font-style:normal;font-variant:normal;font-weight:400;font-stretch:normal;font-size:medium;line-height:normal;font-family:sans-serif;font-variant-ligatures:normal;font-variant-position:normal;font-variant-caps:normal;font-variant-numeric:normal;font-variant-alternates:normal;font-variant-east-asian:normal;font-feature-settings:normal;font-variation-settings:normal;text-indent:0;text-align:start;text-decoration:none;text-decoration-line:none;text-decoration-style:solid;text-decoration-color:#000;letter-spacing:normal;word-spacing:normal;text-transform:none;writing-mode:lr-tb;direction:ltr;text-orientation:mixed;dominant-baseline:auto;baseline-shift:baseline;text-anchor:start;white-space:normal;shape-padding:0;shape-margin:0;inline-size:0;clip-rule:nonzero;display:inline;overflow:visible;visibility:visible;isolation:auto;mix-blend-mode:normal;color-interpolation:sRGB;color-interpolation-filters:linearRGB;solid-color:#000;solid-opacity:1;vector-effect:none;fill:#000100;fill-opacity:1;fill-rule:evenodd;stroke:none;stroke-width:16.5529;stroke-linecap:round;stroke-linejoin:round;stroke-miterlimit:4;stroke-dasharray:none;stroke-dashoffset:0;stroke-opacity:1;paint-order:normal;color-rendering:auto;image-rendering:auto;shape-rendering:auto;text-rendering:auto;stop-color:#000" transform="matrix(.90492 0 0 .90747 23.072 38.656)"/><path d="M255.855 19.195a28 28 0 0 0-1.076.026 14.98 15.023 0 0 0-.252.011l-.21.012-.036.002a14.98 15.023 0 0 0-.187.014l-.074.004a14.98 15.023 0 0 0-.02.002l-.096.008q-.189.013-.379.029-.308.027-.615.06a14.98 15.023 0 0 0-.055.006q-.26.03-.521.065a14.98 15.023 0 0 0-.072.008q-.191.026-.383.054l-.035.006q-.345.05-.69.11a14.98 15.023 0 0 0-.035.005q-.224.041-.447.084a14.98 15.023 0 0 0-.04.006l-.224.045-.02.004a14.98 15.023 0 0 0-.062.012q-.26.053-.52.111a14.98 15.023 0 0 0-.015.004l-.31.072-.022.006a14.98 15.023 0 0 0-.072.016l-.149.035a14.98 15.023 0 0 0-.037.01c-.17.042-.335.086-.504.13q-.204.054-.406.11l-.156.045a14.98 15.023 0 0 0-.23.068l-.024.006-.01.004a14.98 15.023 0 0 0-.02.006l-.144.043-.156.049a14.98 15.023 0 0 0-.026.01q-.04.01-.08.023a14.98 15.023 0 0 0-.058.017q-.247.08-.493.164l-.242.082-.303.106a14.98 15.023 0 0 0-.107.04q-.25.092-.5.188l-.01.004a14.98 15.023 0 0 0-.084.034q-.245.095-.486.195l-.172.072-.143.06q-.082.035-.166.069a14.98 15.023 0 0 0-.129.055l-.107.049q-.179.079-.356.162a14.98 15.023 0 0 0-.101.046l-.235.112q-.134.063-.267.129a14.98 15.023 0 0 0-.065.031l-.27.135-.089.045a14.98 15.023 0 0 0-.228.117l-.084.045q-.18.094-.358.19a14.98 15.023 0 0 0-.127.07l-.156.085-.213.12a14.98 15.023 0 0 0-.088.05l-.015.01-.002.002a14.98 15.023 0 0 0-.157.09l-.078.047-.252.148-.013.008q-.006.005-.012.008-.21.127-.416.256a14.98 15.023 0 0 0-.156.096q-.04.025-.079.052a29 29 0 0 0-.894.594 14.98 15.023 0 0 0-.02.012 29 29 0 0 0-.502.357q-.068.05-.136.102l-.086.062a14.98 15.023 0 0 0-.248.184 14.98 15.023 0 0 0-.045.033q-.159.121-.317.246l-.01.006-.085.066-.118.094a14.98 15.023 0 0 0-.054.043q-.161.127-.32.258-.005.004-.009.008l-.011.01q-.206.168-.409.341a14.98 15.023 0 0 0-.134.117l-.274.24-.033.03a14.98 15.023 0 0 0-.02.018l-.09.078a14.98 15.023 0 0 0-.003.006q-.162.145-.323.293a14.98 15.023 0 0 0-.13.12l-.067.065q-.136.13-.271.26a14.98 15.023 0 0 0-.17.166l-.069.066q-.143.143-.283.287-.086.089-.172.176l-.09.092a14.98 15.023 0 0 0-.119.125l-.013.014a14.98 15.023 0 0 0-.14.148l-.269.293-.054.06-.024.03q-.134.148-.265.297a14.98 15.023 0 0 0-.125.144l-.06.07a29 29 0 0 0-.507.604l-.015.02-.033.04-.034.044a14.98 15.023 0 0 0-.082.1 30 30 0 0 0-.31.396 14.98 15.023 0 0 0-.018.021l-.015.02a14.98 15.023 0 0 0-.053.068q-.147.193-.29.387l-.013.02-.006.007q-.073.098-.144.196a14.98 15.023 0 0 0-.123.171l-.055.075a14.98 15.023 0 0 0-.106.15q-.148.21-.293.424l.01-.012q-.124.183-.246.367l.01-.01-.119.178a14.98 15.023 0 0 0-.014.024q-.082.128-.162.258-.041.064-.084.128a14.98 15.023 0 0 0-.076.123l-.135.225-.043.07-.044.075a14.98 15.023 0 0 0-.004.01l-.002.001q-.01.015-.02.032a14.98 15.023 0 0 0-.09.146l-.19.332q-.02.038-.042.074-.011.021-.024.041-.03.057-.062.114a14.98 15.023 0 0 0-.065.113 30 30 0 0 0-.437.824 14.98 15.023 0 0 0-.022.04l-.103.202-.143.287a14.98 15.023 0 0 0-.033.073l-.008.013a14.98 15.023 0 0 0-.037.08q-.221.458-.426.922a14.98 15.023 0 0 0-.011.03 14.98 15.023 0 0 0-.028.062 33 33 0 0 0-.232.545 14.98 15.023 0 0 0-.006.016q-.09.218-.178.437-.001.006-.002.01l-.012.025-.025.067q-.014.037-.027.074a14.98 15.023 0 0 0-.145.371 14.98 15.023 0 0 0-.09.244l-.03.084q-.064.176-.124.352l-.045.133.016-.04a14.98 15.023 0 0 0-.012.036 14.98 15.023 0 0 0-.002.006 14.98 15.023 0 0 0-.076.22 14.98 15.023 0 0 0-.006.016l-.002.008-.006.011a14.98 15.023 0 0 0-.004.014 14.98 15.023 0 0 0-.01.024 14.98 15.023 0 0 0-.002.007q-.014.04-.026.08a14.98 15.023 0 0 0-.019.055l-30.698 94.012H65.457a14.98 15.023 0 0 0-.006 0c-26.15.009-38.48 34.823-19.414 52.353a14.98 15.023 0 0 0 .004.002l103.467 95.08L93.25 453.387a14.98 15.023 0 0 0 0 .006c-4.09 12.537.138 26.438 11.021 34.199s26.198 6.739 36.014-2.275a14.98 15.023 0 0 0 .004-.004L256 378.984l115.71 106.329a14.98 15.023 0 0 0 .003.004c9.816 9.014 25.132 10.036 36.016 2.275s15.114-21.662 11.023-34.2a14.98 15.023 0 0 0-.002-.005l-56.258-172.264 103.467-95.08a14.98 15.023 0 0 0 .002-.002c19.066-17.53 6.739-52.344-19.412-52.354a14.98 15.023 0 0 0-.004 0H314.344L283.793 40.14l.12.47a14.98 15.023 0 0 0-.278-.953l-.112-.336-.029-.086q-.001-.006-.004-.011a14.98 15.023 0 0 0-.035-.102 30 30 0 0 0-.203-.564v-.008q-.103-.279-.213-.555a14.98 15.023 0 0 0-.02-.049l-.08-.199a14.98 15.023 0 0 0-.006-.02l-.052-.126-.031-.079a14.98 15.023 0 0 0-.073-.177 30 30 0 0 0-.199-.467l-.002-.004a30 30 0 0 0-.225-.5l-.01-.02a14.98 15.023 0 0 0-.043-.091q-.106-.233-.216-.463a14.98 15.023 0 0 0-.025-.049 31 31 0 0 0-.272-.545 14.98 15.023 0 0 0-.002-.004q-.089-.173-.18-.344l-.019-.033q-.33-.625-.69-1.236a14.98 15.023 0 0 0-.035-.06l-.027-.044-.037-.062-.186-.307a14.98 15.023 0 0 0-.082-.129l-.084-.132a14.98 15.023 0 0 0-.05-.083l-.03-.044-.072-.116-.035-.052-.246-.38a14.98 15.023 0 0 0-.12-.173l-.001-.004q-.326-.479-.67-.943l-.008-.012a30 30 0 0 0-.325-.432 14.98 15.023 0 0 0-.05-.07q-.166-.214-.336-.424l-.018-.023q-.095-.119-.191-.235l-.031-.039-.147-.178a14.98 15.023 0 0 0-.054-.064q-.312-.37-.635-.73l-.018-.02-.027-.031a14.98 15.023 0 0 0-.123-.137 30 30 0 0 0-.383-.414 14.98 15.023 0 0 0-.012-.01l-.222-.232-.006-.01-.127-.127-.037-.037a14.98 15.023 0 0 0-.073-.074l-.343-.34-.024-.024q-.3-.292-.61-.576l-.017-.015-.283-.258-.014-.012a29 29 0 0 0-.375-.33 14.98 15.023 0 0 0-.1-.086q-.202-.173-.41-.344l-.015-.013a29 29 0 0 0-.385-.31 14.98 15.023 0 0 0-.027-.022l-.049-.04a14.98 15.023 0 0 0-.039-.03l-.336-.26a14.98 15.023 0 0 0-.01-.01q-.045-.032-.088-.065a14.98 15.023 0 0 0-.053-.039 29 29 0 0 0-.468-.345l-.018-.012q-.092-.066-.185-.131l-.063-.047a14.98 15.023 0 0 0-.107-.076l-.018-.014a14.98 15.023 0 0 0-.025-.015 14.98 15.023 0 0 0-.147-.106q-.2-.136-.404-.27l-.023-.017a29 29 0 0 0-.494-.318 14.98 15.023 0 0 0-.002 0q-.299-.19-.604-.373a14.98 15.023 0 0 0-.053-.032 29 29 0 0 0-.492-.285 14.98 15.023 0 0 0-.008-.004 14.98 15.023 0 0 0-.039-.023l-.119-.066q-.15-.084-.299-.166a14.98 15.023 0 0 0-.088-.05q-.228-.12-.459-.24a14.98 15.023 0 0 0-.06-.033l-.02-.01a29 29 0 0 0-.998-.488 14.98 15.023 0 0 0-.174-.08l-.045-.02a14.98 15.023 0 0 0-.019-.011l-.041-.018a14.98 15.023 0 0 0-.01-.004 14.98 15.023 0 0 0-.006 0l-.018-.007-.002-.002-.279-.125a14.98 15.023 0 0 0-.053-.024q-.274-.12-.55-.234l-.014-.006a29 29 0 0 0-.549-.219 14.98 15.023 0 0 0-.129-.05l-.107-.042.103.041-.326-.12-.023-.01a14.98 15.023 0 0 0-.205-.077q-.28-.098-.56-.191l-.114-.037-.293-.096a14.98 15.023 0 0 0-.088-.027l-.191-.059-.143-.043-.082-.025-.025-.008a14.98 15.023 0 0 0-.223-.066l-.033-.01a14.98 15.023 0 0 0-.03-.008l-.013-.004a14.98 15.023 0 0 0-.3-.082l-.175-.049a14.98 15.023 0 0 0-.025-.008 28 28 0 0 0-1.143-.277 14.98 15.023 0 0 0-.006-.002q-.27-.06-.54-.115a14.98 15.023 0 0 0-.2-.04l-.067-.011-.156-.03-.289-.052q-.259-.045-.52-.086a14.98 15.023 0 0 0-.04-.004l-.239-.037-.392-.055-.01-.002q-.301-.039-.604-.072a14.98 15.023 0 0 0-.113-.012 28 28 0 0 0-1.059-.091 14.98 15.023 0 0 0-.023 0l-.322-.02-.088-.006a14.98 15.023 0 0 0-.252-.014 29 29 0 0 0-.553-.017q-.262-.005-.523-.006h-.102a14.98 15.023 0 0 0-.185 0 14.98 15.023 0 0 0-.002 0zm.077 15.022h.002a13 13 0 0 1 .673.011l.116.008.177.01a14 14 0 0 1 .83.082q.096.012.19.026a14 14 0 0 1 .965.175 13 13 0 0 1 .832.211l.03.008.118.037.198.06.195.063q.16.053.32.11.014.006.026.011.103.037.205.075l.05.02q.135.053.27.108.136.055.271.114.097.042.192.088l.1.043.019.01a14 14 0 0 1 .49.24l.041.021q.112.057.22.115.112.061.222.125l.056.032.239.136q.147.09.29.182a14 14 0 0 1 .46.3l.019.014.059.043.203.143q.118.086.234.174.022.015.043.031l.162.127.035.03a15 15 0 0 1 .442.36l.021.018.19.168a14 14 0 0 1 .472.442q.092.088.182.18l.012.013.1.1.113.119q.095.1.19.203.011.014.025.027l.023.03q.177.195.348.398l.09.107.13.162a15 15 0 0 1 .342.444q.18.244.352.496l.025.037q.07.108.14.217.07.105.137.213l.041.064q.06.094.116.19l.03.054q.187.314.358.637.053.1.104.201.07.136.138.274.057.116.11.234l.02.043q.063.138.124.28l.104.237.008.022.04.103a15 15 0 0 1 .296.78q.008.024.015.049.041.118.08.238l.002.008 34.082 104.361h143.059c13.097.005 19.173 17.175 9.293 26.26L345.252 276.594l59.264 181.469c2.09 6.405-.154 13.496-5.469 17.287s-12.377 3.335-17.217-1.11L256 358.61 130.17 474.24c-4.84 4.445-11.902 4.9-17.217 1.11s-7.559-10.882-5.469-17.288l59.264-181.468L56.162 174.969c-9.88-9.085-3.804-26.255 9.293-26.26h143.059l34.078-104.36.006-.013.011-.035.006-.018q.044-.137.092-.275.043-.123.088-.244.007-.022.016-.043l.004-.01a16 16 0 0 1 .289-.717l.055-.127v-.002q.114-.257.236-.512.011-.02.021-.04l.073-.149.052-.104a16 16 0 0 1 .237-.445q.032-.056.066-.113l.15-.26.032-.055.115-.189a16 16 0 0 1 .223-.348l.12-.183.147-.213q.013-.02.026-.037l.004-.004q.086-.122.175-.242.077-.104.155-.204l.013-.019.065-.082.13-.166.042-.05a16 16 0 0 1 .322-.386l.031-.035.17-.191.172-.19.045-.045a15 15 0 0 1 .408-.416l.033-.033.184-.174.033-.033.158-.142.043-.04.1-.085.133-.12a14 14 0 0 1 .375-.308l.103-.082q.1-.078.2-.154l.005-.004a14 14 0 0 1 .975-.674l.04-.026q.104-.066.212-.13.127-.077.256-.15l.039-.024q.088-.05.178-.098l.052-.031.25-.131.041-.022.25-.125q.12-.058.243-.115l.039-.02.191-.085.053-.024.068-.029q.114-.049.229-.096.115-.048.232-.093l.037-.016a14 14 0 0 1 .432-.156l.129-.045q.117-.04.236-.076l.006-.002.219-.069.068-.021.108-.03.207-.056.24-.06.023-.007a14 14 0 0 1 .51-.115l.053-.01.107-.021a14 14 0 0 1 .594-.1l.197-.027q.125-.016.248-.031a13 13 0 0 1 .582-.051l.045-.004.135-.006.113-.008q.147-.006.293-.01zM256 95.064l-17.52 53.645h35.04zm-152.672 83.579 73.385 67.435 22.025-67.435zm125.377 0-28.941 88.619L256 318.938l56.236-51.676-28.941-88.62Zm84.557 0 22.025 67.435 73.385-67.435zm-171.416 15.021h36.222l-8.361 25.604zm97.715 0h32.878l22.557 69.066L256 298.564l-38.994-35.834Zm94.369 0h36.222l-27.861 25.602zM189.799 297.775l-38.26 117.157 82.877-76.159zm132.402 0-44.617 40.998 82.877 76.159zm-125.396 26.81 15.441 14.188-28.68 26.354zm118.388 0 13.243 40.544-28.682-26.356z" style="color:#000;font-style:normal;font-variant:normal;font-weight:400;font-stretch:normal;font-size:medium;line-height:normal;font-family:sans-serif;font-variant-ligatures:normal;font-variant-position:normal;font-variant-caps:normal;font-variant-numeric:normal;font-variant-alternates:normal;font-variant-east-asian:normal;font-feature-settings:normal;font-variation-settings:normal;text-indent:0;text-align:start;text-decoration:none;text-decoration-line:none;text-decoration-style:solid;text-decoration-color:#000;letter-spacing:normal;word-spacing:normal;text-transform:none;writing-mode:lr-tb;direction:ltr;text-orientation:mixed;dominant-baseline:auto;baseline-shift:baseline;text-anchor:start;white-space:normal;shape-padding:0;shape-margin:0;inline-size:0;clip-rule:nonzero;display:inline;overflow:visible;visibility:visible;isolation:auto;mix-blend-mode:normal;color-interpolation:sRGB;color-interpolation-filters:linearRGB;solid-color:#000;solid-opacity:1;vector-effect:none;fill:#000;fill-opacity:1;fill-rule:nonzero;stroke:none;stroke-width:29.9999;stroke-linecap:butt;stroke-linejoin:round;stroke-miterlimit:4;stroke-dasharray:none;stroke-dashoffset:0;stroke-opacity:1;paint-order:stroke fill markers;color-rendering:auto;image-rendering:auto;shape-rendering:auto;text-rendering:auto;stop-color:#000"/></g></g></svg>