<svg xmlns="http://www.w3.org/2000/svg" width="512" height="512" viewBox="0 0 512 512"><title>Magic: Tricks</title><g style="stroke-width:1.54493;stroke-miterlimit:4;stroke-dasharray:none"><path d="M255.998 71.021c-51.142 0-97.396 20.687-130.865 54.15a185.7 185.7 0 0 0-22.582 27.371 185 185 0 0 0-13.344 23.228 183.7 183.7 0 0 0-15.342 47.466 185 185 0 0 0-2.347 18.522 188 188 0 0 0-.479 19.02 188 188 0 0 0 .895 14.148q.71 7 1.931 13.838a183.683 183.683 0 0 0 19.424 55.441 185 185 0 0 0 17.121 26.031 185.7 185.7 0 0 0 21.145 22.715h.002q1.641 1.493 3.318 2.945h.002q1.676 1.454 3.389 2.868h.002a186 186 0 0 0 6.986 5.488h.002q1.78 1.332 3.592 2.621h.002a185 185 0 0 0 11.164 7.344h.002q1.905 1.159 3.841 2.271h.002q1.937 1.113 3.903 2.18h.002q1.965 1.067 3.959 2.088h.002q1.993 1.02 4.015 1.994h.002a184 184 0 0 0 20.875 8.518h.002q4.3 1.453 8.692 2.699h.001q2.196.623 4.413 1.193h.002q2.216.57 4.455 1.086h.002a185.7 185.7 0 0 0 37.035 4.672q2.383.06 4.781.06c1.834 0 3.66-.034 5.48-.087.575-.017 1.146-.043 1.72-.065a187 187 0 0 0 5.638-.297q2.07-.143 4.129-.332c.44-.04.881-.074 1.32-.117 1.845-.18 3.685-.383 5.514-.617 1.823-.234 3.637-.5 5.443-.787.355-.056.708-.118 1.063-.176a185 185 0 0 0 10.388-2.012c.158-.035.317-.066.475-.101q2.775-.63 5.517-1.34l18.92-58.317-42.378-39.2a14.98 15.023 0 0 1-.004-.003c-13.58-12.568-4.687-37.87 14.308-37.877a14.98 15.023 0 0 1 .006 0h53.076l11.87-36.587a14.98 15.023 0 0 1 .036-.11l-.029.094.04-.117.017-.053a14.98 15.023 0 0 1 .025-.08l.03-.082.01-.033q0-.006.003-.01l.006-.014v-.004a14.98 15.023 0 0 1 .004-.008 14.98 15.023 0 0 1 .23-.6l-.023.05-.074.168a14.98 15.023 0 0 1 .129-.34 14.98 15.023 0 0 1 .017-.045l.028-.07q.067-.173.138-.342a14.98 15.023 0 0 1 .002-.01l.051-.12a14.98 15.023 0 0 1 .05-.122l.079-.18a14.98 15.023 0 0 1 .016-.039q.15-.343.314-.682a14.98 15.023 0 0 1 .045-.093q.048-.103.1-.205l.001-.004.002-.004.07-.139a14.98 15.023 0 0 1 .02-.04q.08-.153.16-.304l.008-.017.022-.04.12-.222a14.98 15.023 0 0 1 .06-.107l.03-.057.03-.053.033-.056q.06-.107.123-.213a14.98 15.023 0 0 1 .076-.131l.041-.068.01-.016.01-.016a14.98 15.023 0 0 1 .012-.02l.03-.052q.032-.051.063-.103a14.98 15.023 0 0 1 .08-.13l.038-.058q.058-.094.117-.187a14.98 15.023 0 0 1 .002-.004l.084-.13.166-.251q0-.002.002-.004l.007-.012q.1-.147.202-.293a14.98 15.023 0 0 1 .08-.115 14.98 15.023 0 0 1 .029-.041l.04-.055a14.98 15.023 0 0 1 .073-.1q.039-.052.076-.105a14.98 15.023 0 0 1 .018-.025l.024-.031a14.98 15.023 0 0 1 .128-.176l.04-.051.03-.041a14.98 15.023 0 0 1 .077-.1l.014-.017q.093-.122.189-.242a14.98 15.023 0 0 1 .076-.096l.012-.016.031-.039.016-.02q.087-.109.178-.216.079-.095.16-.19l.043-.05a14.98 15.023 0 0 1 .115-.133l.17-.192.058-.068.022-.023.172-.19a14.98 15.023 0 0 1 .117-.123l.074-.078a14.98 15.023 0 0 1 .082-.088l.02-.02a21 21 0 0 1 .41-.415l.012-.012a14.98 15.023 0 0 1 .07-.069l.144-.14.05-.045a14.98 15.023 0 0 1 .157-.149l.227-.209c.022-.019.04-.037.063-.056a14.98 15.023 0 0 1 .003-.004l.03-.025.146-.13q.013-.012.024-.023a14.98 15.023 0 0 1 .142-.123q.147-.125.295-.248.123-.101.248-.201a14.98 15.023 0 0 1 .049-.041q.03-.025.063-.049.147-.119.298-.234a14.98 15.023 0 0 1 .045-.034q.116-.086.233-.171.054-.042.11-.082.18-.134.366-.262a14.98 15.023 0 0 1 .02-.016q.17-.118.342-.232.15-.1.302-.197l.059-.038a14.98 15.023 0 0 1 .014-.01l.005-.003a14.98 15.023 0 0 1 .11-.069q.15-.094.3-.187h.003l.021-.014.102-.06.058-.035a14.98 15.023 0 0 1 .004-.002h.002a14.98 15.023 0 0 1 .268-.157l.101-.058q.041-.023.082-.045a14.98 15.023 0 0 1 .178-.1l.228-.123.061-.031a14.98 15.023 0 0 1 .213-.111l.033-.016.2-.102a14.98 15.023 0 0 1 .066-.03l.097-.05a14.98 15.023 0 0 1 .272-.129 14.98 15.023 0 0 1 .078-.037l.238-.107.08-.037a14.98 15.023 0 0 1 .309-.133l.09-.037.053-.024a14.98 15.023 0 0 1 .003-.002q.18-.075.36-.146a14.98 15.023 0 0 1 .07-.025l.02-.008.011-.004q.169-.066.338-.129a14.98 15.023 0 0 1 .108-.04l.203-.07.17-.06.02-.008q.003 0 .007-.002.17-.057.34-.111a14.98 15.023 0 0 1 .047-.016l.1-.03a14.98 15.023 0 0 1 .044-.015 14.98 15.023 0 0 1 .077-.025q.015-.005.03-.008a14.98 15.023 0 0 1 .07-.021l.019-.006a14.98 15.023 0 0 1 .195-.059l.166-.047-.063.02q.161-.046.323-.09l.205-.053a14.98 15.023 0 0 1 .162-.043q.204-.049.41-.095a14.98 15.023 0 0 1 .006-.002q.192-.044.385-.082a14.98 15.023 0 0 1 .056-.012l.141-.027.027-.006a14.98 15.023 0 0 1 .032-.008l.025-.004q.153-.03.307-.057a14.98 15.023 0 0 1 .039-.005q.297-.053.595-.096l.196-.028a14.98 15.023 0 0 1 .07-.01q.193-.024.387-.046a14.98 15.023 0 0 1 .06-.008 20 20 0 0 1 .512-.049h.002l.068-.006a14.98 15.023 0 0 1 .19-.013l.056-.004a14.98 15.023 0 0 1 .088-.008l.092-.006a14.98 15.023 0 0 1 .111-.008 14.98 15.023 0 0 1 .309-.015q.167-.005.334-.008.188-.006.377-.008h.004a14.98 15.023 0 0 1 .025 0 14.98 15.023 0 0 1 .008 0h.205a14.98 15.023 0 0 1 .03 0l.074.002q.133.001.267.006h.047q.163.003.326.01a14.98 15.023 0 0 1 .219.011 14.98 15.023 0 0 1 .201.01l.07.006h.008a14.98 15.023 0 0 1 .067.004l.035.002q.203.015.404.033l.022.002q.153.013.304.027a14.98 15.023 0 0 1 .11.014q.22.023.441.053l.016.002q.132.017.263.037l.02.004.164.023a14.98 15.023 0 0 1 .04.006q.19.03.382.064a14.98 15.023 0 0 1 .01.002q.135.023.271.05l.06.01q.053.01.104.02a14.98 15.023 0 0 1 .104.02q.2.042.4.088a14.98 15.023 0 0 1 .004 0q.2.046.4.096l.045.01q.19.046.38.097a14.98 15.023 0 0 1 .027.008q.17.045.34.094l.042.011.024.008a14.98 15.023 0 0 1 .213.065l.101.03.086.026.078.026a14.98 15.023 0 0 1 .082.025l.274.09.027.01q.194.064.387.132a14.98 15.023 0 0 1 .121.045 14.98 15.023 0 0 1 .14.053h.003l.173.066a14.98 15.023 0 0 1 .057.022l.037.016a21 21 0 0 1 .817.337 14.98 15.023 0 0 1 .05.022l.096.045.02.008a14.98 15.023 0 0 1 .056.025 14.98 15.023 0 0 1 .049.024l.023.007.01.006.012.006.03.014a14.98 15.023 0 0 1 .132.06 21 21 0 0 1 .682.336l.006.002.062.033a14.98 15.023 0 0 1 .037.02q.169.087.336.178a14.98 15.023 0 0 1 .09.048q.136.075.271.153l.03.017a14.98 15.023 0 0 1 .01.006l.01.006.015.008q.169.097.336.197a14.98 15.023 0 0 1 .05.03q.224.135.444.275a14.98 15.023 0 0 1 .006.004q.186.12.37.242l.009.006.289.195a14.98 15.023 0 0 1 .092.063l.007.006h.002l.106.076a14.98 15.023 0 0 1 .078.056l.103.075.014.01q.172.123.34.251a14.98 15.023 0 0 1 .057.043l.062.047a14.98 15.023 0 0 1 .016.012q.123.096.246.193a14.98 15.023 0 0 1 .105.084q.12.099.24.197l.014.01q.15.125.297.252a14.98 15.023 0 0 1 .108.094l.18.158.083.076q.108.096.215.194l-.018-.014q.226.209.446.422l.027.027.195.194.043.044a14.98 15.023 0 0 1 .04.04l.136.138.01.012.158.164a14.98 15.023 0 0 1 .014.014q.14.15.277.302a14.98 15.023 0 0 1 .115.13q.239.265.467.538a14.98 15.023 0 0 1 .047.059l.09.107.039.051.123.152.023.028q.118.148.233.299a14.98 15.023 0 0 1 .055.07 22 22 0 0 1 .693.967l.006.008.013.02a14.98 15.023 0 0 1 .1.15q.092.138.182.279l.021.033.004.01a14.98 15.023 0 0 1 .053.08l.105.168a14.98 15.023 0 0 1 .06.094q.064.104.124.209l.04.068.007.008a14.98 15.023 0 0 1 .033.058q.265.453.508.916.062.117.123.235a14.98 15.023 0 0 1 .002.004q.099.194.193.39a14.98 15.023 0 0 1 .024.05q.08.166.158.333a14.98 15.023 0 0 1 .013.031q.013.027.024.055l.004.008q.076.168.15.338l.004.007q.072.166.14.333a14.98 15.023 0 0 1 .077.185l.033.08.022.055.037.096a14.98 15.023 0 0 1 .002.011l.004.008a14.98 15.023 0 0 1 .013.031q.077.2.15.4l.003.007q.075.2.146.404a14.98 15.023 0 0 1 .072.217l.022.07.031.092a14.98 15.023 0 0 1 .348 1.256l-.123-.56 11.648 35.903h25.006l.002-.007a185 185 0 0 0 3.814-21.09c.043-.353.08-.707.121-1.06a186 186 0 0 0 .553-5.5q.158-1.845.28-3.698.061-.918.115-1.838c.065-1.164.112-2.332.156-3.502.021-.571.05-1.14.066-1.713q.077-2.612.078-5.242a189 189 0 0 0-.539-14.242 186 186 0 0 0-2.347-18.522 184 184 0 0 0-5.424-22.271 183.6 183.6 0 0 0-11.912-29.211 185 185 0 0 0-8.903-15.49 185.82 185.82 0 0 0-38.164-43.027h-.002a186 186 0 0 0-6.986-5.489h-.002a185 185 0 0 0-22.506-14.416h-.002a184 184 0 0 0-3.959-2.088h-.002q-1.993-1.02-4.015-1.994h-.002c-24.27-11.683-51.49-18.229-80.258-18.229m122.697 192.122a6 6 0 0 0-.242.005l-.05.004-.061.004-.02.002a5 5 0 0 0-.26.022l-.11.013-.089.014a6 6 0 0 0-.265.045l-.047.008q-.01.002-.02.006h-.006l-.109.023-.117.027-.012.004-.107.028-.092.025-.049.014q-.014.003-.03.01-.048.014-.097.029l-.004.002-.105.033q-.03.01-.057.021l-.086.03-.107.04-.016.007q-.053.02-.105.043l-.102.043-.031.013-.024.01-.086.039-.005.002-.012.006-.108.053-.058.029-.053.027-.017.01q-.058.029-.114.059l-.023.013-.078.045-.018.01a6 6 0 0 0-.21.127l-.018.012a6 6 0 0 0-.436.302l-.002.002-.09.07q-.023.019-.047.036l-.072.06-.094.08-.06.053-.043.04-.02.017-.07.064-.016.014-.082.078v.002l-.015.014-.094.095-.088.092-.02.02v.002l-.078.084-.076.086-.013.015-.075.088-.068.086-.02.021v.002l-.058.075-.027.035v.002l-.008.008-.069.091-.078.11-.002.002-.011.015v.002l-.065.094v.002l-.055.082-.027.04v.001l-.035.057-.037.058-.053.086-.014.024-.01.015-.056.102-.03.05-.046.089q-.03.056-.06.113-.008.015-.014.031l-.008.014v.002q-.017.031-.033.064v.002l-.01.018a7 7 0 0 0-.106.23v.002l-.025.057-.037.088v.002l-.043.107-.049.125-.002.004-.006.02-.039.109v.002q-.022.06-.04.12v.005l-.005.006-.004.015-.004.006-15.234 46.961h-63.955c-.732 0-1.415.122-2.041.342a6 6 0 0 0-1.7.931 6.655 6.655 0 0 0-1.312 1.389 7.24 7.24 0 0 0-1.271 3.621 7 7 0 0 0-.004.983c.003.045.015.09.02.136.052.612.176 1.22.396 1.809.353.947.93 1.84 1.758 2.607l49.437 45.73-18.601 57.335-7.893 24.326c-2.112 6.516 5.251 11.8 10.143 7.28l56.252-52.034 56.254 52.033c4.89 4.521 12.252-.763 10.14-7.279l-26.494-81.66 49.44-45.73c4.417-4.089 1.7-11.817-4.155-11.819h-63.955l-15.236-46.96-.002-.005-.035-.107-.008-.022v-.002l-.047-.129q-.023-.065-.047-.128l-.037-.092-.02-.047-.003-.01-.045-.107-.057-.125-.008-.02-.049-.105q-.03-.063-.062-.123l-.047-.09v-.002a7 7 0 0 0-.158-.285l-.016-.024v-.002l-.05-.084v-.002q-.01-.014-.02-.027l-.06-.096-.063-.097-.012-.018a7 7 0 0 0-.309-.422l-.058-.074q-.02-.023-.041-.047a7 7 0 0 0-.154-.18l-.012-.013-.012-.012q-.041-.046-.084-.092l-.05-.053-.046-.044v-.002l-.005-.006-.08-.08a6 6 0 0 0-.297-.274l-.01-.008-.094-.08-.103-.084-.016-.011-.072-.059-.02-.014-.105-.078-.09-.064-.026-.02-.01-.006-.093-.062-.111-.072q-.065-.043-.131-.082-.052-.032-.106-.063l-.025-.014-.1-.054-.097-.053-.02-.01-.117-.06-.102-.05-.01-.001q-.021-.01-.042-.022l-.086-.039-.121-.05-.122-.05-.023-.007-.09-.035-.012-.004-.144-.049-.086-.03-.088-.027-.055-.017-.011-.002-.117-.033-.127-.034-.13-.029-.115-.025-.046-.008-.094-.018-.112-.02-.062-.009-.086-.012-.24-.025-.131-.01-.08-.006q-.026-.001-.05-.004l-.132-.003h-.17zm.03 27.382 7.832 24.14h-15.664zm-68.252 37.61h42.652l-9.846 30.345zm56.05 0h24.405l12.767 39.353.17.526-1.965 1.816q0 .003-.004.004l-23.171 21.434-25.141-23.254zm37.801 0h42.655l-32.807 30.345-1.365-4.203zM377.4 343.156l-6.6 20.346 7.925 7.33 7.925-7.33-6.601-20.346zm-28.271 38.588 19.947 18.45-10.887 10.07-26.164 24.2 3.723-11.476zm59.191 0 17.106 52.72-37.051-34.27z" style="color:#000;font-style:normal;font-variant:normal;font-weight:400;font-stretch:normal;font-size:medium;line-height:normal;font-family:sans-serif;font-variant-ligatures:normal;font-variant-position:normal;font-variant-caps:normal;font-variant-numeric:normal;font-variant-alternates:normal;font-variant-east-asian:normal;font-feature-settings:normal;font-variation-settings:normal;text-indent:0;text-align:start;text-decoration:none;text-decoration-line:none;text-decoration-style:solid;text-decoration-color:#000;letter-spacing:normal;word-spacing:normal;text-transform:none;writing-mode:lr-tb;direction:ltr;text-orientation:mixed;dominant-baseline:auto;baseline-shift:baseline;text-anchor:start;white-space:normal;shape-padding:0;shape-margin:0;inline-size:0;clip-rule:nonzero;display:inline;overflow:visible;visibility:visible;isolation:auto;mix-blend-mode:normal;color-interpolation:sRGB;color-interpolation-filters:linearRGB;solid-color:#000;solid-opacity:1;vector-effect:none;fill:#fff;fill-opacity:1;fill-rule:evenodd;stroke:none;stroke-width:15.0001;stroke-linecap:round;stroke-linejoin:round;stroke-miterlimit:4;stroke-dasharray:none;stroke-dashoffset:0;stroke-opacity:1;paint-order:normal;color-rendering:auto;image-rendering:auto;shape-rendering:auto;text-rendering:auto;stop-color:#000"/></g></svg>