<svg xmlns="http://www.w3.org/2000/svg" width="512" height="512" viewBox="0 0 512 512"><title>Magic: Spells</title><g style="stroke-width:1.54493;stroke-miterlimit:4;stroke-dasharray:none"><path d="M410.575 104.722h21.357c-33.165-42.625-81.504-72.888-137.034-82.377l5.9 18.013c43.367 9.332 81.467 32.405 109.777 64.364M410.27 374.625l5.871 17.93c38.37-39.567 62.146-93.3 62.264-152.603l.002-.024a8 8 0 0 0 .011-.421 8 8 0 0 0-.011-.386c-.035-20.449-3.085-40.162-8.357-58.95l-13.78 12.624c3.532 15.022 5.595 30.61 5.595 46.712 0 51.928-19.585 99.143-51.595 135.118zM193.9 433.22 180.2 445.776c24.071 8.98 50.012 14.126 77.204 14.126 27.193 0 53.133-5.146 77.204-14.126l-13.7-12.554c-20 6.503-41.31 10.126-63.504 10.126s-43.503-3.623-63.503-10.126M58.535 192.796l-13.79-12.639c-5.307 18.91-8.357 38.76-8.357 59.35 0 59.483 23.8 113.395 62.273 153.062l5.875-17.944c-32.01-35.975-51.594-83.19-51.594-135.118 0-16.103 2.061-31.69 5.593-46.711M219.906 22.343c-55.533 9.49-103.876 39.752-137.042 82.379h21.367c28.31-31.959 66.409-55.032 109.774-64.364z" style="color:#000;font-style:normal;font-variant:normal;font-weight:400;font-stretch:normal;font-size:medium;line-height:normal;font-family:sans-serif;font-variant-ligatures:normal;font-variant-position:normal;font-variant-caps:normal;font-variant-numeric:normal;font-variant-alternates:normal;font-variant-east-asian:normal;font-feature-settings:normal;font-variation-settings:normal;text-indent:0;text-align:start;text-decoration:none;text-decoration-line:none;text-decoration-style:solid;text-decoration-color:#000;letter-spacing:normal;word-spacing:normal;text-transform:none;writing-mode:lr-tb;direction:ltr;text-orientation:mixed;dominant-baseline:auto;baseline-shift:baseline;text-anchor:start;white-space:normal;shape-padding:0;shape-margin:0;inline-size:0;clip-rule:nonzero;display:inline;overflow:visible;visibility:visible;isolation:auto;mix-blend-mode:normal;color-interpolation:sRGB;color-interpolation-filters:linearRGB;solid-color:#000;solid-opacity:1;vector-effect:none;fill:#000100;fill-opacity:1;fill-rule:evenodd;stroke:none;stroke-width:16.5529;stroke-linecap:round;stroke-linejoin:round;stroke-miterlimit:4;stroke-dasharray:none;stroke-dashoffset:0;stroke-opacity:1;paint-order:normal;color-rendering:auto;image-rendering:auto;shape-rendering:auto;text-rendering:auto;stop-color:#000" transform="matrix(.90492 0 0 .90747 23.072 38.656)"/><path d="M255.855 19.195a28 28 0 0 0-1.076.026 14.98 15.023 0 0 0-.252.011l-.21.012-.036.002a14.98 15.023 0 0 0-.187.014l-.074.004a14.98 15.023 0 0 0-.02.002l-.096.007-.379.03q-.308.026-.615.06a14.98 15.023 0 0 0-.055.006q-.26.03-.521.065a14.98 15.023 0 0 0-.072.007l-.383.055-.035.006q-.345.05-.69.11a14.98 15.023 0 0 0-.035.005q-.224.04-.447.084a14.98 15.023 0 0 0-.04.006l-.224.045-.02.004a14.98 15.023 0 0 0-.062.012q-.26.053-.52.11a14.98 15.023 0 0 0-.015.005q-.156.035-.31.072l-.022.006a14.98 15.023 0 0 0-.072.016l-.149.035a14.98 15.023 0 0 0-.037.01q-.252.062-.504.13-.204.053-.406.11l-.156.045a14.98 15.023 0 0 0-.23.068l-.024.006-.01.004a14.98 15.023 0 0 0-.02.006l-.144.043-.156.048a14.98 15.023 0 0 0-.026.01l-.08.024a14.98 15.023 0 0 0-.058.017q-.248.08-.492.164l-.243.082-.302.106a14.98 15.023 0 0 0-.108.04q-.25.093-.5.188l-.01.004a14.98 15.023 0 0 0-.084.033 29 29 0 0 0-.486.196l-.172.072-.142.06q-.084.035-.166.069a14.98 15.023 0 0 0-.13.055l-.107.048q-.178.08-.355.163a14.98 15.023 0 0 0-.102.046l-.234.112q-.135.063-.268.129a14.98 15.023 0 0 0-.064.03l-.27.136-.09.045a14.98 15.023 0 0 0-.228.117l-.084.045q-.18.093-.357.19a14.98 15.023 0 0 0-.127.07l-.157.085-.213.12a14.98 15.023 0 0 0-.087.05l-.016.01-.002.002a14.98 15.023 0 0 0-.156.09q-.04.023-.078.047-.127.073-.252.148l-.014.008q-.006.003-.012.008-.21.126-.416.256a14.98 15.023 0 0 0-.156.095l-.078.053a29 29 0 0 0-.895.594 14.98 15.023 0 0 0-.02.012 29 29 0 0 0-.501.357q-.069.05-.137.102l-.086.062a14.98 15.023 0 0 0-.248.184 14.98 15.023 0 0 0-.045.033q-.158.122-.316.246l-.01.006-.086.066-.117.094a14.98 15.023 0 0 0-.055.043q-.16.128-.32.258l-.008.008-.012.01q-.206.168-.408.341a14.98 15.023 0 0 0-.135.117l-.273.24-.033.03a14.98 15.023 0 0 0-.02.017l-.09.079a14.98 15.023 0 0 0-.003.005q-.163.146-.323.293a14.98 15.023 0 0 0-.13.121l-.067.065q-.136.128-.271.26a14.98 15.023 0 0 0-.17.166l-.069.066q-.143.143-.283.287l-.172.176-.09.092a14.98 15.023 0 0 0-.119.125l-.013.013a14.98 15.023 0 0 0-.14.149q-.135.145-.269.293l-.054.06-.024.03q-.134.147-.265.297a14.98 15.023 0 0 0-.125.144l-.061.07a30 30 0 0 0-.506.604l-.015.02-.034.04q-.016.023-.033.043a14.98 15.023 0 0 0-.082.1q-.132.166-.262.334l-.048.063a14.98 15.023 0 0 0-.018.021l-.016.02a14.98 15.023 0 0 0-.052.068q-.147.192-.29.387l-.013.02-.006.007-.145.195a14.98 15.023 0 0 0-.123.172q-.026.038-.054.074a14.98 15.023 0 0 0-.106.15q-.148.211-.293.425l.01-.012q-.125.183-.246.367l.01-.01-.12.178a14.98 15.023 0 0 0-.013.023l-.162.258q-.043.065-.084.13a14.98 15.023 0 0 0-.076.122l-.135.225-.043.07-.045.074a14.98 15.023 0 0 0-.004.01l-.002.002-.02.031a14.98 15.023 0 0 0-.09.147q-.095.165-.189.332l-.043.074-.023.041q-.031.057-.063.113a14.98 15.023 0 0 0-.064.114 30 30 0 0 0-.438.824 14.98 15.023 0 0 0-.021.039l-.104.203-.142.287a14.98 15.023 0 0 0-.033.072l-.008.014a14.98 15.023 0 0 0-.037.08q-.221.458-.426.922a14.98 15.023 0 0 0-.012.03 14.98 15.023 0 0 0-.027.062 36 36 0 0 0-.232.545 14.98 15.023 0 0 0-.006.015q-.09.218-.178.438c-.002.003 0 .006-.002.01l-.012.025-.025.066-.028.075a14.98 15.023 0 0 0-.144.37 14.98 15.023 0 0 0-.09.245l-.031.084-.123.351-.045.133.016-.039a14.98 15.023 0 0 0-.012.035 14.98 15.023 0 0 0-.002.006 14.98 15.023 0 0 0-.076.22 14.98 15.023 0 0 0-.006.017l-.002.007-.006.012a14.98 15.023 0 0 0-.004.014 14.98 15.023 0 0 0-.01.023 14.98 15.023 0 0 0-.002.008l-.025.08a14.98 15.023 0 0 0-.02.055l-30.699 94.012H65.457a14.98 15.023 0 0 0-.006 0c-26.15.009-38.48 34.823-19.414 52.353a14.98 15.023 0 0 0 .004.002l103.467 95.08L93.25 453.387a14.98 15.023 0 0 0 0 .006c-4.09 12.537.138 26.438 11.021 34.199s26.198 6.739 36.014-2.276a14.98 15.023 0 0 0 .004-.003L256 378.984l115.71 106.329a14.98 15.023 0 0 0 .003.003c9.816 9.015 25.132 10.036 36.016 2.276s15.114-21.662 11.023-34.2a14.98 15.023 0 0 0-.002-.005l-56.258-172.264 103.467-95.08a14.98 15.023 0 0 0 .002-.002c19.066-17.53 6.739-52.344-19.412-52.353a14.98 15.023 0 0 0-.004 0H314.344l-30.551-93.55.12.471a14.98 15.023 0 0 0-.278-.953l-.112-.336-.029-.086q-.001-.005-.004-.011a14.98 15.023 0 0 0-.035-.102 30 30 0 0 0-.203-.564v-.008q-.103-.279-.213-.555a14.98 15.023 0 0 0-.02-.049l-.08-.199a14.98 15.023 0 0 0-.005-.02l-.053-.126-.031-.079a14.98 15.023 0 0 0-.073-.177 30 30 0 0 0-.199-.467l-.002-.004a30 30 0 0 0-.224-.5l-.01-.02a14.98 15.023 0 0 0-.043-.091q-.107-.233-.217-.463a14.98 15.023 0 0 0-.025-.049 31 31 0 0 0-.272-.545 14.98 15.023 0 0 0-.002-.004q-.089-.173-.18-.344l-.019-.033q-.33-.625-.69-1.236a14.98 15.023 0 0 0-.035-.06l-.027-.044-.037-.062-.186-.307a14.98 15.023 0 0 0-.082-.129l-.084-.132a14.98 15.023 0 0 0-.05-.083l-.03-.044q-.035-.059-.072-.116l-.035-.052q-.122-.19-.246-.38a14.98 15.023 0 0 0-.12-.173l-.001-.004q-.325-.479-.67-.943l-.008-.012a30 30 0 0 0-.324-.432 14.98 15.023 0 0 0-.051-.07q-.166-.214-.336-.424l-.018-.023q-.095-.119-.191-.235l-.031-.039-.147-.178a14.98 15.023 0 0 0-.054-.064q-.312-.37-.635-.73l-.018-.02-.027-.031a14.98 15.023 0 0 0-.123-.137 30 30 0 0 0-.383-.414 14.98 15.023 0 0 0-.012-.01l-.222-.232-.006-.01c-.041-.043-.086-.085-.127-.127l-.037-.037a14.98 15.023 0 0 0-.073-.074l-.343-.34-.024-.024q-.3-.291-.61-.576l-.017-.015-.283-.258-.014-.012a29 29 0 0 0-.375-.33 14.98 15.023 0 0 0-.1-.086q-.202-.173-.41-.344l-.015-.013a29 29 0 0 0-.385-.31 14.98 15.023 0 0 0-.027-.022l-.049-.04a14.98 15.023 0 0 0-.039-.03l-.336-.26a14.98 15.023 0 0 0-.01-.01q-.043-.032-.088-.065a14.98 15.023 0 0 0-.052-.039 29 29 0 0 0-.469-.345l-.018-.012-.185-.131q-.031-.023-.063-.047a14.98 15.023 0 0 0-.107-.076l-.018-.014a14.98 15.023 0 0 0-.025-.015 14.98 15.023 0 0 0-.147-.106q-.2-.136-.404-.27l-.023-.017a29 29 0 0 0-.494-.318 14.98 15.023 0 0 0-.002 0q-.299-.19-.604-.373a14.98 15.023 0 0 0-.053-.032 29 29 0 0 0-.492-.285 14.98 15.023 0 0 0-.008-.004 14.98 15.023 0 0 0-.039-.023l-.119-.066q-.149-.085-.299-.166a14.98 15.023 0 0 0-.087-.05q-.23-.12-.46-.24a14.98 15.023 0 0 0-.06-.033l-.02-.01a29 29 0 0 0-.998-.488 14.98 15.023 0 0 0-.173-.08l-.045-.02a14.98 15.023 0 0 0-.02-.011l-.04-.018a14.98 15.023 0 0 0-.01-.004 14.98 15.023 0 0 0-.007 0l-.017-.007-.002-.002-.28-.125a14.98 15.023 0 0 0-.052-.024q-.274-.12-.55-.234l-.015-.006a29 29 0 0 0-.548-.219 14.98 15.023 0 0 0-.13-.05l-.107-.042.104.041-.326-.12q-.013-.006-.024-.01a14.98 15.023 0 0 0-.205-.077q-.28-.098-.56-.191l-.114-.037-.293-.096a14.98 15.023 0 0 0-.088-.027l-.191-.059-.143-.043-.082-.025-.025-.008a14.98 15.023 0 0 0-.223-.066l-.033-.01a14.98 15.023 0 0 0-.03-.008l-.013-.004a14.98 15.023 0 0 0-.299-.082l-.175-.049a14.98 15.023 0 0 0-.026-.007 29 29 0 0 0-1.142-.278 14.98 15.023 0 0 0-.006-.002q-.27-.06-.541-.115a14.98 15.023 0 0 0-.2-.04l-.066-.01-.156-.03-.29-.053q-.259-.045-.519-.086a14.98 15.023 0 0 0-.04-.004l-.239-.037-.393-.054-.01-.002q-.3-.04-.603-.073a14.98 15.023 0 0 0-.113-.011 28 28 0 0 0-1.059-.092 14.98 15.023 0 0 0-.023 0l-.322-.02q-.045-.002-.088-.006a14.98 15.023 0 0 0-.252-.013 29 29 0 0 0-.553-.018q-.262-.005-.523-.006h-.102a14.98 15.023 0 0 0-.186 0 14.98 15.023 0 0 0-.002 0m.077 15.022h.002a13 13 0 0 1 .673.012l.116.007.177.01a14 14 0 0 1 .83.082q.095.012.19.026a14 14 0 0 1 .965.175 14 14 0 0 1 .832.211l.03.008.118.037.197.06.196.063q.16.053.32.11.012.005.026.011.102.037.205.075l.05.019q.135.053.27.11.136.054.271.113.097.042.192.088l.1.043.019.01a14 14 0 0 1 .49.24l.041.021q.112.057.22.115.112.061.222.125l.056.032.239.136q.146.09.29.182a14 14 0 0 1 .46.3l.019.014.059.043.203.143q.118.086.234.174.022.015.043.031l.162.127.035.03a14 14 0 0 1 .442.36l.021.018q.096.083.19.168a15 15 0 0 1 .472.441l.182.18.012.014.1.1.113.119q.095.1.19.203.011.014.024.027l.024.03q.177.195.348.398l.09.107.13.162a15 15 0 0 1 .342.444q.18.243.352.496l.025.037q.07.107.14.217.07.105.137.213l.041.064q.06.094.116.19l.03.054q.187.314.358.637.054.1.104.201.07.136.138.274.057.116.11.234l.02.043q.063.139.124.28l.104.237.008.022.04.103a15 15 0 0 1 .296.78l.015.049q.041.118.08.238l.002.008 34.082 104.361h143.059c13.097.005 19.173 17.175 9.293 26.26L345.252 276.594l59.264 181.469c2.09 6.405-.154 13.496-5.47 17.287-5.314 3.79-12.376 3.335-17.216-1.11L256 358.61 130.17 474.24c-4.84 4.445-11.902 4.9-17.217 1.11s-7.559-10.882-5.469-17.288l59.264-181.468L56.162 174.969c-9.88-9.085-3.804-26.255 9.293-26.26h143.059l34.078-104.36.006-.013.011-.035.006-.018q.044-.138.092-.275.042-.123.088-.244.007-.022.016-.043l.003-.01a15 15 0 0 1 .29-.717l.054-.127v-.002q.113-.258.237-.511.01-.021.021-.041.035-.075.072-.149l.053-.103a15 15 0 0 1 .236-.446l.067-.113.129-.225.021-.035q.015-.027.031-.054l.116-.19.164-.258.058-.09.121-.183.147-.213.025-.037.004-.004.176-.242q.076-.104.154-.203l.014-.02.064-.082.131-.166.041-.05a15 15 0 0 1 .322-.386l.032-.035q.084-.096.17-.191l.172-.19.044-.044a15 15 0 0 1 .409-.416q.016-.018.033-.034.09-.088.183-.174.018-.016.034-.033l.158-.142.043-.04.1-.085.132-.12a14 14 0 0 1 .375-.308l.104-.082q.099-.078.199-.154l.006-.004a14 14 0 0 1 .974-.674l.04-.026a14 14 0 0 1 .468-.28q.02-.013.04-.024.088-.05.177-.098l.053-.031q.124-.067.25-.131l.04-.021.25-.125q.12-.06.243-.116l.04-.02.19-.085.053-.024.069-.029.228-.096q.116-.047.233-.093l.037-.016a14 14 0 0 1 .431-.156l.13-.045q.117-.04.236-.076l.005-.002q.11-.035.22-.069l.067-.021.108-.03.207-.056.24-.06.024-.006a13 13 0 0 1 .51-.116l.052-.01.108-.02a14 14 0 0 1 .593-.1l.198-.028q.123-.016.248-.031a13 13 0 0 1 .582-.05l.045-.005.134-.006.114-.007q.146-.007.293-.01.122-.002.246-.002M256 95.064l-17.52 53.645h35.04zm-152.672 83.579 73.385 67.435 22.025-67.435zm125.377 0-28.941 88.619L256 318.938l56.236-51.676-28.941-88.62zm84.557 0 22.025 67.435 73.385-67.435zm-171.416 15.021h36.222l-8.361 25.604zm97.715 0h32.878l22.557 69.066L256 298.564l-38.994-35.834zm94.369 0h36.222l-27.861 25.602zM189.799 297.775l-38.26 117.157 82.877-76.159zm132.402 0-44.617 40.998 82.877 76.159zm-125.396 26.81 15.441 14.188-28.68 26.354zm118.388 0 13.243 40.544-28.682-26.356z" style="color:#000;font-style:normal;font-variant:normal;font-weight:400;font-stretch:normal;font-size:medium;line-height:normal;font-family:sans-serif;font-variant-ligatures:normal;font-variant-position:normal;font-variant-caps:normal;font-variant-numeric:normal;font-variant-alternates:normal;font-variant-east-asian:normal;font-feature-settings:normal;font-variation-settings:normal;text-indent:0;text-align:start;text-decoration:none;text-decoration-line:none;text-decoration-style:solid;text-decoration-color:#000;letter-spacing:normal;word-spacing:normal;text-transform:none;writing-mode:lr-tb;direction:ltr;text-orientation:mixed;dominant-baseline:auto;baseline-shift:baseline;text-anchor:start;white-space:normal;shape-padding:0;shape-margin:0;inline-size:0;clip-rule:nonzero;display:inline;overflow:visible;visibility:visible;isolation:auto;mix-blend-mode:normal;color-interpolation:sRGB;color-interpolation-filters:linearRGB;solid-color:#000;solid-opacity:1;vector-effect:none;fill:#000;fill-opacity:1;fill-rule:nonzero;stroke:none;stroke-width:29.9999;stroke-linecap:butt;stroke-linejoin:round;stroke-miterlimit:4;stroke-dasharray:none;stroke-dashoffset:0;stroke-opacity:1;paint-order:stroke fill markers;color-rendering:auto;image-rendering:auto;shape-rendering:auto;text-rendering:auto;stop-color:#000"/></g></svg>