<svg xmlns="http://www.w3.org/2000/svg" width="512" height="512" viewBox="0 0 512 512"><title>Profan Skill</title><g style="stroke-width:1.54493;stroke-miterlimit:4;stroke-dasharray:none"><path d="M256 71.021c-102.285 0-185.02 82.74-185.02 184.979 0 102.238 82.735 184.979 185.02 184.979 34.573 0 66.906-9.464 94.572-25.928a14.98 15.023 0 0 1-3.242-8.108c-7.65 4.157-16.187 6.577-25.264 6.577-19.134 0-35.874-10.74-46.949-25.874-11.075-15.132-17.35-34.95-17.35-56.537s6.275-41.404 17.35-56.537 27.816-25.869 46.95-25.869c19.133 0 35.874 10.739 46.949 25.871 11.075 15.133 17.347 34.948 17.347 56.535 0 7.615-.796 15.001-2.293 22.047a14.98 15.023 0 0 1 1.336-1.453c5.692-5.426 11.628-6.432 17.455-6.351a14.98 15.023 0 0 0 .002 0c3.759.052 7.055.677 10.276 2.037a14.98 15.023 0 0 1 6.535-5.01C433.299 316.6 441.02 287.213 441.02 256c0-102.238-82.736-184.979-185.021-184.979m124.387 295.07c-2.384 6.573-5.441 12.715-9.117 18.296 2.776.152 5.395.704 7.402 1.513.48-6.873 1.15-13.535 1.715-19.808" style="color:#000;font-style:normal;font-variant:normal;font-weight:400;font-stretch:normal;font-size:medium;line-height:normal;font-family:sans-serif;font-variant-ligatures:normal;font-variant-position:normal;font-variant-caps:normal;font-variant-numeric:normal;font-variant-alternates:normal;font-variant-east-asian:normal;font-feature-settings:normal;font-variation-settings:normal;text-indent:0;text-align:start;text-decoration:none;text-decoration-line:none;text-decoration-style:solid;text-decoration-color:#000;letter-spacing:normal;word-spacing:normal;text-transform:none;writing-mode:lr-tb;direction:ltr;text-orientation:mixed;dominant-baseline:auto;baseline-shift:baseline;text-anchor:start;white-space:normal;shape-padding:0;shape-margin:0;inline-size:0;clip-rule:nonzero;display:inline;overflow:visible;visibility:visible;isolation:auto;mix-blend-mode:normal;color-interpolation:sRGB;color-interpolation-filters:linearRGB;solid-color:#000;solid-opacity:1;vector-effect:none;fill:#fff;fill-opacity:1;fill-rule:evenodd;stroke:none;stroke-width:15.0001;stroke-linecap:round;stroke-linejoin:round;stroke-miterlimit:4;stroke-dasharray:none;stroke-dashoffset:0;stroke-opacity:1;paint-order:normal;color-rendering:auto;image-rendering:auto;shape-rendering:auto;text-rendering:auto;stop-color:#000"/><path d="M447.55 349.821c-1.015.012-2.094.117-3.22.278-7.296 15.701-11.764 31.884-15.948 47.508-2.493-1.11-1.244-.147-3.746-1.246-1.06-13.662 1.576-26.516 2.503-39.532-1.796-1.301-4.705-2.268-7.671-2.31-3.105-.042-5.984.857-7.656 2.447-1.46 18.054-4.093 37.886-2.379 55.915 5.882 7.644 18.957 12.086 20.682 23.331l-4.96.698c-1.138-7.414-11.367-9.884-15.567-15.584l-2.034-2.713c-1.344-1.764-2.718-3.545-4.073-5.385-5.74-7.33-11.83-13.239-16.675-15.226-2.631-1.079-4.633-1.128-6.608-.114-1.74.893-3.626 2.954-5.376 6.528 14.328 13.285 18.933 26.75 22.19 35.651 1.553 4.245 5.189 8.105 7.924 12.091 4.188 6.105 11.048 11.033 20.335 12.73 9.288 1.696 20.312 1.351 25.19-3.931 5.293-3.003 9.26-8.897 13.19-16.026 3.93-7.13 5.844-17.777 12.43-24.778 3.793-4.034 9.626-9.635 12.195-11.327 1.285-.846 2.328-2.018 3.115-2.475.053-.03.091-.047.141-.076.352-2.538-.12-3.77-1.288-6.01-1.17-2.241-2.894-3.768-4.766-4.374-9.579 5.472-15.725 15.025-24.647 22.995-1.541-1.87-1.055-1.044-2.817-2.68 8.249-15.122 16.63-28.732 28.511-39.7-.418-2.456-2.081-5.095-4.322-7.025-2.254-1.94-4.97-3.008-6.936-2.988-12.237 11.925-20.888 25.944-29.375 40.742-1.856-1.12-2.152-1.674-4.096-2.702 5.068-16.639 9.923-33.534 18.108-48.437-3.422-3.92-6.835-6-11.36-6.254a15 15 0 0 0-.993-.02z" style="color:#000;font-style:normal;font-variant:normal;font-weight:400;font-stretch:normal;font-size:medium;line-height:normal;font-family:sans-serif;font-variant-ligatures:normal;font-variant-position:normal;font-variant-caps:normal;font-variant-numeric:normal;font-variant-alternates:normal;font-variant-east-asian:normal;font-feature-settings:normal;font-variation-settings:normal;text-indent:0;text-align:start;text-decoration:none;text-decoration-line:none;text-decoration-style:solid;text-decoration-color:#000;letter-spacing:normal;word-spacing:normal;text-transform:none;writing-mode:lr-tb;direction:ltr;text-orientation:mixed;dominant-baseline:auto;baseline-shift:baseline;text-anchor:start;white-space:normal;shape-padding:0;shape-margin:0;inline-size:0;clip-rule:nonzero;display:inline;overflow:visible;visibility:visible;isolation:auto;mix-blend-mode:normal;color-interpolation:sRGB;color-interpolation-filters:linearRGB;solid-color:#000;solid-opacity:1;vector-effect:none;fill:#fff;fill-opacity:1;fill-rule:nonzero;stroke:none;stroke-width:33.1057;stroke-linecap:round;stroke-linejoin:round;stroke-miterlimit:4;stroke-dasharray:none;stroke-dashoffset:0;stroke-opacity:1;paint-order:stroke fill markers;color-rendering:auto;image-rendering:auto;shape-rendering:auto;text-rendering:auto;stop-color:#000" transform="matrix(.90492 0 0 .90747 23.072 38.656)"/><path d="M330.41 248.018c-30.1 0-54.501 33.246-54.501 74.257s24.401 74.26 54.501 74.26 54.5-33.248 54.5-74.26c0-41.011-24.4-74.257-54.5-74.257m-19.639 58.128c3.393 0 6.502.586 9.077 1.762 2.224 1.017 4.248 2.743 4.786 5.059.152.354.23.727.23 1.104s-.078.75-.23 1.104c-.538 2.315-2.562 4.042-4.786 5.058-2.575 1.177-5.684 1.762-9.077 1.762s-6.503-.585-9.078-1.762c-2.576-1.176-5.016-3.253-5.016-6.162 0-2.91 2.44-4.986 5.016-6.163 2.575-1.176 5.686-1.762 9.078-1.762m38.122 0c3.392 0 6.5.586 9.076 1.762 2.224 1.016 4.249 2.742 4.787 5.057.153.354.23.729.23 1.106s-.078.751-.23 1.106c-.54 2.314-2.563 4.04-4.787 5.056-2.575 1.177-5.684 1.762-9.076 1.762s-6.504-.585-9.08-1.762c-2.575-1.176-5.015-3.253-5.015-6.162 0-2.91 2.44-4.986 5.016-6.163 2.575-1.176 5.686-1.762 9.079-1.762m-41.406 47.525c23.674 1.46 23.955 1.648 45.846 0 2.582 3.91-1.827 6.368-9.312 10.38-7.42 3.978-18.033 4.564-27.223 0-7.607-3.778-11.893-6.47-9.31-10.38" style="color:#000;font-style:normal;font-variant:normal;font-weight:400;font-stretch:normal;font-size:medium;line-height:normal;font-family:sans-serif;font-variant-ligatures:normal;font-variant-position:normal;font-variant-caps:normal;font-variant-numeric:normal;font-variant-alternates:normal;font-variant-east-asian:normal;font-feature-settings:normal;font-variation-settings:normal;text-indent:0;text-align:start;text-decoration:none;text-decoration-line:none;text-decoration-style:solid;text-decoration-color:#000;letter-spacing:normal;word-spacing:normal;text-transform:none;writing-mode:lr-tb;direction:ltr;text-orientation:mixed;dominant-baseline:auto;baseline-shift:baseline;text-anchor:start;white-space:normal;shape-padding:0;shape-margin:0;inline-size:0;clip-rule:nonzero;display:inline;overflow:visible;visibility:visible;isolation:auto;mix-blend-mode:normal;color-interpolation:sRGB;color-interpolation-filters:linearRGB;solid-color:#000;solid-opacity:1;vector-effect:none;fill:#fff;fill-opacity:1;fill-rule:evenodd;stroke:none;stroke-width:33.1057;stroke-linecap:round;stroke-linejoin:round;stroke-miterlimit:4;stroke-dasharray:none;stroke-dashoffset:0;stroke-opacity:1;paint-order:stroke fill markers;color-rendering:auto;image-rendering:auto;shape-rendering:auto;text-rendering:auto;stop-color:#000" transform="matrix(.90492 0 0 .90747 23.072 38.656)"/><path d="M256 56C145.644 56 56 145.62 56 256s89.644 200 200 200c38.308 0 74.113-10.809 104.545-29.527-2.109-3.147-4.808-6.397-8.477-9.809a14.98 15.023 0 0 1-1.496-1.613c-27.666 16.464-59.999 25.928-94.572 25.928-102.285 0-185.02-82.74-185.02-184.979 0-102.238 82.735-184.979 185.02-184.979S441.021 153.761 441.021 256c0 31.213-7.722 60.6-21.347 86.379a14.98 15.023 0 0 1 3.353-.889c1.446-.208 3.034-.382 4.858-.404h.008a14.98 15.023 0 0 1 .258-.002 14.98 15.023 0 0 1 .7.023c.316.007.623.001.946.02a14.98 15.023 0 0 1 .01 0c2.232.126 4.435.594 6.555 1.305 12.52-26.054 19.565-55.227 19.627-86.028l.002-.021A7.49 7.51 0 0 0 456 256a7.49 7.51 0 0 0-.01-.35C455.8 145.432 366.24 56 256 56" style="color:#000;font-style:normal;font-variant:normal;font-weight:400;font-stretch:normal;font-size:medium;line-height:normal;font-family:sans-serif;font-variant-ligatures:normal;font-variant-position:normal;font-variant-caps:normal;font-variant-numeric:normal;font-variant-alternates:normal;font-variant-east-asian:normal;font-feature-settings:normal;font-variation-settings:normal;text-indent:0;text-align:start;text-decoration:none;text-decoration-line:none;text-decoration-style:solid;text-decoration-color:#000;letter-spacing:normal;word-spacing:normal;text-transform:none;writing-mode:lr-tb;direction:ltr;text-orientation:mixed;dominant-baseline:auto;baseline-shift:baseline;text-anchor:start;white-space:normal;shape-padding:0;shape-margin:0;inline-size:0;clip-rule:nonzero;display:inline;overflow:visible;visibility:visible;isolation:auto;mix-blend-mode:normal;color-interpolation:sRGB;color-interpolation-filters:linearRGB;solid-color:#000;solid-opacity:1;vector-effect:none;fill:#000100;fill-opacity:1;fill-rule:evenodd;stroke:none;stroke-width:15.0001;stroke-linecap:round;stroke-linejoin:round;stroke-miterlimit:4;stroke-dasharray:none;stroke-dashoffset:0;stroke-opacity:1;paint-order:normal;color-rendering:auto;image-rendering:auto;shape-rendering:auto;text-rendering:auto;stop-color:#000"/><path d="m447.642 333.267-.284.002h-.01c-2.015.023-3.77.216-5.367.445a16.56 16.56 0 0 0-10.928 6.5c-3.559-1.498-7.201-2.187-11.355-2.245h-.002c-6.44-.088-13 1.02-19.29 7a16.56 16.56 0 0 0-5.093 10.664c-.676 8.363-1.683 17.524-2.348 27.02-5.213-2.096-14.158-2.659-20.328.51-6.616 3.397-9.971 8.437-12.682 13.973a16.555 16.555 0 0 0 3.61 19.417c11.537 10.697 14.524 19.97 17.902 29.203 3.305 9.03 8.137 13.313 9.82 15.767h-.001c6.607 9.631 17.566 17.192 31.009 19.649h.002c5.977 1.091 12.399 1.605 19.164.807 6.065-.716 12.964-2.544 19.045-7.97 8.903-5.79 13.6-13.756 17.64-21.086 6.198-11.243 8.048-19.363 9.991-21.428 3.23-3.434 11.057-10.036 9.242-8.844 3.646-2.4 6.41-4.342 2.39-2.019a16.56 16.56 0 0 0 8.16-12.087c.727-5.251-1.534-13.106-3.008-15.934v-.002c-1.237-2.37-2.904-4.58-4.876-6.555a16.56 16.56 0 0 0 2.8-12.329c-1.31-7.678-5.013-12.63-9.839-16.785l-.002-.002c-4.924-4.242-9.736-7.018-17.728-6.982a16.6 16.6 0 0 0-2.903-4.746c-5.1-5.84-13.792-11.384-22.9-11.896h-.011c-.358-.02-.697-.014-1.045-.021a17 17 0 0 0-.775-.026zm-.092 16.555h.002q.508-.007.992.02c4.526.254 7.938 2.334 11.36 6.254-8.185 14.904-13.04 31.798-18.109 48.437 1.944 1.028 2.241 1.582 4.097 2.703 8.487-14.798 17.138-28.817 29.375-40.742 1.965-.02 4.681 1.046 6.935 2.987 2.24 1.93 3.904 4.57 4.323 7.025-11.881 10.968-20.263 24.58-28.512 39.701 1.762 1.636 1.276.81 2.817 2.68 8.922-7.97 15.07-17.523 24.648-22.995 1.872.606 3.597 2.132 4.766 4.373 1.168 2.24 1.64 3.473 1.288 6.011-.05.03-.09.045-.142.076-.787.457-1.83 1.627-3.115 2.473-2.569 1.692-8.4 7.294-12.194 11.327-6.586 7.001-8.5 17.65-12.43 24.78-3.93 7.129-7.899 13.022-13.192 16.026-4.877 5.282-15.9 5.626-25.188 3.93s-16.147-6.624-20.336-12.729c-2.735-3.986-6.37-7.847-7.923-12.092-3.258-8.9-7.862-22.366-22.19-35.652 1.75-3.573 3.636-5.633 5.376-6.526 1.974-1.014 3.977-.967 6.609.112 4.845 1.987 10.933 7.897 16.673 15.227 1.355 1.84 2.73 3.621 4.073 5.385l2.035 2.712c4.2 5.7 14.429 8.17 15.566 15.585l4.96-.697c-1.724-11.246-14.799-15.689-20.681-23.333-1.714-18.03.92-37.86 2.379-55.915 1.672-1.59 4.55-2.487 7.655-2.444 2.966.04 5.875 1.006 7.671 2.307-.927 13.016-3.561 25.87-2.502 39.533 2.503 1.1 1.252.137 3.745 1.246 4.185-15.624 8.652-31.806 15.948-47.507 1.126-.162 2.205-.266 3.22-.278z" style="color:#000;font-style:normal;font-variant:normal;font-weight:400;font-stretch:normal;font-size:medium;line-height:normal;font-family:sans-serif;font-variant-ligatures:normal;font-variant-position:normal;font-variant-caps:normal;font-variant-numeric:normal;font-variant-alternates:normal;font-variant-east-asian:normal;font-feature-settings:normal;font-variation-settings:normal;text-indent:0;text-align:start;text-decoration:none;text-decoration-line:none;text-decoration-style:solid;text-decoration-color:#000;letter-spacing:normal;word-spacing:normal;text-transform:none;writing-mode:lr-tb;direction:ltr;text-orientation:mixed;dominant-baseline:auto;baseline-shift:baseline;text-anchor:start;white-space:normal;shape-padding:0;shape-margin:0;inline-size:0;clip-rule:nonzero;display:inline;overflow:visible;visibility:visible;isolation:auto;mix-blend-mode:normal;color-interpolation:sRGB;color-interpolation-filters:linearRGB;solid-color:#000;solid-opacity:1;vector-effect:none;fill:#000;fill-opacity:1;fill-rule:nonzero;stroke:none;stroke-width:33.1057;stroke-linecap:round;stroke-linejoin:round;stroke-miterlimit:4;stroke-dasharray:none;stroke-dashoffset:0;stroke-opacity:1;paint-order:stroke fill markers;color-rendering:auto;image-rendering:auto;shape-rendering:auto;text-rendering:auto;stop-color:#000" transform="matrix(.90492 0 0 .90747 23.072 38.656)"/><path d="M348.892 306.146c-3.392 0-6.503.585-9.078 1.762-2.576 1.177-5.016 3.253-5.016 6.162 0 2.91 2.44 4.986 5.016 6.163s5.686 1.762 9.078 1.762 6.502-.585 9.078-1.762c2.223-1.016 4.247-2.742 4.785-5.056.153-.355.231-.73.231-1.107s-.077-.751-.23-1.106c-.538-2.314-2.563-4.04-4.786-5.056-2.576-1.177-5.686-1.763-9.078-1.763" style="color:#000;font-style:normal;font-variant:normal;font-weight:400;font-stretch:normal;font-size:medium;line-height:normal;font-family:sans-serif;font-variant-ligatures:normal;font-variant-position:normal;font-variant-caps:normal;font-variant-numeric:normal;font-variant-alternates:normal;font-variant-east-asian:normal;font-feature-settings:normal;font-variation-settings:normal;text-indent:0;text-align:start;text-decoration:none;text-decoration-line:none;text-decoration-style:solid;text-decoration-color:#000;letter-spacing:normal;word-spacing:normal;text-transform:none;writing-mode:lr-tb;direction:ltr;text-orientation:mixed;dominant-baseline:auto;baseline-shift:baseline;text-anchor:start;white-space:normal;shape-padding:0;shape-margin:0;inline-size:0;clip-rule:nonzero;display:inline;overflow:visible;visibility:visible;isolation:auto;mix-blend-mode:normal;color-interpolation:sRGB;color-interpolation-filters:linearRGB;solid-color:#000;solid-opacity:1;vector-effect:none;fill-opacity:1;fill-rule:evenodd;stroke:none;stroke-width:16.5528;stroke-linecap:round;stroke-linejoin:round;stroke-miterlimit:4;stroke-dasharray:none;stroke-dashoffset:0;stroke-opacity:1;paint-order:stroke fill markers;color-rendering:auto;image-rendering:auto;shape-rendering:auto;text-rendering:auto;stop-color:#000" transform="matrix(.90492 0 0 .90747 23.072 38.656)"/><path d="M353.333 353.671c2.582 3.91-1.827 6.368-9.311 10.38-7.421 3.978-18.034 4.564-27.224 0-7.606-3.778-11.893-6.47-9.311-10.38 23.674 1.459 23.954 1.648 45.846 0" style="fill:#000;fill-opacity:1;fill-rule:evenodd;stroke:none;stroke-width:33.1057;stroke-linecap:round;stroke-linejoin:round;stroke-miterlimit:4;stroke-dasharray:none;stroke-opacity:1;paint-order:stroke fill markers;stop-color:#000" transform="matrix(.90492 0 0 .90747 23.072 38.656)"/><path d="M310.77 306.146c-3.391 0-6.502.585-9.078 1.762s-5.016 3.253-5.016 6.162c0 2.91 2.44 4.986 5.016 6.163s5.687 1.762 9.079 1.762 6.502-.585 9.077-1.762c2.224-1.016 4.248-2.743 4.786-5.058.152-.354.23-.728.23-1.105 0-.376-.078-.75-.23-1.104-.538-2.315-2.561-4.042-4.786-5.058-2.575-1.177-5.685-1.763-9.077-1.763" style="color:#000;font-style:normal;font-variant:normal;font-weight:400;font-stretch:normal;font-size:medium;line-height:normal;font-family:sans-serif;font-variant-ligatures:normal;font-variant-position:normal;font-variant-caps:normal;font-variant-numeric:normal;font-variant-alternates:normal;font-variant-east-asian:normal;font-feature-settings:normal;font-variation-settings:normal;text-indent:0;text-align:start;text-decoration:none;text-decoration-line:none;text-decoration-style:solid;text-decoration-color:#000;letter-spacing:normal;word-spacing:normal;text-transform:none;writing-mode:lr-tb;direction:ltr;text-orientation:mixed;dominant-baseline:auto;baseline-shift:baseline;text-anchor:start;white-space:normal;shape-padding:0;shape-margin:0;inline-size:0;clip-rule:nonzero;display:inline;overflow:visible;visibility:visible;isolation:auto;mix-blend-mode:normal;color-interpolation:sRGB;color-interpolation-filters:linearRGB;solid-color:#000;solid-opacity:1;vector-effect:none;fill-opacity:1;fill-rule:evenodd;stroke:none;stroke-width:16.5528;stroke-linecap:round;stroke-linejoin:round;stroke-miterlimit:4;stroke-dasharray:none;stroke-dashoffset:0;stroke-opacity:1;paint-order:stroke fill markers;color-rendering:auto;image-rendering:auto;shape-rendering:auto;text-rendering:auto;stop-color:#000" transform="matrix(.90492 0 0 .90747 23.072 38.656)"/><path d="M330.41 231.465c-21.144 0-39.643 11.83-51.882 28.507-12.239 16.675-19.172 38.513-19.172 62.302s6.933 45.626 19.172 62.302 30.738 28.511 51.883 28.511c21.144 0 39.643-11.835 51.882-28.51 12.239-16.677 19.17-38.515 19.17-62.303 0-23.789-6.931-45.625-19.17-62.3-12.239-16.676-30.738-28.51-51.882-28.51m0 16.553c30.1 0 54.501 33.244 54.501 74.256s-24.4 74.26-54.5 74.26-54.5-33.248-54.5-74.26 24.4-74.256 54.5-74.256" style="color:#000;font-style:normal;font-variant:normal;font-weight:400;font-stretch:normal;font-size:medium;line-height:normal;font-family:sans-serif;font-variant-ligatures:normal;font-variant-position:normal;font-variant-caps:normal;font-variant-numeric:normal;font-variant-alternates:normal;font-variant-east-asian:normal;font-feature-settings:normal;font-variation-settings:normal;text-indent:0;text-align:start;text-decoration:none;text-decoration-line:none;text-decoration-style:solid;text-decoration-color:#000;letter-spacing:normal;word-spacing:normal;text-transform:none;writing-mode:lr-tb;direction:ltr;text-orientation:mixed;dominant-baseline:auto;baseline-shift:baseline;text-anchor:start;white-space:normal;shape-padding:0;shape-margin:0;inline-size:0;clip-rule:nonzero;display:inline;overflow:visible;visibility:visible;isolation:auto;mix-blend-mode:normal;color-interpolation:sRGB;color-interpolation-filters:linearRGB;solid-color:#000;solid-opacity:1;vector-effect:none;fill:#000;fill-opacity:1;fill-rule:evenodd;stroke:none;stroke-width:33.1057;stroke-linecap:round;stroke-linejoin:round;stroke-miterlimit:4;stroke-dasharray:none;stroke-dashoffset:0;stroke-opacity:1;paint-order:stroke fill markers;color-rendering:auto;image-rendering:auto;shape-rendering:auto;text-rendering:auto;stop-color:#000" transform="matrix(.90492 0 0 .90747 23.072 38.656)"/></g></svg>