<svg xmlns="http://www.w3.org/2000/svg" width="512" height="512" viewBox="0 0 512 512"><title>Profan Skill</title><g style="stroke-width:1.54493;stroke-miterlimit:4;stroke-dasharray:none"><path d="M390.458 209.327c-3.094.036-5.968.338-8.718.732a16.91 16.207 0 0 0-12.943 9.436c-1.693 3.642-3.282 7.29-4.83 10.938a16.91 16.207 0 0 0-3.815-3.855c-7.373-5.34-15.66-7.747-25.248-7.88a16.91 16.207 0 0 0-.002 0c-9.745-.133-19.457 2.01-27.417 9.578a16.91 16.207 0 0 0-4.95 10.254c-2.063 25.526-5.46 53.585-5.853 81.685-6.207-5.685-12.858-10.358-20.504-13.494a16.91 16.207 0 0 0-.002-.002c-7.93-3.251-19.483-3.888-27.813.39-8.526 4.377-13.63 11.402-18.044 20.414a16.91 16.207 0 0 0 3.549 18.53c25.772 23.899 33.443 46.753 40.054 64.819 4.765 13.02 13.204 21.197 17.632 27.65 10.715 15.618 28.582 28.213 51.513 32.403a16.91 16.207 0 0 0 .002 0c10.676 1.95 22.238 2.813 33.647 1.466 10.632-1.255 21.808-4.419 30.515-12.664 14.328-8.986 22.654-22.73 30.493-36.949 10.027-18.189 13.88-37.081 22.395-46.134 7.008-7.45 20.725-19.679 21.337-20.083v-.002c4.847-3.19 8.721-6.281 5.733-4.612a16.91 16.207 0 0 0 7.947-11.698c1.054-7.613-1.582-16.331-4.207-21.363-3.931-7.538-10.305-13.947-19.213-16.831a16.91 16.207 0 0 0-2.398-.592c3.466-3.828 7.023-7.552 10.804-11.044a16.91 16.207 0 0 0 4.956-14.282c-1.673-9.815-6.929-17.356-14.003-23.45-7.228-6.225-14.844-10.216-25.311-10.11a16.91 16.207 0 0 0-11.878 4.842 243 243 0 0 0-9.557 9.862c1.889-3.978 3.85-7.89 5.935-11.687a16.91 16.207 0 0 0-1.996-17.948c-8.486-9.719-20.725-17.468-34.633-18.25a16.91 16.207 0 0 0-.009 0c-.674-.037-1.336-.034-2-.042a16.91 16.207 0 0 0-1.086-.026 16.91 16.207 0 0 0-.082 0zm.207 16.205c.674-.008 1.337.005 1.981.04 9.026.508 15.83 4.657 22.654 12.473-16.322 29.722-26.003 63.415-36.11 96.597 3.876 2.05 4.467 3.154 8.168 5.39 16.926-29.512 34.179-57.47 58.582-81.251 3.92-.04 9.337 2.088 13.831 5.96 4.47 3.848 7.786 9.112 8.62 14.008-23.693 21.874-40.41 49.015-56.859 79.172 3.513 3.263 2.545 1.617 5.618 5.347 17.793-15.896 30.051-34.949 49.154-45.861 3.733 1.208 7.172 4.255 9.504 8.725 2.33 4.467 3.269 6.924 2.568 11.986-.1.058-.175.09-.28.15-1.57.912-3.652 3.25-6.214 4.936-5.124 3.374-16.754 14.544-24.32 22.588-13.134 13.962-16.951 35.197-24.79 49.415-7.837 14.217-15.749 25.971-26.305 31.961-9.727 10.534-31.712 11.222-50.234 7.839-18.521-3.384-32.2-13.21-40.553-25.387-5.454-7.948-12.706-15.648-15.803-24.112-6.496-17.75-15.68-44.605-44.253-71.1 3.49-7.126 7.253-11.236 10.723-13.017 3.937-2.022 7.93-1.924 13.178.228 9.663 3.963 21.805 15.746 33.252 30.364 2.702 3.669 5.444 7.222 8.124 10.74l4.056 5.409c8.375 11.367 28.775 16.293 31.043 31.079l9.892-1.393c-3.44-22.426-29.514-31.282-41.244-46.528-3.42-35.954 1.834-75.505 4.744-111.51 3.335-3.17 9.077-4.962 15.268-4.877 5.915.082 11.716 2.01 15.299 4.604-1.848 25.959-7.106 51.592-4.993 78.838 4.99 2.192 2.499.272 7.47 2.484 8.346-31.159 17.255-63.43 31.806-94.742 2.245-.322 4.399-.531 6.423-.555m-268.88-100.637c-6.694 0-12.831 1.156-17.912 3.477-5.082 2.322-9.897 6.419-9.897 12.159s4.815 9.836 9.897 12.158c5.08 2.321 11.218 3.477 17.911 3.477s12.829-1.156 17.91-3.477c4.388-2.005 8.38-5.41 9.442-9.979.3-.698.454-1.436.454-2.18 0-.742-.154-1.479-.454-2.177-1.061-4.569-5.054-7.976-9.442-9.98-5.081-2.322-11.217-3.478-17.91-3.478m83.972 93.766c5.095 7.715-3.603 12.564-18.37 20.48-14.641 7.848-35.58 9.004-53.711 0-15.008-7.453-23.465-12.765-18.37-20.48 46.707 2.879 47.26 3.25 90.451 0m-8.76-93.766c-6.694 0-12.831 1.156-17.912 3.477-5.082 2.322-9.897 6.419-9.897 12.159s4.815 9.836 9.897 12.158c5.08 2.321 11.218 3.477 17.911 3.477s12.829-1.156 17.91-3.477c4.387-2.004 8.38-5.41 9.442-9.976.301-.7.456-1.438.456-2.182 0-.745-.154-1.483-.454-2.183-1.063-4.566-5.057-7.971-9.444-9.976-5.081-2.321-11.217-3.477-17.91-3.477M160.53-6.343c-35.788 0-67.54 19.92-89.375 49.67C49.32 73.079 36.45 112.98 36.45 156.72s12.87 83.64 34.705 113.39c21.834 29.752 53.587 49.671 89.375 49.671s67.544-19.92 89.38-49.67c21.638-29.484 34.431-68.948 34.66-112.227a17 17 0 0 0 .043-1.164 17 17 0 0 0-.043-1.167c-.23-43.277-13.023-82.741-34.66-112.224-21.836-29.75-53.593-49.67-89.38-49.67m.002 16.554c59.386 0 107.527 65.593 107.527 146.508s-48.141 146.51-107.527 146.51-107.53-65.595-107.53-146.51S101.147 10.21 160.533 10.21m96.871 8.901c-9.496 0-18.854.601-28.037 1.763 5.291 4.609 10.26 9.712 14.867 15.221 4.355-.275 8.744-.43 13.17-.43 113.032 0 204.463 91.177 204.463 203.84 0 2.26-.05 4.508-.123 6.75 3.291 1.678 6.347 3.86 9.332 6.431 2.372 2.042 4.532 4.252 6.428 6.65.573-6.389.89-12.851.902-19.385l.002-.024a8 8 0 0 0 .011-.421 8 8 0 0 0-.01-.386c-.21-121.458-99.182-220.009-221.005-220.009m-217.03 178.66a220.5 220.5 0 0 0-3.985 41.735c0 121.635 99.063 220.394 221.015 220.394 16.84 0 33.24-1.892 49.005-5.459a74.6 74.6 0 0 1-13.57-14.146c-11.508 2-23.346 3.051-35.435 3.051-113.033 0-204.46-91.177-204.46-203.84 0-.387.012-.772.014-1.158-5.531-12.605-9.783-26.223-12.585-40.577M469.62 301.133q-.151.164-.302.33a16.91 16.207 0 0 1 .194.034zm-6.82 18.413c-2.91 1.89-5.655 3.984-8.308 6.205 2.652-2.22 5.398-4.315 8.307-6.205M322.144 445.61a62 62 0 0 0 5.17 3.006l.003-.002a62 62 0 0 1-5.173-3.004z" style="color:#000;font-style:normal;font-variant:normal;font-weight:400;font-stretch:normal;font-size:medium;line-height:normal;font-family:sans-serif;font-variant-ligatures:normal;font-variant-position:normal;font-variant-caps:normal;font-variant-numeric:normal;font-variant-alternates:normal;font-variant-east-asian:normal;font-feature-settings:normal;font-variation-settings:normal;text-indent:0;text-align:start;text-decoration:none;text-decoration-line:none;text-decoration-style:solid;text-decoration-color:#000;letter-spacing:normal;word-spacing:normal;text-transform:none;writing-mode:lr-tb;direction:ltr;text-orientation:mixed;dominant-baseline:auto;baseline-shift:baseline;text-anchor:start;white-space:normal;shape-padding:0;shape-margin:0;inline-size:0;clip-rule:nonzero;display:inline;overflow:visible;visibility:visible;isolation:auto;mix-blend-mode:normal;color-interpolation:sRGB;color-interpolation-filters:linearRGB;solid-color:#000;solid-opacity:1;vector-effect:none;fill:#000100;fill-opacity:1;fill-rule:nonzero;stroke:none;stroke-width:33.1057;stroke-linecap:round;stroke-linejoin:round;stroke-miterlimit:4;stroke-dasharray:none;stroke-dashoffset:0;stroke-opacity:1;paint-order:stroke fill markers;color-rendering:auto;image-rendering:auto;shape-rendering:auto;text-rendering:auto;stop-color:#000" transform="matrix(.90492 0 0 .90747 23.072 38.656)"/></g></svg>