<svg xmlns="http://www.w3.org/2000/svg" width="512" height="512" viewBox="0 0 512 512"><title>Profan Skill</title><g style="stroke-width:1.54493;stroke-miterlimit:4;stroke-dasharray:none"><path d="M256 71.021c-102.285 0-185.02 82.74-185.02 184.979 0 102.238 82.735 184.979 185.02 184.979 34.573 0 66.906-9.464 94.572-25.928a14.98 15.023 0 0 1-3.242-8.108c-7.65 4.157-16.187 6.577-25.264 6.577-19.134 0-35.874-10.74-46.949-25.874-11.075-15.132-17.35-34.95-17.35-56.537s6.275-41.404 17.35-56.537 27.816-25.869 46.95-25.869c19.133 0 35.874 10.739 46.949 25.871 11.075 15.133 17.347 34.948 17.347 56.535 0 7.615-.796 15.001-2.293 22.047a14.98 15.023 0 0 1 1.336-1.453c5.692-5.426 11.628-6.432 17.455-6.351a14.98 15.023 0 0 0 .002 0c3.759.052 7.055.677 10.276 2.037a14.98 15.023 0 0 1 6.535-5.01C433.299 316.6 441.02 287.213 441.02 256c0-102.238-82.736-184.979-185.021-184.979m124.387 295.07c-2.384 6.573-5.441 12.715-9.117 18.296 2.776.152 5.395.704 7.402 1.513.48-6.873 1.15-13.535 1.715-19.808" style="color:#000;font-style:normal;font-variant:normal;font-weight:400;font-stretch:normal;font-size:medium;line-height:normal;font-family:sans-serif;font-variant-ligatures:normal;font-variant-position:normal;font-variant-caps:normal;font-variant-numeric:normal;font-variant-alternates:normal;font-variant-east-asian:normal;font-feature-settings:normal;font-variation-settings:normal;text-indent:0;text-align:start;text-decoration:none;text-decoration-line:none;text-decoration-style:solid;text-decoration-color:#000;letter-spacing:normal;word-spacing:normal;text-transform:none;writing-mode:lr-tb;direction:ltr;text-orientation:mixed;dominant-baseline:auto;baseline-shift:baseline;text-anchor:start;white-space:normal;shape-padding:0;shape-margin:0;inline-size:0;clip-rule:nonzero;display:inline;overflow:visible;visibility:visible;isolation:auto;mix-blend-mode:normal;color-interpolation:sRGB;color-interpolation-filters:linearRGB;solid-color:#000;solid-opacity:1;vector-effect:none;fill:#fff;fill-opacity:1;fill-rule:evenodd;stroke:none;stroke-width:15.0001;stroke-linecap:round;stroke-linejoin:round;stroke-miterlimit:4;stroke-dasharray:none;stroke-dashoffset:0;stroke-opacity:1;paint-order:normal;color-rendering:auto;image-rendering:auto;shape-rendering:auto;text-rendering:auto;stop-color:#000"/><path d="M447.55 349.821c-1.015.012-2.094.117-3.22.278-7.296 15.701-11.764 31.884-15.948 47.508-2.493-1.11-1.244-.147-3.746-1.246-1.06-13.662 1.576-26.516 2.503-39.532-1.796-1.301-4.705-2.268-7.671-2.31-3.105-.042-5.984.857-7.656 2.447-1.46 18.054-4.093 37.886-2.379 55.915 5.882 7.644 18.957 12.086 20.682 23.331l-4.96.698c-1.138-7.414-11.367-9.884-15.567-15.584l-2.034-2.713c-1.344-1.764-2.718-3.545-4.073-5.385-5.74-7.33-11.83-13.239-16.675-15.226-2.631-1.079-4.633-1.128-6.608-.114-1.74.893-3.626 2.954-5.376 6.528 14.328 13.285 18.933 26.75 22.19 35.651 1.553 4.245 5.189 8.105 7.924 12.091 4.188 6.105 11.048 11.033 20.335 12.73 9.288 1.696 20.312 1.351 25.19-3.931 5.293-3.003 9.26-8.897 13.19-16.026 3.93-7.13 5.844-17.777 12.43-24.778 3.793-4.034 9.626-9.635 12.195-11.327 1.285-.846 2.328-2.018 3.115-2.475.053-.03.091-.047.141-.076.352-2.538-.12-3.77-1.288-6.01-1.17-2.241-2.894-3.768-4.766-4.374-9.579 5.472-15.725 15.025-24.647 22.995-1.541-1.87-1.055-1.044-2.817-2.68 8.249-15.122 16.63-28.732 28.511-39.7-.418-2.456-2.081-5.095-4.322-7.025-2.254-1.94-4.97-3.008-6.936-2.988-12.237 11.925-20.888 25.944-29.375 40.742-1.856-1.12-2.152-1.674-4.096-2.702 5.068-16.639 9.923-33.534 18.108-48.437-3.422-3.92-6.835-6-11.36-6.254a15 15 0 0 0-.993-.02z" style="color:#000;font-style:normal;font-variant:normal;font-weight:400;font-stretch:normal;font-size:medium;line-height:normal;font-family:sans-serif;font-variant-ligatures:normal;font-variant-position:normal;font-variant-caps:normal;font-variant-numeric:normal;font-variant-alternates:normal;font-variant-east-asian:normal;font-feature-settings:normal;font-variation-settings:normal;text-indent:0;text-align:start;text-decoration:none;text-decoration-line:none;text-decoration-style:solid;text-decoration-color:#000;letter-spacing:normal;word-spacing:normal;text-transform:none;writing-mode:lr-tb;direction:ltr;text-orientation:mixed;dominant-baseline:auto;baseline-shift:baseline;text-anchor:start;white-space:normal;shape-padding:0;shape-margin:0;inline-size:0;clip-rule:nonzero;display:inline;overflow:visible;visibility:visible;isolation:auto;mix-blend-mode:normal;color-interpolation:sRGB;color-interpolation-filters:linearRGB;solid-color:#000;solid-opacity:1;vector-effect:none;fill:#fff;fill-opacity:1;fill-rule:nonzero;stroke:none;stroke-width:33.1057;stroke-linecap:round;stroke-linejoin:round;stroke-miterlimit:4;stroke-dasharray:none;stroke-dashoffset:0;stroke-opacity:1;paint-order:stroke fill markers;color-rendering:auto;image-rendering:auto;shape-rendering:auto;text-rendering:auto;stop-color:#000" transform="matrix(.90492 0 0 .90747 23.072 38.656)"/><path d="M330.41 248.018c-30.1 0-54.501 33.246-54.501 74.257s24.401 74.26 54.501 74.26 54.5-33.248 54.5-74.26c0-41.011-24.4-74.257-54.5-74.257m-19.639 58.128c3.393 0 6.502.586 9.077 1.762 2.224 1.017 4.248 2.743 4.786 5.059.152.354.23.727.23 1.104s-.078.75-.23 1.104c-.538 2.315-2.562 4.042-4.786 5.058-2.575 1.177-5.684 1.762-9.077 1.762s-6.503-.585-9.078-1.762c-2.576-1.176-5.016-3.253-5.016-6.162 0-2.91 2.44-4.986 5.016-6.163 2.575-1.176 5.686-1.762 9.078-1.762m38.122 0c3.392 0 6.5.586 9.076 1.762 2.224 1.016 4.249 2.742 4.787 5.057.153.354.23.729.23 1.106s-.078.751-.23 1.106c-.54 2.314-2.563 4.04-4.787 5.056-2.575 1.177-5.684 1.762-9.076 1.762s-6.504-.585-9.08-1.762c-2.575-1.176-5.015-3.253-5.015-6.162 0-2.91 2.44-4.986 5.016-6.163 2.575-1.176 5.686-1.762 9.079-1.762m-41.406 47.525c23.674 1.46 23.955 1.648 45.846 0 2.582 3.91-1.827 6.368-9.312 10.38-7.42 3.978-18.033 4.564-27.223 0-7.607-3.778-11.893-6.47-9.31-10.38" style="color:#000;font-style:normal;font-variant:normal;font-weight:400;font-stretch:normal;font-size:medium;line-height:normal;font-family:sans-serif;font-variant-ligatures:normal;font-variant-position:normal;font-variant-caps:normal;font-variant-numeric:normal;font-variant-alternates:normal;font-variant-east-asian:normal;font-feature-settings:normal;font-variation-settings:normal;text-indent:0;text-align:start;text-decoration:none;text-decoration-line:none;text-decoration-style:solid;text-decoration-color:#000;letter-spacing:normal;word-spacing:normal;text-transform:none;writing-mode:lr-tb;direction:ltr;text-orientation:mixed;dominant-baseline:auto;baseline-shift:baseline;text-anchor:start;white-space:normal;shape-padding:0;shape-margin:0;inline-size:0;clip-rule:nonzero;display:inline;overflow:visible;visibility:visible;isolation:auto;mix-blend-mode:normal;color-interpolation:sRGB;color-interpolation-filters:linearRGB;solid-color:#000;solid-opacity:1;vector-effect:none;fill:#fff;fill-opacity:1;fill-rule:evenodd;stroke:none;stroke-width:33.1057;stroke-linecap:round;stroke-linejoin:round;stroke-miterlimit:4;stroke-dasharray:none;stroke-dashoffset:0;stroke-opacity:1;paint-order:stroke fill markers;color-rendering:auto;image-rendering:auto;shape-rendering:auto;text-rendering:auto;stop-color:#000" transform="matrix(.90492 0 0 .90747 23.072 38.656)"/></g></svg>