<svg xmlns="http://www.w3.org/2000/svg" width="512" height="512" viewBox="0 0 512 512"><title>Profan Skill</title><g style="stroke-width:1.54493;stroke-miterlimit:4;stroke-dasharray:none"><path d="M256 63.51c-6.154 0-12.238.302-18.244.867a128.6 128.6 0 0 1 11.463 13.598c19.58 26.754 31.157 62.567 31.365 101.84q.038.528.039 1.058 0 .53-.039 1.057c-.207 39.274-11.784 75.086-31.365 101.841-19.759 26.998-48.497 45.075-80.881 45.075S107.22 310.769 87.46 283.77c-9.849-13.457-17.68-29.204-23.06-46.529A195 195 0 0 0 63.49 256c0 106.309 86.188 192.49 192.509 192.49 12.862 0 25.424-1.272 37.58-3.678a66 66 0 0 1-6.676-8.212c-4.007-5.857-11.643-13.277-15.955-25.092-5.982-16.395-12.924-37.134-36.246-58.82a15.302 14.707 0 0 1-3.21-16.817c3.993-8.177 8.612-14.553 16.327-18.525 7.538-3.882 17.992-3.304 25.168-.354a15.302 14.707 0 0 0 .002.002c6.92 2.846 12.938 7.087 18.555 12.246.355-25.5 3.43-50.963 5.297-74.127a15.302 14.707 0 0 1 4.478-9.304c7.204-6.869 15.992-8.813 24.81-8.692a15.302 14.707 0 0 0 .003 0c8.675.12 16.175 2.305 22.847 7.15a15.302 14.707 0 0 1 3.452 3.499c1.401-3.311 2.84-6.62 4.37-9.926a15.302 14.707 0 0 1 11.714-8.563c2.488-.357 5.089-.631 7.888-.664a15.302 14.707 0 0 1 .075 0 15.302 14.707 0 0 1 .982.024c.601.007 1.2.005 1.81.039a15.302 14.707 0 0 1 .008 0c12.585.709 23.661 7.74 31.34 16.56a15.302 14.707 0 0 1 1.807 16.287c-1.888 3.447-3.662 6.996-5.371 10.606a221 221 0 0 1 8.648-8.95 15.302 14.707 0 0 1 10.748-4.394c8.914-.09 15.537 3.138 21.738 8.225.206-3.645.32-7.314.32-11.01 0-106.309-86.188-192.49-192.509-192.49m56.096 192.738c-.659 8.168-1.45 16.539-2.217 25.008.768-8.47 1.558-16.84 2.217-25.008m-2.217 25.008c-.96 10.586-1.882 21.328-2.465 32.03.583-10.702 1.505-21.444 2.465-32.03m-3.08 51.203c-.039 6.348.11 12.637.514 18.826-.404-6.19-.553-12.478-.514-18.826m32.397-3.703c.499.105 1.227.338 2.802 1.04-1.573-.701-2.303-.935-2.803-1.04m30.767 15.959c.743.552 1.476 1.115 2.502 1.79-1.026-.675-1.759-1.238-2.502-1.79m-50.203 37.928c2.231 1.502 4.486 2.993 6.584 4.572-2.098-1.579-4.353-3.07-6.584-4.572m-33.156 26.847c.914 1.88 2.022 3.725 3.238 5.547-1.216-1.822-2.324-3.666-3.238-5.547m19.65 26.86" style="color:#000;font-style:normal;font-variant:normal;font-weight:400;font-stretch:normal;font-size:medium;line-height:normal;font-family:sans-serif;font-variant-ligatures:normal;font-variant-position:normal;font-variant-caps:normal;font-variant-numeric:normal;font-variant-alternates:normal;font-variant-east-asian:normal;font-feature-settings:normal;font-variation-settings:normal;text-indent:0;text-align:start;text-decoration:none;text-decoration-line:none;text-decoration-style:solid;text-decoration-color:#000;letter-spacing:normal;word-spacing:normal;text-transform:none;writing-mode:lr-tb;direction:ltr;text-orientation:mixed;dominant-baseline:auto;baseline-shift:baseline;text-anchor:start;white-space:normal;shape-padding:0;shape-margin:0;inline-size:0;clip-rule:nonzero;display:inline;overflow:visible;visibility:visible;isolation:auto;mix-blend-mode:normal;color-interpolation:sRGB;color-interpolation-filters:linearRGB;solid-color:#000;solid-opacity:1;vector-effect:none;fill:#fff;fill-opacity:1;fill-rule:evenodd;stroke:none;stroke-width:15.0001;stroke-linecap:round;stroke-linejoin:round;stroke-miterlimit:4;stroke-dasharray:none;stroke-dashoffset:0;stroke-opacity:1;paint-order:normal;color-rendering:auto;image-rendering:auto;shape-rendering:auto;text-rendering:auto;stop-color:#000"/><path d="M256 56a202 202 0 0 0-25.371 1.6c4.788 4.182 9.283 8.813 13.453 13.812 3.941-.25 7.913-.39 11.918-.39 102.285 0 185.021 82.74 185.021 184.978 0 2.05-.045 4.09-.11 6.125 2.978 1.523 5.743 3.502 8.444 5.836 2.146 1.853 4.101 3.858 5.817 6.035.518-5.798.804-11.662.816-17.592l.002-.021A7.49 7.51 0 0 0 456 256a7.49 7.51 0 0 0-.01-.35C455.8 145.432 366.24 56 256 56M59.605 218.127A200.6 200.6 0 0 0 56 256c0 110.38 89.644 200 200 200 15.238 0 30.079-1.717 44.346-4.953a67.6 67.6 0 0 1-12.28-12.838 186.6 186.6 0 0 1-32.066 2.77c-102.285 0-185.02-82.74-185.02-184.979 0-.351.012-.7.014-1.05-5.006-11.439-8.853-23.797-11.389-36.823m388.434 93.796q-.136.15-.273.3a15.302 14.707 0 0 1 .175.03zm-6.172 16.71c-2.633 1.715-5.117 3.615-7.517 5.63 2.4-2.015 4.884-3.915 7.517-5.63M314.586 443.03a56 56 0 0 0 4.678 2.729l.004-.002a56 56 0 0 1-4.682-2.727" style="color:#000;font-style:normal;font-variant:normal;font-weight:400;font-stretch:normal;font-size:medium;line-height:normal;font-family:sans-serif;font-variant-ligatures:normal;font-variant-position:normal;font-variant-caps:normal;font-variant-numeric:normal;font-variant-alternates:normal;font-variant-east-asian:normal;font-feature-settings:normal;font-variation-settings:normal;text-indent:0;text-align:start;text-decoration:none;text-decoration-line:none;text-decoration-style:solid;text-decoration-color:#000;letter-spacing:normal;word-spacing:normal;text-transform:none;writing-mode:lr-tb;direction:ltr;text-orientation:mixed;dominant-baseline:auto;baseline-shift:baseline;text-anchor:start;white-space:normal;shape-padding:0;shape-margin:0;inline-size:0;clip-rule:nonzero;display:inline;overflow:visible;visibility:visible;isolation:auto;mix-blend-mode:normal;color-interpolation:sRGB;color-interpolation-filters:linearRGB;solid-color:#000;solid-opacity:1;vector-effect:none;fill:#000100;fill-opacity:1;fill-rule:evenodd;stroke:none;stroke-width:15.0001;stroke-linecap:round;stroke-linejoin:round;stroke-miterlimit:4;stroke-dasharray:none;stroke-dashoffset:0;stroke-opacity:1;paint-order:normal;color-rendering:auto;image-rendering:auto;shape-rendering:auto;text-rendering:auto;stop-color:#000"/><path d="M854.65 75.28c-35.788 0-67.54 19.92-89.376 49.671s-34.704 69.651-34.704 113.391 12.87 83.64 34.704 113.391c21.835 29.75 53.588 49.67 89.375 49.67s67.545-19.92 89.38-49.67c21.639-29.483 34.432-68.948 34.66-112.226a17 17 0 0 0 .044-1.165 17 17 0 0 0-.043-1.166c-.23-43.278-13.023-82.742-34.661-112.225-21.835-29.75-53.592-49.67-89.38-49.67m.001 16.554c59.386 0 107.527 65.593 107.527 146.508s-48.14 146.51-107.527 146.51c-59.385 0-107.529-65.595-107.529-146.51s48.144-146.508 107.53-146.508" style="color:#000;font-style:normal;font-variant:normal;font-weight:400;font-stretch:normal;font-size:medium;line-height:normal;font-family:sans-serif;font-variant-ligatures:normal;font-variant-position:normal;font-variant-caps:normal;font-variant-numeric:normal;font-variant-alternates:normal;font-variant-east-asian:normal;font-feature-settings:normal;font-variation-settings:normal;text-indent:0;text-align:start;text-decoration:none;text-decoration-line:none;text-decoration-style:solid;text-decoration-color:#000;letter-spacing:normal;word-spacing:normal;text-transform:none;writing-mode:lr-tb;direction:ltr;text-orientation:mixed;dominant-baseline:auto;baseline-shift:baseline;text-anchor:start;white-space:normal;shape-padding:0;shape-margin:0;inline-size:0;clip-rule:nonzero;display:inline;overflow:visible;visibility:visible;isolation:auto;mix-blend-mode:normal;color-interpolation:sRGB;color-interpolation-filters:linearRGB;solid-color:#000;solid-opacity:1;vector-effect:none;fill:#000;fill-opacity:1;fill-rule:evenodd;stroke:none;stroke-width:33.1057;stroke-linecap:round;stroke-linejoin:round;stroke-miterlimit:4;stroke-dasharray:none;stroke-dashoffset:0;stroke-opacity:1;paint-order:stroke fill markers;color-rendering:auto;image-rendering:auto;shape-rendering:auto;text-rendering:auto;stop-color:#000" transform="matrix(.90492 0 0 .90747 -605.047 -35.414)"/><path d="M854.652 91.834c-59.386 0-107.53 65.593-107.53 146.508s48.144 146.51 107.53 146.51c59.385 0 107.526-65.595 107.526-146.51S914.038 91.834 854.652 91.834m-38.747 114.684c6.693 0 12.826 1.157 17.908 3.479 4.388 2.005 8.381 5.411 9.442 9.98.3.698.455 1.435.456 2.178 0 .743-.155 1.48-.456 2.178-1.061 4.568-5.054 7.975-9.442 9.98-5.082 2.322-11.215 3.476-17.908 3.476s-12.831-1.154-17.912-3.476c-5.082-2.321-9.896-6.418-9.896-12.158s4.814-9.837 9.896-12.158c5.08-2.322 11.219-3.479 17.912-3.479m75.212 0c6.693 0 12.827 1.157 17.908 3.479 4.387 2.004 8.382 5.41 9.445 9.975.3.7.453 1.439.453 2.183a5.5 5.5 0 0 1-.455 2.182c-1.063 4.566-5.056 7.972-9.443 9.976-5.081 2.322-11.215 3.476-17.908 3.476s-12.831-1.154-17.912-3.476-9.896-6.418-9.896-12.158 4.815-9.837 9.896-12.158c5.08-2.322 11.219-3.479 17.912-3.479m-81.692 93.767c46.708 2.878 47.262 3.25 90.453 0 5.094 7.715-3.605 12.563-18.372 20.479-14.642 7.848-35.58 9.004-53.71 0-15.008-7.453-23.465-12.764-18.37-20.479" style="color:#000;font-style:normal;font-variant:normal;font-weight:400;font-stretch:normal;font-size:medium;line-height:normal;font-family:sans-serif;font-variant-ligatures:normal;font-variant-position:normal;font-variant-caps:normal;font-variant-numeric:normal;font-variant-alternates:normal;font-variant-east-asian:normal;font-feature-settings:normal;font-variation-settings:normal;text-indent:0;text-align:start;text-decoration:none;text-decoration-line:none;text-decoration-style:solid;text-decoration-color:#000;letter-spacing:normal;word-spacing:normal;text-transform:none;writing-mode:lr-tb;direction:ltr;text-orientation:mixed;dominant-baseline:auto;baseline-shift:baseline;text-anchor:start;white-space:normal;shape-padding:0;shape-margin:0;inline-size:0;clip-rule:nonzero;display:inline;overflow:visible;visibility:visible;isolation:auto;mix-blend-mode:normal;color-interpolation:sRGB;color-interpolation-filters:linearRGB;solid-color:#000;solid-opacity:1;vector-effect:none;fill:#fff;fill-opacity:1;fill-rule:evenodd;stroke:none;stroke-width:33.1057;stroke-linecap:round;stroke-linejoin:round;stroke-miterlimit:4;stroke-dasharray:none;stroke-dashoffset:0;stroke-opacity:1;paint-order:stroke fill markers;color-rendering:auto;image-rendering:auto;shape-rendering:auto;text-rendering:auto;stop-color:#000" transform="matrix(.90492 0 0 .90747 -605.047 -35.414)"/><g style="stroke:none;stroke-width:1.83054"><path d="M138.268 142.426c-7.277 0-13.95 1.492-19.475 4.49s-10.76 8.287-10.76 15.7c0 7.411 5.235 12.7 10.76 15.698s12.198 4.49 19.475 4.49c7.276 0 13.948-1.492 19.472-4.49 4.771-2.588 9.112-6.986 10.266-12.884a8.3 8.3 0 0 0 .494-2.815 8.3 8.3 0 0 0-.494-2.812c-1.154-5.9-5.494-10.298-10.266-12.887-5.524-2.998-12.196-4.49-19.472-4.49m0 16.553c4.85 0 9.155 1.171 11.578 2.486 1.01.548 1.354.889 1.633 1.15-.279.262-.624.603-1.633 1.15-2.423 1.315-6.728 2.487-11.578 2.487s-9.158-1.172-11.58-2.486c-1.01-.548-1.355-.89-1.633-1.15.278-.262.623-.603 1.633-1.151 2.422-1.315 6.73-2.486 11.58-2.486" style="color:#000;font-style:normal;font-variant:normal;font-weight:400;font-stretch:normal;font-size:medium;line-height:normal;font-family:sans-serif;font-variant-ligatures:normal;font-variant-position:normal;font-variant-caps:normal;font-variant-numeric:normal;font-variant-alternates:normal;font-variant-east-asian:normal;font-feature-settings:normal;font-variation-settings:normal;text-indent:0;text-align:start;text-decoration:none;text-decoration-line:none;text-decoration-style:solid;text-decoration-color:#000;letter-spacing:normal;word-spacing:normal;text-transform:none;writing-mode:lr-tb;direction:ltr;text-orientation:mixed;dominant-baseline:auto;baseline-shift:baseline;text-anchor:start;white-space:normal;shape-padding:0;shape-margin:0;inline-size:0;clip-rule:nonzero;display:inline;overflow:visible;visibility:visible;isolation:auto;mix-blend-mode:normal;color-interpolation:sRGB;color-interpolation-filters:linearRGB;solid-color:#000;solid-opacity:1;vector-effect:none;fill-opacity:1;fill-rule:evenodd;stroke:none;stroke-width:19.6129;stroke-linecap:round;stroke-linejoin:round;stroke-miterlimit:4;stroke-dasharray:none;stroke-dashoffset:0;stroke-opacity:1;paint-order:stroke fill markers;color-rendering:auto;image-rendering:auto;shape-rendering:auto;text-rendering:auto;stop-color:#000;stop-opacity:1" transform="matrix(.83229 0 0 .70279 18.198 51.9)"/><path d="M160.225 162.615c0 6.58-9.831 11.914-21.958 11.914s-21.958-5.334-21.958-11.914 9.831-11.914 21.958-11.914 21.958 5.334 21.958 11.914" style="color:#000;font-style:normal;font-variant:normal;font-weight:400;font-stretch:normal;font-size:medium;line-height:normal;font-family:sans-serif;font-variant-ligatures:normal;font-variant-position:normal;font-variant-caps:normal;font-variant-numeric:normal;font-variant-alternates:normal;font-variant-east-asian:normal;font-feature-settings:normal;font-variation-settings:normal;text-indent:0;text-align:start;text-decoration:none;text-decoration-line:none;text-decoration-style:solid;text-decoration-color:#000;letter-spacing:normal;word-spacing:normal;text-transform:none;writing-mode:lr-tb;direction:ltr;text-orientation:mixed;dominant-baseline:auto;baseline-shift:baseline;text-anchor:start;white-space:normal;shape-padding:0;shape-margin:0;inline-size:0;clip-rule:nonzero;display:inline;overflow:visible;visibility:visible;isolation:auto;mix-blend-mode:normal;color-interpolation:sRGB;color-interpolation-filters:linearRGB;solid-color:#000;solid-opacity:1;vector-effect:none;fill:#000;fill-opacity:1;fill-rule:evenodd;stroke:none;stroke-width:19.6129;stroke-linecap:round;stroke-linejoin:round;stroke-miterlimit:4;stroke-dasharray:none;stroke-dashoffset:0;stroke-opacity:1;paint-order:stroke fill markers;color-rendering:auto;image-rendering:auto;shape-rendering:auto;text-rendering:auto;stop-color:#000;stop-opacity:1" transform="matrix(.83229 0 0 .70279 18.198 51.9)"/></g><path d="M891.116 206.518c-6.693 0-12.83 1.156-17.912 3.478-5.08 2.321-9.896 6.418-9.896 12.158s4.815 9.837 9.896 12.158c5.082 2.322 11.22 3.478 17.912 3.478 6.693 0 12.829-1.156 17.91-3.478 4.387-2.004 8.379-5.41 9.441-9.975.302-.7.456-1.439.457-2.183 0-.744-.154-1.483-.455-2.183-1.062-4.566-5.056-7.97-9.443-9.975-5.081-2.322-11.217-3.478-17.91-3.478" style="color:#000;font-style:normal;font-variant:normal;font-weight:400;font-stretch:normal;font-size:medium;line-height:normal;font-family:sans-serif;font-variant-ligatures:normal;font-variant-position:normal;font-variant-caps:normal;font-variant-numeric:normal;font-variant-alternates:normal;font-variant-east-asian:normal;font-feature-settings:normal;font-variation-settings:normal;text-indent:0;text-align:start;text-decoration:none;text-decoration-line:none;text-decoration-style:solid;text-decoration-color:#000;letter-spacing:normal;word-spacing:normal;text-transform:none;writing-mode:lr-tb;direction:ltr;text-orientation:mixed;dominant-baseline:auto;baseline-shift:baseline;text-anchor:start;white-space:normal;shape-padding:0;shape-margin:0;inline-size:0;clip-rule:nonzero;display:inline;overflow:visible;visibility:visible;isolation:auto;mix-blend-mode:normal;color-interpolation:sRGB;color-interpolation-filters:linearRGB;solid-color:#000;solid-opacity:1;vector-effect:none;fill-opacity:1;fill-rule:evenodd;stroke:none;stroke-width:16.5528;stroke-linecap:round;stroke-linejoin:round;stroke-miterlimit:4;stroke-dasharray:none;stroke-dashoffset:0;stroke-opacity:1;paint-order:stroke fill markers;color-rendering:auto;image-rendering:auto;shape-rendering:auto;text-rendering:auto;stop-color:#000" transform="matrix(.90492 0 0 .90747 -605.047 -35.414)"/><path d="M899.877 300.285c5.094 7.714-3.603 12.563-18.37 20.479-14.642 7.848-35.58 9.004-53.712 0-15.007-7.453-23.465-12.765-18.37-20.48 46.708 2.88 47.261 3.251 90.452 0" style="fill:#000;fill-opacity:1;fill-rule:evenodd;stroke:none;stroke-width:33.1057;stroke-linecap:round;stroke-linejoin:round;stroke-miterlimit:4;stroke-dasharray:none;stroke-opacity:1;paint-order:stroke fill markers;stop-color:#000" transform="matrix(.90492 0 0 .90747 -605.047 -35.414)"/><path d="M815.904 206.518c-6.693 0-12.83 1.156-17.912 3.478s-9.896 6.418-9.896 12.158 4.815 9.837 9.896 12.158c5.081 2.322 11.219 3.478 17.912 3.478s12.828-1.156 17.91-3.478c4.388-2.005 8.38-5.41 9.441-9.978.3-.7.454-1.437.455-2.18 0-.743-.154-1.48-.455-2.178-1.06-4.569-5.053-7.975-9.441-9.98-5.082-2.322-11.217-3.478-17.91-3.478" style="color:#000;font-style:normal;font-variant:normal;font-weight:400;font-stretch:normal;font-size:medium;line-height:normal;font-family:sans-serif;font-variant-ligatures:normal;font-variant-position:normal;font-variant-caps:normal;font-variant-numeric:normal;font-variant-alternates:normal;font-variant-east-asian:normal;font-feature-settings:normal;font-variation-settings:normal;text-indent:0;text-align:start;text-decoration:none;text-decoration-line:none;text-decoration-style:solid;text-decoration-color:#000;letter-spacing:normal;word-spacing:normal;text-transform:none;writing-mode:lr-tb;direction:ltr;text-orientation:mixed;dominant-baseline:auto;baseline-shift:baseline;text-anchor:start;white-space:normal;shape-padding:0;shape-margin:0;inline-size:0;clip-rule:nonzero;display:inline;overflow:visible;visibility:visible;isolation:auto;mix-blend-mode:normal;color-interpolation:sRGB;color-interpolation-filters:linearRGB;solid-color:#000;solid-opacity:1;vector-effect:none;fill-opacity:1;fill-rule:evenodd;stroke:none;stroke-width:16.5528;stroke-linecap:round;stroke-linejoin:round;stroke-miterlimit:4;stroke-dasharray:none;stroke-dashoffset:0;stroke-opacity:1;paint-order:stroke fill markers;color-rendering:auto;image-rendering:auto;shape-rendering:auto;text-rendering:auto;stop-color:#000" transform="matrix(.90492 0 0 .90747 -605.047 -35.414)"/><path d="M922.922 131.427c-3.094.036-5.969.338-8.718.732a16.91 16.207 0 0 0-12.943 9.436c-1.693 3.642-3.282 7.29-4.83 10.938a16.91 16.207 0 0 0-3.815-3.855c-7.373-5.34-15.66-7.747-25.248-7.88a16.91 16.207 0 0 0-.002 0c-9.745-.134-19.457 2.01-27.418 9.578A16.91 16.207 0 0 0 835 160.63c-2.063 25.526-5.46 53.585-5.853 81.685-6.208-5.685-12.859-10.358-20.504-13.495a16.91 16.207 0 0 0-.002-.002c-7.93-3.25-19.483-3.888-27.813.39-8.526 4.378-13.63 11.403-18.044 20.414a16.91 16.207 0 0 0 3.548 18.532c25.773 23.897 33.444 46.752 40.055 64.818 4.765 13.02 13.204 21.197 17.632 27.65 10.714 15.618 28.582 28.213 51.513 32.403a16.91 16.207 0 0 0 .002 0c10.676 1.95 22.238 2.813 33.647 1.466 10.632-1.255 21.808-4.419 30.514-12.664 14.329-8.986 22.655-22.73 30.494-36.949 10.027-18.189 13.88-37.081 22.395-46.134 7.008-7.45 20.724-19.679 21.337-20.083v-.002c4.847-3.19 8.721-6.281 5.733-4.612a16.91 16.207 0 0 0 7.947-11.698c1.054-7.613-1.582-16.331-4.207-21.364-3.932-7.537-10.305-13.946-19.213-16.83a16.91 16.207 0 0 0-2.398-.592c3.465-3.828 7.023-7.552 10.804-11.044a16.91 16.207 0 0 0 4.956-14.282c-1.673-9.815-6.929-17.357-14.003-23.45-7.228-6.225-14.844-10.216-25.311-10.11a16.91 16.207 0 0 0-11.878 4.842 243 243 0 0 0-9.557 9.862c1.889-3.979 3.85-7.89 5.935-11.687a16.91 16.207 0 0 0-1.996-17.948c-8.486-9.72-20.726-17.468-34.633-18.25a16.91 16.207 0 0 0-.009 0c-.674-.037-1.336-.035-2-.042a16.91 16.207 0 0 0-1.086-.026 16.91 16.207 0 0 0-.082 0zm.207 16.205c.674-.008 1.337.005 1.981.04 9.026.508 15.83 4.656 22.654 12.473-16.322 29.722-26.003 63.415-36.111 96.597 3.877 2.05 4.468 3.154 8.17 5.39 16.924-29.512 34.178-57.47 58.581-81.252 3.92-.04 9.337 2.089 13.831 5.96 4.47 3.849 7.786 9.113 8.62 14.01-23.693 21.873-40.41 49.014-56.86 79.171 3.514 3.263 2.546 1.617 5.62 5.346 17.791-15.895 30.05-34.948 49.153-45.86 3.733 1.208 7.172 4.255 9.504 8.725 2.33 4.467 3.269 6.924 2.568 11.986-.1.057-.175.09-.28.15-1.57.912-3.652 3.249-6.214 4.936-5.124 3.374-16.754 14.544-24.32 22.588-13.134 13.962-16.951 35.197-24.79 49.414-7.837 14.218-15.749 25.972-26.305 31.962-9.727 10.534-31.712 11.222-50.234 7.839-18.521-3.385-32.2-13.211-40.553-25.387-5.454-7.948-12.706-15.648-15.804-24.112-6.496-17.751-15.678-44.605-44.252-71.1 3.49-7.126 7.252-11.236 10.722-13.018 3.937-2.021 7.931-1.923 13.18.229 9.662 3.963 21.804 15.746 33.25 30.364 2.703 3.669 5.445 7.221 8.125 10.74l4.055 5.409c8.376 11.367 28.776 16.293 31.044 31.079l9.892-1.393c-3.44-22.426-29.514-31.282-41.244-46.528-3.42-35.954 1.833-75.505 4.744-111.51 3.334-3.17 9.077-4.962 15.268-4.877 5.915.082 11.716 2.01 15.298 4.604-1.847 25.959-7.105 51.592-4.992 78.838 4.99 2.192 2.499.272 7.47 2.484 8.346-31.159 17.255-63.43 31.806-94.742 2.245-.322 4.399-.531 6.423-.555" style="color:#000;font-style:normal;font-variant:normal;font-weight:400;font-stretch:normal;font-size:medium;line-height:normal;font-family:sans-serif;font-variant-ligatures:normal;font-variant-position:normal;font-variant-caps:normal;font-variant-numeric:normal;font-variant-alternates:normal;font-variant-east-asian:normal;font-feature-settings:normal;font-variation-settings:normal;text-indent:0;text-align:start;text-decoration:none;text-decoration-line:none;text-decoration-style:solid;text-decoration-color:#000;letter-spacing:normal;word-spacing:normal;text-transform:none;writing-mode:lr-tb;direction:ltr;text-orientation:mixed;dominant-baseline:auto;baseline-shift:baseline;text-anchor:start;white-space:normal;shape-padding:0;shape-margin:0;inline-size:0;clip-rule:nonzero;display:inline;overflow:visible;visibility:visible;isolation:auto;mix-blend-mode:normal;color-interpolation:sRGB;color-interpolation-filters:linearRGB;solid-color:#000;solid-opacity:1;vector-effect:none;fill:#000100;fill-opacity:1;fill-rule:nonzero;stroke:none;stroke-width:33.1057;stroke-linecap:round;stroke-linejoin:round;stroke-miterlimit:4;stroke-dasharray:none;stroke-dashoffset:0;stroke-opacity:1;paint-order:stroke fill markers;color-rendering:auto;image-rendering:auto;shape-rendering:auto;text-rendering:auto;stop-color:#000" transform="matrix(.90492 0 0 .90747 -458.762 109.348)"/><path d="M923.128 147.632c-2.024.023-4.177.233-6.422.555-14.55 31.312-23.46 63.584-31.805 94.742-4.972-2.211-2.48-.292-7.47-2.484-2.113-27.246 3.144-52.88 4.992-78.838-3.583-2.595-9.384-4.523-15.3-4.605-6.19-.085-11.932 1.708-15.266 4.878-2.91 36.005-8.163 75.555-4.744 111.51 11.73 15.245 37.805 24.103 41.244 46.529l-9.892 1.393c-2.269-14.786-22.668-19.713-31.043-31.08l-4.057-5.41c-2.68-3.519-5.421-7.07-8.124-10.74-11.447-14.618-23.59-26.4-33.252-30.364-5.249-2.152-9.241-2.249-13.178-.227-3.47 1.781-7.234 5.891-10.723 13.017 28.574 26.496 37.758 53.348 44.253 71.1 3.098 8.464 10.349 16.163 15.802 24.112 8.354 12.175 22.033 22.002 40.555 25.386 18.521 3.383 40.507 2.696 50.233-7.839 10.557-5.99 18.468-17.743 26.306-31.96s11.654-35.453 24.788-49.415c7.566-8.044 19.198-19.215 24.321-22.589 2.563-1.687 4.644-4.024 6.213-4.935.105-.062.182-.093.282-.15.7-5.063-.24-7.52-2.57-11.986-2.332-4.47-5.772-7.516-9.504-8.725-19.103 10.913-31.361 29.964-49.153 45.86-3.074-3.73-2.104-2.082-5.618-5.345 16.45-30.158 33.166-57.3 56.86-79.174-.835-4.896-4.152-10.16-8.621-14.008-4.494-3.871-9.912-6-13.831-5.96-24.404 23.783-41.657 51.74-58.582 81.252-3.701-2.236-4.292-3.34-8.17-5.39 10.108-33.182 19.79-66.875 36.113-96.597-6.825-7.816-13.63-11.965-22.656-12.472a29 29 0 0 0-1.98-.04z" style="color:#000;font-style:normal;font-variant:normal;font-weight:400;font-stretch:normal;font-size:medium;line-height:normal;font-family:sans-serif;font-variant-ligatures:normal;font-variant-position:normal;font-variant-caps:normal;font-variant-numeric:normal;font-variant-alternates:normal;font-variant-east-asian:normal;font-feature-settings:normal;font-variation-settings:normal;text-indent:0;text-align:start;text-decoration:none;text-decoration-line:none;text-decoration-style:solid;text-decoration-color:#000;letter-spacing:normal;word-spacing:normal;text-transform:none;writing-mode:lr-tb;direction:ltr;text-orientation:mixed;dominant-baseline:auto;baseline-shift:baseline;text-anchor:start;white-space:normal;shape-padding:0;shape-margin:0;inline-size:0;clip-rule:nonzero;display:inline;overflow:visible;visibility:visible;isolation:auto;mix-blend-mode:normal;color-interpolation:sRGB;color-interpolation-filters:linearRGB;solid-color:#000;solid-opacity:1;vector-effect:none;fill:#fff;fill-opacity:1;fill-rule:nonzero;stroke:none;stroke-width:33.1057;stroke-linecap:round;stroke-linejoin:round;stroke-miterlimit:4;stroke-dasharray:none;stroke-dashoffset:0;stroke-opacity:1;paint-order:stroke fill markers;color-rendering:auto;image-rendering:auto;shape-rendering:auto;text-rendering:auto;stop-color:#000" transform="matrix(.90492 0 0 .90747 -458.762 109.348)"/></g></svg>