<svg xmlns="http://www.w3.org/2000/svg" xmlns:xlink="http://www.w3.org/1999/xlink" width="512" height="512" viewBox="0 0 512 512"><title>Profan Skill</title><defs><radialGradient xlink:href="#a" id="b" cx="256" cy="256" r="192.51" fx="256" fy="256" gradientTransform="matrix(1 0 0 .9999 0 .026)" gradientUnits="userSpaceOnUse"/><linearGradient id="a"><stop offset="0" style="stop-color:#e0dbcf;stop-opacity:1"/><stop offset="1" style="stop-color:#655743;stop-opacity:1"/></linearGradient></defs><g style="stroke-width:1.54493;stroke-miterlimit:4;stroke-dasharray:none"><path d="M256 63.51c-6.154 0-12.238.302-18.244.867a128.6 128.6 0 0 1 11.463 13.598c19.58 26.754 31.157 62.567 31.365 101.84q.038.528.039 1.058 0 .53-.039 1.057c-.207 39.274-11.784 75.086-31.365 101.841-19.759 26.998-48.497 45.075-80.881 45.075S107.22 310.769 87.46 283.77c-9.849-13.457-17.68-29.204-23.06-46.529A195 195 0 0 0 63.49 256c0 106.309 86.188 192.49 192.509 192.49 12.862 0 25.424-1.272 37.58-3.678a66 66 0 0 1-6.676-8.212c-4.007-5.857-11.643-13.277-15.955-25.092-5.982-16.395-12.924-37.134-36.246-58.82a15.302 14.707 0 0 1-3.21-16.817c3.993-8.177 8.612-14.553 16.327-18.525 7.538-3.882 17.992-3.304 25.168-.354a15.302 14.707 0 0 0 .002.002c6.92 2.846 12.938 7.087 18.555 12.246.355-25.5 3.43-50.963 5.297-74.127a15.302 14.707 0 0 1 4.478-9.304c7.204-6.869 15.992-8.813 24.81-8.692a15.302 14.707 0 0 0 .003 0c8.675.12 16.175 2.305 22.847 7.15a15.302 14.707 0 0 1 3.452 3.499c1.401-3.311 2.84-6.62 4.37-9.926a15.302 14.707 0 0 1 11.714-8.563c2.488-.357 5.089-.631 7.888-.664a15.302 14.707 0 0 1 .075 0 15.302 14.707 0 0 1 .982.024c.601.007 1.2.005 1.81.039a15.302 14.707 0 0 1 .008 0c12.585.709 23.661 7.74 31.34 16.56a15.302 14.707 0 0 1 1.807 16.287c-1.888 3.447-3.662 6.996-5.371 10.606a221 221 0 0 1 8.648-8.95 15.302 14.707 0 0 1 10.748-4.394c8.914-.09 15.537 3.138 21.738 8.225.206-3.645.32-7.314.32-11.01 0-106.309-86.188-192.49-192.509-192.49m56.096 192.738c-.659 8.168-1.45 16.539-2.217 25.008.768-8.47 1.558-16.84 2.217-25.008m-2.217 25.008c-.96 10.586-1.882 21.328-2.465 32.03.583-10.702 1.505-21.444 2.465-32.03m-3.08 51.203c-.039 6.348.11 12.637.514 18.826-.404-6.19-.553-12.478-.514-18.826m32.397-3.703c.499.105 1.227.338 2.802 1.04-1.573-.701-2.303-.935-2.803-1.04m30.767 15.959c.743.552 1.476 1.115 2.502 1.79-1.026-.675-1.759-1.238-2.502-1.79m-50.203 37.928c2.231 1.502 4.486 2.993 6.584 4.572-2.098-1.579-4.353-3.07-6.584-4.572m-33.156 26.847c.914 1.88 2.022 3.725 3.238 5.547-1.216-1.822-2.324-3.666-3.238-5.547m19.65 26.86" style="color:#000;font-style:normal;font-variant:normal;font-weight:400;font-stretch:normal;font-size:medium;line-height:normal;font-family:sans-serif;font-variant-ligatures:normal;font-variant-position:normal;font-variant-caps:normal;font-variant-numeric:normal;font-variant-alternates:normal;font-variant-east-asian:normal;font-feature-settings:normal;font-variation-settings:normal;text-indent:0;text-align:start;text-decoration:none;text-decoration-line:none;text-decoration-style:solid;text-decoration-color:#000;letter-spacing:normal;word-spacing:normal;text-transform:none;writing-mode:lr-tb;direction:ltr;text-orientation:mixed;dominant-baseline:auto;baseline-shift:baseline;text-anchor:start;white-space:normal;shape-padding:0;shape-margin:0;inline-size:0;clip-rule:nonzero;display:inline;overflow:visible;visibility:visible;isolation:auto;mix-blend-mode:normal;color-interpolation:sRGB;color-interpolation-filters:linearRGB;solid-color:#000;solid-opacity:1;vector-effect:none;fill:url(#b);fill-opacity:1;fill-rule:evenodd;stroke:none;stroke-width:15.0001;stroke-linecap:round;stroke-linejoin:round;stroke-miterlimit:4;stroke-dasharray:none;stroke-dashoffset:0;stroke-opacity:1;paint-order:normal;color-rendering:auto;image-rendering:auto;shape-rendering:auto;text-rendering:auto;stop-color:#000"/><path d="M160.532 10.21c-59.386 0-107.53 65.594-107.53 146.509s48.144 146.51 107.53 146.51 107.527-65.595 107.527-146.51S219.918 10.21 160.532 10.21m-38.747 114.685c6.693 0 12.827 1.157 17.908 3.478 4.388 2.005 8.382 5.412 9.443 9.98.3.699.455 1.436.455 2.179s-.155 1.479-.455 2.178c-1.062 4.567-5.055 7.975-9.443 9.98-5.081 2.321-11.215 3.476-17.908 3.476s-12.83-1.155-17.912-3.476c-5.081-2.322-9.896-6.418-9.896-12.158s4.815-9.837 9.896-12.159c5.081-2.321 11.22-3.478 17.912-3.478m75.212 0c6.693 0 12.827 1.157 17.908 3.478 4.387 2.005 8.382 5.41 9.445 9.976.3.7.453 1.438.453 2.183a5.5 5.5 0 0 1-.455 2.182c-1.063 4.566-5.056 7.971-9.443 9.976-5.081 2.321-11.215 3.476-17.908 3.476s-12.83-1.155-17.912-3.476c-5.081-2.322-9.896-6.418-9.896-12.158s4.815-9.837 9.896-12.159c5.081-2.321 11.22-3.478 17.912-3.478m-81.691 93.767c46.708 2.878 47.261 3.25 90.452 0 5.094 7.714-3.605 12.563-18.372 20.479-14.641 7.848-35.58 9.004-53.71 0-15.008-7.453-23.465-12.765-18.37-20.48" style="color:#000;font-style:normal;font-variant:normal;font-weight:400;font-stretch:normal;font-size:medium;line-height:normal;font-family:sans-serif;font-variant-ligatures:normal;font-variant-position:normal;font-variant-caps:normal;font-variant-numeric:normal;font-variant-alternates:normal;font-variant-east-asian:normal;font-feature-settings:normal;font-variation-settings:normal;text-indent:0;text-align:start;text-decoration:none;text-decoration-line:none;text-decoration-style:solid;text-decoration-color:#000;letter-spacing:normal;word-spacing:normal;text-transform:none;writing-mode:lr-tb;direction:ltr;text-orientation:mixed;dominant-baseline:auto;baseline-shift:baseline;text-anchor:start;white-space:normal;shape-padding:0;shape-margin:0;inline-size:0;clip-rule:nonzero;display:inline;overflow:visible;visibility:visible;isolation:auto;mix-blend-mode:normal;color-interpolation:sRGB;color-interpolation-filters:linearRGB;solid-color:#000;solid-opacity:1;vector-effect:none;fill:#655743;fill-opacity:1;fill-rule:evenodd;stroke:none;stroke-width:33.1057;stroke-linecap:round;stroke-linejoin:round;stroke-miterlimit:4;stroke-dasharray:none;stroke-dashoffset:0;stroke-opacity:1;paint-order:stroke fill markers;color-rendering:auto;image-rendering:auto;shape-rendering:auto;text-rendering:auto;stop-color:#000" transform="matrix(.90492 0 0 .90747 23.072 38.656)"/><path d="M390.664 225.532c-2.024.023-4.176.233-6.422.555-14.55 31.312-23.46 63.584-31.805 94.743-4.972-2.212-2.48-.293-7.47-2.485-2.113-27.246 3.144-52.88 4.992-78.838-3.583-2.595-9.384-4.523-15.3-4.605-6.19-.085-11.932 1.708-15.266 4.878-2.91 36.005-8.163 75.555-4.744 111.51 11.73 15.245 37.805 24.103 41.244 46.53L346 399.211c-2.269-14.786-22.668-19.713-31.043-31.08l-4.057-5.41c-2.68-3.518-5.421-7.07-8.124-10.74-11.447-14.618-23.59-26.4-33.252-30.364-5.249-2.152-9.241-2.249-13.178-.227-3.47 1.781-7.233 5.892-10.723 13.017 28.574 26.496 37.758 53.348 44.254 71.1 3.097 8.464 10.348 16.163 15.801 24.112 8.354 12.175 22.033 22.002 40.555 25.386 18.522 3.383 40.507 2.696 50.233-7.839 10.557-5.99 18.468-17.743 26.306-31.96s11.654-35.453 24.788-49.415c7.566-8.044 19.198-19.215 24.321-22.589 2.563-1.687 4.644-4.024 6.213-4.935.105-.061.182-.093.282-.15.7-5.063-.24-7.519-2.57-11.986-2.332-4.47-5.771-7.516-9.503-8.724-19.104 10.912-31.362 29.963-49.154 45.859-3.074-3.73-2.104-2.082-5.618-5.345 16.45-30.158 33.166-57.3 56.86-79.174-.835-4.896-4.152-10.16-8.621-14.008-4.494-3.871-9.912-5.999-13.831-5.96-24.404 23.783-41.657 51.74-58.582 81.252-3.701-2.236-4.292-3.34-8.17-5.389 10.108-33.182 19.79-66.876 36.113-96.597-6.825-7.817-13.63-11.965-22.656-12.473a29 29 0 0 0-1.98-.04z" style="color:#000;font-style:normal;font-variant:normal;font-weight:400;font-stretch:normal;font-size:medium;line-height:normal;font-family:sans-serif;font-variant-ligatures:normal;font-variant-position:normal;font-variant-caps:normal;font-variant-numeric:normal;font-variant-alternates:normal;font-variant-east-asian:normal;font-feature-settings:normal;font-variation-settings:normal;text-indent:0;text-align:start;text-decoration:none;text-decoration-line:none;text-decoration-style:solid;text-decoration-color:#000;letter-spacing:normal;word-spacing:normal;text-transform:none;writing-mode:lr-tb;direction:ltr;text-orientation:mixed;dominant-baseline:auto;baseline-shift:baseline;text-anchor:start;white-space:normal;shape-padding:0;shape-margin:0;inline-size:0;clip-rule:nonzero;display:inline;overflow:visible;visibility:visible;isolation:auto;mix-blend-mode:normal;color-interpolation:sRGB;color-interpolation-filters:linearRGB;solid-color:#000;solid-opacity:1;vector-effect:none;fill:#655743;fill-opacity:1;fill-rule:nonzero;stroke:none;stroke-width:33.1057;stroke-linecap:round;stroke-linejoin:round;stroke-miterlimit:4;stroke-dasharray:none;stroke-dashoffset:0;stroke-opacity:1;paint-order:stroke fill markers;color-rendering:auto;image-rendering:auto;shape-rendering:auto;text-rendering:auto;stop-color:#000" transform="matrix(.90492 0 0 .90747 23.072 38.656)"/></g></svg>